<svg width="24" height="24" viewBox="0 0 32 32" fill="none" xmlns="http://www.w3.org/2000/svg">
<path d="M7.05734 7.05732C7.30738 6.80736 7.64646 6.66694 8.00001 6.66694C8.35356 6.66694 8.69264 6.80736 8.94268 7.05732L16 14.1147L23.0573 7.05732C23.1803 6.92997 23.3275 6.8284 23.4901 6.75852C23.6528 6.68864 23.8278 6.65186 24.0048 6.65032C24.1818 6.64878 24.3574 6.68252 24.5213 6.74956C24.6851 6.8166 24.834 6.9156 24.9592 7.04079C25.0844 7.16598 25.1834 7.31485 25.2504 7.47871C25.3175 7.64258 25.3512 7.81815 25.3497 7.99519C25.3481 8.17223 25.3114 8.34719 25.2415 8.50986C25.1716 8.67253 25.07 8.81966 24.9427 8.94265L17.8853 16L24.9427 23.0573C25.1856 23.3088 25.3199 23.6456 25.3169 23.9952C25.3139 24.3448 25.1736 24.6792 24.9264 24.9264C24.6792 25.1736 24.3448 25.3138 23.9952 25.3169C23.6456 25.3199 23.3088 25.1855 23.0573 24.9427L16 17.8853L8.94268 24.9427C8.69121 25.1855 8.3544 25.3199 8.00481 25.3169C7.65521 25.3138 7.3208 25.1736 7.07359 24.9264C6.82637 24.6792 6.68615 24.3448 6.68311 23.9952C6.68007 23.6456 6.81447 23.3088 7.05734 23.0573L14.1147 16L7.05734 8.94265C6.80738 8.69262 6.66696 8.35354 6.66696 7.99999C6.66696 7.64643 6.80738 7.30736 7.05734 7.05732Z" fill="#CBCBCB"/>
</svg>
