<svg width="20" height="18" viewBox="0 0 24 18" fill="none" xmlns="http://www.w3.org/2000/svg">
<path d="M4.71975 12.5302C4.64997 12.4607 4.59463 12.3781 4.55691 12.2871C4.5192 12.1961 4.49986 12.0985 4.5 12L4.5 6C4.5 5.6895 4.69125 5.41125 4.98075 5.2995L14.7308 1.5495C14.8662 1.49741 15.0138 1.48577 15.1558 1.51599C15.2977 1.54621 15.4278 1.617 15.5303 1.71975L19.2803 5.46975C19.35 5.53928 19.4054 5.62192 19.4431 5.71292C19.4808 5.80393 19.5001 5.90149 19.5 6V12C19.5 12.3105 19.3088 12.5887 19.0193 12.7005L9.26925 16.4505C9.13381 16.5026 8.98616 16.5142 8.84424 16.484C8.70231 16.4538 8.57222 16.383 8.46975 16.2802L4.71975 12.5302ZM8.25 13.9387V10.0605L6 7.8105L6 11.6895L8.25 13.9387ZM6.59625 6.28575L9.17475 8.86425L17.2073 5.51775L14.814 3.12525L6.59625 6.28575ZM18 11.4847V6.81225L9.75 10.2495V14.658L18 11.4847Z" fill="#8EBCFC"/>
<rect x="17.25" y="15.75" width="6" height="1.5" rx="0.75" fill="#8EBCFC"/>
<rect x="17.25" y="0.75" width="6" height="1.5" rx="0.75" fill="#8EBCFC"/>
<rect x="21.75" y="17.25" width="16.5" height="1.5" rx="0.75" transform="rotate(-90 21.75 17.25)" fill="#8EBCFC"/>
<rect x="6.75" y="2.25" width="6" height="1.5" rx="0.75" transform="rotate(-180 6.75 2.25)" fill="#8EBCFC"/>
<rect x="6.75" y="17.25" width="6" height="1.5" rx="0.75" transform="rotate(-180 6.75 17.25)" fill="#8EBCFC"/>
<rect x="2.25" y="0.75" width="16.5" height="1.5" rx="0.75" transform="rotate(90 2.25 0.75)" fill="#8EBCFC"/>
</svg>
