<svg width="20" height="20" viewBox="0 0 20 20" fill="none" xmlns="http://www.w3.org/2000/svg">
<path d="M6.04813 7.61062L9.84625 5.41625C9.89288 5.38925 9.94581 5.37504 9.99969 5.37504C10.0536 5.37504 10.1065 5.38925 10.1531 5.41625L13.9513 7.61062C13.9981 7.63764 14.0369 7.67656 14.0638 7.72344C14.0907 7.77031 14.1047 7.82346 14.1044 7.8775V12.2625C14.104 12.3164 14.0898 12.3693 14.0629 12.4161C14.0361 12.4629 13.9976 12.5019 13.9513 12.5294L10.1531 14.72C10.1065 14.747 10.0536 14.7612 9.99969 14.7612C9.94581 14.7612 9.89288 14.747 9.84625 14.72L6.04813 12.5294C6.00133 12.5024 5.96251 12.4634 5.93561 12.4166C5.90872 12.3697 5.89471 12.3165 5.895 12.2625V7.8775C5.895 7.76687 5.95438 7.66562 6.04813 7.61062ZM19.8769 9.60937L15.3388 1.7125C15.1731 1.42562 14.8706 1.2175 14.5381 1.2175H5.46313C5.13375 1.2175 4.82813 1.42562 4.6625 1.7125L0.124375 9.59C0.0445469 9.73209 0.00261688 9.89233 0.00261688 10.0553C0.00261688 10.2183 0.0445469 10.3785 0.124375 10.5206L4.66625 18.3525C4.82875 18.6394 5.13437 18.7825 5.46375 18.7825H14.5419C14.8713 18.7825 15.1737 18.6425 15.3394 18.3556L19.8775 10.5137C19.9587 10.3768 20.0015 10.2205 20.0015 10.0612C20.0015 9.90202 19.9587 9.74573 19.8775 9.60875L19.8769 9.60937ZM16.12 13.405C16.1184 13.4627 16.1019 13.5191 16.0723 13.5687C16.0426 13.6182 16.0007 13.6594 15.9506 13.6881L10.1656 17.0212C10.1162 17.0498 10.0602 17.0648 10.0031 17.0648C9.94608 17.0648 9.89003 17.0498 9.84063 17.0212L4.0525 13.6881C4.00279 13.6589 3.96122 13.6177 3.93163 13.5682C3.90203 13.5187 3.88535 13.4626 3.88313 13.405V6.73187C3.88313 6.6175 3.95125 6.51 4.0525 6.45187L9.83438 3.115C9.88434 3.08819 9.94017 3.07416 9.99688 3.07416C10.0536 3.07416 10.1094 3.08819 10.1594 3.115L15.9475 6.45187C15.9972 6.48108 16.0388 6.52231 16.0684 6.57179C16.098 6.62126 16.1147 6.67739 16.1169 6.735L16.12 13.405Z" fill="#9374C0"/>
</svg>
