<svg width="24" height="24" viewBox="0 0 24 24" fill="none" xmlns="http://www.w3.org/2000/svg">
<path d="M7.10501 15.21C7.75866 15.4691 8.30058 15.9495 8.63619 16.5674C8.97181 17.1853 9.07981 17.9013 8.94136 18.5907C8.80291 19.2801 8.42679 19.899 7.87864 20.3393C7.33049 20.7797 6.64511 21.0136 5.9421 21.0003C5.23909 20.9869 4.56309 20.7271 4.03207 20.2662C3.50104 19.8054 3.1487 19.1726 3.03654 18.4785C2.92438 17.7844 3.05951 17.0729 3.41836 16.4682C3.77721 15.8636 4.33698 15.4041 5.00001 15.17V8.83C4.33251 8.59409 3.76991 8.1298 3.41165 7.51919C3.05338 6.90858 2.92252 6.19097 3.0422 5.49321C3.16187 4.79544 3.52438 4.16245 4.06563 3.70612C4.60689 3.24979 5.29205 2.99951 6.00001 2.99951C6.70796 2.99951 7.39312 3.24979 7.93438 3.70612C8.47564 4.16245 8.83814 4.79544 8.95782 5.49321C9.07749 6.19097 8.94663 6.90858 8.58837 7.51919C8.2301 8.1298 7.6675 8.59409 7.00001 8.83V12C7.83601 11.372 8.87401 11 10 11H14C14.6581 11 15.298 10.7837 15.8211 10.3844C16.3442 9.98505 16.7215 9.42483 16.895 8.79C16.2382 8.5299 15.6942 8.04643 15.3587 7.42469C15.0233 6.80295 14.918 6.08281 15.0613 5.39105C15.2046 4.69929 15.5873 4.08026 16.1421 3.64294C16.697 3.20562 17.3883 2.97804 18.0944 3.00028C18.8005 3.02252 19.4761 3.29315 20.0023 3.76452C20.5285 4.23589 20.8715 4.87778 20.971 5.57718C21.0705 6.27659 20.92 6.98868 20.5461 7.58807C20.1723 8.18747 19.5989 8.63575 18.927 8.854C18.7254 10.0146 18.1207 11.0668 17.2194 11.8253C16.3181 12.5837 15.178 12.9997 14 13H10C9.3419 13 8.70202 13.2163 8.17892 13.6156C7.65581 14.0149 7.27847 14.5752 7.10501 15.21ZM6.00001 17C5.73479 17 5.48044 17.1054 5.2929 17.2929C5.10536 17.4804 5.00001 17.7348 5.00001 18C5.00001 18.2652 5.10536 18.5196 5.2929 18.7071C5.48044 18.8946 5.73479 19 6.00001 19C6.26522 19 6.51958 18.8946 6.70711 18.7071C6.89465 18.5196 7.00001 18.2652 7.00001 18C7.00001 17.7348 6.89465 17.4804 6.70711 17.2929C6.51958 17.1054 6.26522 17 6.00001 17ZM6.00001 5C5.73479 5 5.48044 5.10535 5.2929 5.29289C5.10536 5.48043 5.00001 5.73478 5.00001 6C5.00001 6.26521 5.10536 6.51957 5.2929 6.7071C5.48044 6.89464 5.73479 7 6.00001 7C6.26522 7 6.51958 6.89464 6.70711 6.7071C6.89465 6.51957 7.00001 6.26521 7.00001 6C7.00001 5.73478 6.89465 5.48043 6.70711 5.29289C6.51958 5.10535 6.26522 5 6.00001 5ZM18 5C17.7348 5 17.4804 5.10535 17.2929 5.29289C17.1054 5.48043 17 5.73478 17 6C17 6.26521 17.1054 6.51957 17.2929 6.7071C17.4804 6.89464 17.7348 7 18 7C18.2652 7 18.5196 6.89464 18.7071 6.7071C18.8947 6.51957 19 6.26521 19 6C19 5.73478 18.8947 5.48043 18.7071 5.29289C18.5196 5.10535 18.2652 5 18 5Z" fill="#4277D0"/>
</svg>
