<svg width="20" height="20" viewBox="0 0 20 20" fill="none" xmlns="http://www.w3.org/2000/svg">
<path fill-rule="evenodd" clip-rule="evenodd" d="M18.0192 9.25834L10.7417 1.98001C10.5402 1.77925 10.2673 1.66653 9.98292 1.66653C9.69849 1.66653 9.42566 1.77925 9.22417 1.98001L7.71333 3.49251L9.63 5.40917C9.85599 5.33254 10.099 5.32086 10.3313 5.37547C10.5636 5.43008 10.7759 5.54879 10.944 5.71809C11.1122 5.88739 11.2295 6.1005 11.2826 6.33316C11.3356 6.56582 11.3223 6.8087 11.2442 7.03417L13.0917 8.88167C13.3677 8.78678 13.668 8.78937 13.9424 8.88901C14.2168 8.98865 14.4488 9.17932 14.5996 9.42925C14.7505 9.67918 14.8112 9.97326 14.7715 10.2625C14.7318 10.5517 14.5942 10.8186 14.3816 11.0187C14.1691 11.2188 13.8943 11.3399 13.6032 11.362C13.3121 11.3841 13.0223 11.3058 12.7819 11.14C12.5416 10.9743 12.3653 10.7312 12.2825 10.4513C12.1996 10.1714 12.2152 9.8715 12.3267 9.60167L10.6033 7.87834V12.4125C10.8652 12.5421 11.0747 12.7575 11.197 13.0228C11.3193 13.2881 11.3469 13.5873 11.2753 13.8706C11.2037 14.1538 11.0372 14.404 10.8035 14.5793C10.5699 14.7547 10.2831 14.8446 9.99118 14.8342C9.69922 14.8238 9.41965 14.7136 9.19908 14.522C8.97851 14.3304 8.83026 14.0691 8.77905 13.7814C8.72784 13.4938 8.77676 13.1973 8.91766 12.9414C9.05856 12.6855 9.28291 12.4856 9.55334 12.375V7.80001C9.39724 7.73629 9.25534 7.64225 9.13583 7.52333C9.01633 7.40441 8.92159 7.26297 8.85711 7.1072C8.79263 6.95142 8.75969 6.78441 8.76018 6.61581C8.76068 6.44722 8.79461 6.2804 8.86 6.12501L6.97083 4.23417L1.98083 9.22334C1.77983 9.42486 1.66695 9.69788 1.66695 9.98251C1.66695 10.2671 1.77983 10.5402 1.98083 10.7417L9.25833 18.0183C9.45982 18.2191 9.73266 18.3318 10.0171 18.3318C10.3015 18.3318 10.5743 18.2191 10.7758 18.0183L18.0192 10.775C18.2202 10.5735 18.3331 10.3005 18.3331 10.0158C18.3331 9.73121 18.2202 9.4582 18.0192 9.25667" fill="#49535B"/>
</svg>
