<svg width="20" height="20" viewBox="0 0 20 20" fill="none" xmlns="http://www.w3.org/2000/svg">
<path d="M11.7338 12.3125C11.9278 12.7054 12.2287 13.0357 12.6019 13.2654C12.9751 13.4951 13.4055 13.615 13.8438 13.6112C14.73 13.6112 15.2963 13.1681 15.2963 12.5562C15.2963 11.8231 14.7144 11.5631 13.7394 11.1362L13.2044 10.9069C11.6613 10.2494 10.6356 9.42562 10.6356 7.68437C10.6356 6.07999 11.8581 4.85937 13.7681 4.85937C14.388 4.81455 15.0074 4.95338 15.5488 5.2585C16.0902 5.56363 16.5298 6.02153 16.8125 6.57499L15.1469 7.64437C15.0376 7.37021 14.8476 7.13572 14.602 6.97199C14.3565 6.80825 14.067 6.72298 13.7719 6.72749C13.6432 6.71465 13.5133 6.72872 13.3904 6.76882C13.2675 6.80893 13.1543 6.87418 13.058 6.96043C12.9617 7.04667 12.8844 7.15203 12.8311 7.26978C12.7777 7.38753 12.7495 7.5151 12.7481 7.64437C12.7481 8.28624 13.1456 8.54562 14.0606 8.94312L14.5956 9.17187C16.4131 9.95124 17.4388 10.7456 17.4388 12.5319C17.4388 14.4575 15.9263 15.5125 13.8944 15.5125C13.103 15.5624 12.314 15.3825 11.6225 14.9944C10.931 14.6063 10.3665 14.0266 9.99687 13.325L11.7338 12.3125ZM4.17875 12.5C4.515 13.0962 4.82062 13.6 5.55375 13.6C6.25625 13.6 6.7 13.325 6.7 12.2562V4.98437H8.83875V12.2862C8.83875 14.5006 7.54 15.5087 5.645 15.5087C4.97559 15.5452 4.31084 15.378 3.7383 15.0292C3.16575 14.6805 2.71225 14.1665 2.4375 13.555L4.17875 12.5Z" fill="#F5DE19"/>
</svg>
