<svg width="20" height="20" viewBox="0 0 20 20" fill="none" xmlns="http://www.w3.org/2000/svg">
<path d="M2.66665 11.8517V3.33335C2.66665 2.89133 2.84225 2.4674 3.15481 2.15484C3.46737 1.84228 3.89129 1.66669 4.33332 1.66669H15.6667C16.1087 1.66669 16.5326 1.84228 16.8452 2.15484C17.1577 2.4674 17.3333 2.89133 17.3333 3.33335V11.8517M2.66665 11.8517H17.3333M2.66665 11.8517L1.43332 16.2134C1.36327 16.4612 1.35161 16.7219 1.39924 16.9749C1.44687 17.228 1.5525 17.4666 1.70784 17.672C1.86318 17.8774 2.06401 18.044 2.29457 18.1588C2.52512 18.2735 2.77913 18.3333 3.03665 18.3334H16.9633C17.2209 18.3333 17.4749 18.2735 17.7054 18.1588C17.936 18.044 18.1368 17.8774 18.2921 17.672C18.4475 17.4666 18.5531 17.228 18.6007 16.9749C18.6484 16.7219 18.6367 16.4612 18.5667 16.2134L17.3333 11.8517" stroke="#6BA4F2" stroke-width="1.5"/>
<path d="M9.16663 15.8333H10.8333M11.6666 5L13.3333 6.66667L11.6666 8.33333M8.33329 5L6.66663 6.66667L8.33329 8.33333" stroke="#6BA4F2" stroke-width="1.5" stroke-linecap="round" stroke-linejoin="round"/>
</svg>
