<svg width="36" height="36" viewBox="0 0 36 36" fill="none" xmlns="http://www.w3.org/2000/svg">
<path d="M30 4.5H22.5C21.6716 4.5 21 5.17157 21 6V13.5C21 14.3284 21.6716 15 22.5 15H30C30.8284 15 31.5 14.3284 31.5 13.5V6C31.5 5.17157 30.8284 4.5 30 4.5Z" stroke="current" stroke-width="2.5" stroke-linecap="round" stroke-linejoin="round"/>
<path d="M15 31.5V12C15 11.6022 14.842 11.2206 14.5607 10.9393C14.2794 10.658 13.8978 10.5 13.5 10.5H6C5.60218 10.5 5.22064 10.658 4.93934 10.9393C4.65804 11.2206 4.5 11.6022 4.5 12V30C4.5 30.3978 4.65804 30.7794 4.93934 31.0607C5.22064 31.342 5.60218 31.5 6 31.5H24C24.3978 31.5 24.7794 31.342 25.0607 31.0607C25.342 30.7794 25.5 30.3978 25.5 30V22.5C25.5 22.1022 25.342 21.7206 25.0607 21.4393C24.7794 21.158 24.3978 21 24 21H4.5" stroke="current" stroke-width="2.5" stroke-linecap="round" stroke-linejoin="round"/>
</svg>
