<svg width="20" height="20" viewBox="0 0 20 20" fill="none" xmlns="http://www.w3.org/2000/svg">
<path d="M16.6667 11.25V2.50001C16.6667 2.27899 16.5789 2.06703 16.4226 1.91075C16.2663 1.75447 16.0543 1.66667 15.8333 1.66667H4.16667C3.94565 1.66667 3.73369 1.75447 3.57741 1.91075C3.42113 2.06703 3.33333 2.27899 3.33333 2.50001V17.5C3.33333 17.721 3.42113 17.933 3.57741 18.0893C3.73369 18.2455 3.94565 18.3333 4.16667 18.3333H8.75M7.08333 5.00001H12.9167M7.08333 8.33334H12.9167M7.08333 11.6667H9.58333" stroke="#FE7235" stroke-width="2" stroke-linecap="round" stroke-linejoin="round"/>
<path d="M16.25 18.3333L14.8063 16.8896M14.8063 16.8896C15.0037 16.697 15.161 16.4672 15.2689 16.2134C15.3769 15.9596 15.4334 15.6869 15.4351 15.4111C15.4368 15.1353 15.3838 14.8618 15.279 14.6067C15.1742 14.3516 15.0199 14.1198 14.8248 13.9248C14.6298 13.7297 14.398 13.5754 14.1428 13.4707C13.8877 13.366 13.6142 13.3129 13.3384 13.3147C13.0626 13.3165 12.7899 13.373 12.5361 13.481C12.2824 13.589 12.0525 13.7463 11.86 13.9438C11.4722 14.3351 11.2552 14.8641 11.2565 15.4151C11.2577 15.966 11.4772 16.494 11.8669 16.8836C12.2565 17.2731 12.7846 17.4924 13.3355 17.4935C13.8865 17.4947 14.415 17.2775 14.8063 16.8896Z" stroke="#FE7235" stroke-width="2" stroke-linecap="round" stroke-linejoin="round"/>
</svg>
