<svg width="20" height="20" viewBox="0 0 20 20" fill="none" xmlns="http://www.w3.org/2000/svg">
<path d="M5.9375 2.5C5.19158 2.5 4.47621 2.79632 3.94876 3.32376C3.42131 3.85121 3.125 4.56658 3.125 5.3125V7.50625C3.125 8.18875 3.11 8.45 3.03625 8.63625C2.99625 8.735 2.905 8.90625 2.39375 9.16125C2.23791 9.23907 2.10682 9.35876 2.01521 9.50691C1.92359 9.65506 1.87506 9.82581 1.87506 10C1.87506 10.1742 1.92359 10.3449 2.01521 10.4931C2.10682 10.6412 2.23791 10.7609 2.39375 10.8387C2.905 11.0937 2.99625 11.265 3.03625 11.3637C3.11125 11.5512 3.125 11.8137 3.125 12.5V14.6875C3.125 15.4334 3.42131 16.1488 3.94876 16.6762C4.47621 17.2037 5.19158 17.5 5.9375 17.5C6.18614 17.5 6.42459 17.4012 6.60041 17.2254C6.77623 17.0496 6.875 16.8111 6.875 16.5625C6.875 16.3139 6.77623 16.0754 6.60041 15.8996C6.42459 15.7238 6.18614 15.625 5.9375 15.625C5.68886 15.625 5.4504 15.5262 5.27458 15.3504C5.09877 15.1746 5 14.9361 5 14.6875V12.4088C5 11.8638 5.00125 11.23 4.77625 10.6675C4.67625 10.4175 4.54166 10.195 4.3725 10C4.54166 9.805 4.67625 9.58292 4.77625 9.33375C5.00125 8.77125 5.00125 8.13875 5.00125 7.59625L5 5.3125C5 5.06386 5.09877 4.8254 5.27458 4.64959C5.4504 4.47377 5.68886 4.375 5.9375 4.375C6.18614 4.375 6.42459 4.27623 6.60041 4.10041C6.77623 3.9246 6.875 3.68614 6.875 3.4375C6.875 3.18886 6.77623 2.9504 6.60041 2.77459C6.42459 2.59877 6.18614 2.5 5.9375 2.5ZM14.0625 2.5C14.8084 2.5 15.5238 2.79632 16.0512 3.32376C16.5787 3.85121 16.875 4.56658 16.875 5.3125V7.50625C16.875 8.18875 16.8887 8.45 16.9637 8.63625C17.0037 8.735 17.095 8.90625 17.6062 9.16125C17.7621 9.23907 17.8932 9.35876 17.9848 9.50691C18.0764 9.65506 18.1249 9.82581 18.1249 10C18.1249 10.1742 18.0764 10.3449 17.9848 10.4931C17.8932 10.6412 17.7621 10.7609 17.6062 10.8387C17.095 11.0937 17.0037 11.265 16.9637 11.3637C16.8887 11.5512 16.875 11.8137 16.875 12.5V14.6875C16.875 15.4334 16.5787 16.1488 16.0512 16.6762C15.5238 17.2037 14.8084 17.5 14.0625 17.5C13.8139 17.5 13.5754 17.4012 13.3996 17.2254C13.2238 17.0496 13.125 16.8111 13.125 16.5625C13.125 16.3139 13.2238 16.0754 13.3996 15.8996C13.5754 15.7238 13.8139 15.625 14.0625 15.625C14.3111 15.625 14.5496 15.5262 14.7254 15.3504C14.9012 15.1746 15 14.9361 15 14.6875V12.4088C15 11.8638 14.9987 11.23 15.2237 10.6675C15.3237 10.4175 15.4583 10.195 15.6275 10C15.4572 9.80165 15.3207 9.57654 15.2237 9.33375C14.9987 8.77125 14.9987 8.13875 14.9987 7.59625L15 5.3125C15 5.06386 14.9012 4.8254 14.7254 4.64959C14.5496 4.47377 14.3111 4.375 14.0625 4.375C13.8139 4.375 13.5754 4.27623 13.3996 4.10041C13.2238 3.9246 13.125 3.68614 13.125 3.4375C13.125 3.18886 13.2238 2.9504 13.3996 2.77459C13.5754 2.59877 13.8139 2.5 14.0625 2.5Z" fill="#CACA4F"/>
</svg>
