<svg width="20" height="20" viewBox="0 0 20 20" fill="none" xmlns="http://www.w3.org/2000/svg">
<path d="M10.25 6.07499C10.4167 5.92499 10.6167 5.83332 10.8333 5.83332C11.0583 5.83332 11.25 5.92499 11.425 6.07499C11.5833 6.24999 11.6667 6.44999 11.6667 6.66666C11.6667 6.89166 11.5833 7.08332 11.425 7.25832C11.25 7.41666 11.0583 7.49999 10.8333 7.49999C10.6167 7.49999 10.4167 7.41666 10.25 7.25832C10.0917 7.08332 10 6.89166 10 6.66666C10 6.44999 10.0917 6.24999 10.25 6.07499ZM8.16667 9.97499C8.16667 9.97499 9.97501 8.54166 10.6333 8.48332C11.25 8.43332 11.125 9.14166 11.0667 9.50832L11.0583 9.55832C10.9417 9.99999 10.8 10.5333 10.6583 11.0417C10.3417 12.2 10.0333 13.3333 10.1083 13.5417C10.1917 13.825 10.7083 13.4667 11.0833 13.2167C11.1333 13.1833 11.175 13.15 11.2167 13.125C11.2167 13.125 11.2833 13.0583 11.35 13.15C11.3667 13.175 11.3833 13.2 11.4 13.2167C11.475 13.3333 11.5167 13.375 11.4167 13.4417L11.3833 13.4583C11.2 13.5833 10.4167 14.1333 10.1 14.3333C9.75834 14.5583 8.45001 15.3083 8.65001 13.85C8.82501 12.825 9.05834 11.9417 9.24167 11.25C9.58334 9.99999 9.73334 9.43332 8.96667 9.92499C8.65834 10.1083 8.475 10.225 8.36667 10.3C8.275 10.3667 8.26667 10.3667 8.20834 10.2583L8.18334 10.2083L8.14167 10.1417C8.08334 10.0583 8.08334 10.05 8.16667 9.97499ZM18.3333 9.99999C18.3333 14.5833 14.5833 18.3333 10 18.3333C5.41667 18.3333 1.66667 14.5833 1.66667 9.99999C1.66667 5.41666 5.41667 1.66666 10 1.66666C14.5833 1.66666 18.3333 5.41666 18.3333 9.99999ZM16.6667 9.99999C16.6667 6.31666 13.6833 3.33332 10 3.33332C6.31667 3.33332 3.33334 6.31666 3.33334 9.99999C3.33334 13.6833 6.31667 16.6667 10 16.6667C13.6833 16.6667 16.6667 13.6833 16.6667 9.99999Z" fill="#6C98B8"/>
</svg>
