<svg width="20" height="20" viewBox="0 0 20 20" fill="none" xmlns="http://www.w3.org/2000/svg">
<path d="M17.93 1.25H2.07C1.61713 1.25 1.25 1.61713 1.25 2.07V17.93C1.25 18.3829 1.61713 18.75 2.07 18.75H17.93C18.3829 18.75 18.75 18.3829 18.75 17.93V2.07C18.75 1.61713 18.3829 1.25 17.93 1.25Z" fill="#3178C6"/>
<path fill-rule="evenodd" clip-rule="evenodd" d="M11.4031 14.8494V16.7669C11.7515 16.9388 12.1228 17.0598 12.5056 17.1263C12.948 17.2078 13.397 17.248 13.8469 17.2463C14.2853 17.2482 14.7227 17.204 15.1519 17.1144C15.5372 17.0367 15.9049 16.8883 16.2362 16.6769C16.544 16.4783 16.7976 16.2064 16.9744 15.8856C17.2909 15.2214 17.3327 14.4592 17.0906 13.7644C16.9886 13.5045 16.8363 13.2673 16.6425 13.0663C16.4348 12.8522 16.1986 12.6678 15.9406 12.5181C15.6438 12.3442 15.3354 12.191 15.0175 12.0594C14.7675 11.9556 14.5425 11.8548 14.3425 11.7569C14.1649 11.6718 13.9949 11.5717 13.8344 11.4575C13.7088 11.3693 13.5996 11.2597 13.5119 11.1338C13.4365 11.0192 13.3971 10.8847 13.3987 10.7475C13.3971 10.6212 13.4323 10.4972 13.5 10.3906C13.5736 10.2791 13.6717 10.1859 13.7869 10.1181C13.9275 10.0349 14.0807 9.97511 14.2406 9.94126C14.4367 9.89763 14.6372 9.87666 14.8381 9.87876C15.0071 9.87945 15.1758 9.89157 15.3431 9.91501C15.5239 9.93883 15.7027 9.9758 15.8781 10.0256C16.0567 10.0751 16.2313 10.1378 16.4006 10.2131C16.5648 10.2865 16.7219 10.3748 16.87 10.4769V8.68751C16.562 8.57092 16.2425 8.48713 15.9169 8.43751C15.5237 8.38024 15.1267 8.35328 14.7294 8.35689C14.2951 8.35474 13.8621 8.40404 13.4394 8.50376C13.0572 8.59055 12.6938 8.74576 12.3669 8.96189C12.063 9.16446 11.812 9.43684 11.635 9.75626C11.4474 10.111 11.3547 10.5082 11.3656 10.9094C11.3524 11.4398 11.5271 11.9578 11.8587 12.3719C12.2664 12.8307 12.7804 13.1824 13.3556 13.3963C13.6181 13.5046 13.8629 13.6106 14.09 13.7144C14.2948 13.8057 14.4917 13.9137 14.6787 14.0375C14.8292 14.136 14.9616 14.2597 15.07 14.4031C15.165 14.5336 15.2154 14.6912 15.2137 14.8525C15.2146 14.9734 15.1836 15.0924 15.1237 15.1975C15.0567 15.31 14.9634 15.4045 14.8519 15.4731C14.7116 15.5584 14.5583 15.62 14.3981 15.6556C14.1893 15.7022 13.9758 15.7242 13.7619 15.7213C13.3421 15.7201 12.9257 15.6461 12.5312 15.5025C12.1194 15.3535 11.7374 15.1324 11.4031 14.8494ZM8.18187 10.0756H10.6819V8.49626H3.71124V10.0756H6.19999V17.1094H8.18187V10.0756Z" fill="white"/>
</svg>
