<svg width="20" height="20" viewBox="0 0 20 20" fill="none" xmlns="http://www.w3.org/2000/svg">
<path d="M14.8919 5.15187C15.4242 5.27479 15.9079 5.55352 16.2812 5.95249C16.4865 6.16861 16.6653 6.40843 16.8137 6.66687C16.8206 6.69499 15.855 7.34374 15.2694 7.70562C15.2481 7.71999 15.1637 7.62812 15.0681 7.48687C14.9613 7.30282 14.8095 7.14891 14.627 7.03959C14.4444 6.93027 14.237 6.86912 14.0244 6.86187C13.3512 6.81562 12.9175 7.16812 12.9206 7.75749C12.9148 7.90229 12.9478 8.046 13.0162 8.17374C13.1644 8.47999 13.4394 8.66374 14.3031 9.03812C15.8931 9.72249 16.5756 10.1737 16.9969 10.815C17.2349 11.2202 17.3815 11.6725 17.4264 12.1403C17.4713 12.6081 17.4135 13.08 17.2569 13.5231C17.0418 14.0092 16.7004 14.4287 16.2682 14.7381C15.836 15.0475 15.3288 15.2355 14.7994 15.2825C14.2366 15.3464 13.6682 15.3405 13.1069 15.265C12.2472 15.1238 11.4552 14.7112 10.8469 14.0875C10.6171 13.8285 10.4225 13.5404 10.2681 13.2306C10.3334 13.1829 10.4016 13.1395 10.4725 13.1006C10.5712 13.0444 10.945 12.8294 11.2975 12.625L11.9375 12.25L12.0712 12.445C12.2969 12.7668 12.5836 13.0412 12.915 13.2525C13.25 13.4363 13.6295 13.5233 14.0111 13.504C14.3927 13.4847 14.7615 13.3598 15.0762 13.1431C15.2386 12.9849 15.3401 12.7745 15.363 12.549C15.3858 12.3234 15.3286 12.097 15.2012 11.9094C15.0287 11.6625 14.6762 11.455 13.6744 11.0206C12.8888 10.7557 12.1732 10.3166 11.5812 9.73624C11.2995 9.41482 11.0914 9.03579 10.9712 8.62562C10.8824 8.15825 10.8693 7.67964 10.9325 7.20812C11.0499 6.66544 11.3315 6.17202 11.7389 5.79479C12.1463 5.41755 12.6599 5.17477 13.21 5.09937C13.7701 5.03244 14.337 5.05014 14.8919 5.15187ZM9.6775 6.07874L9.68437 6.98749H6.79062V15.205H4.75V6.98937H1.85625V6.09687C1.84857 5.79122 1.85691 5.48539 1.88125 5.18062C1.89187 5.16624 3.65125 5.15937 5.78437 5.16312L9.66625 5.17374L9.6775 6.07874Z" fill="#007ACC"/>
</svg>
