<svg width="70" height="70" viewBox="0 0 70 70" fill="none" xmlns="http://www.w3.org/2000/svg">
<path d="M53.5938 0H16.4062C7.34533 0 0 7.34533 0 16.4062V53.5938C0 62.6547 7.34533 70 16.4062 70H53.5938C62.6547 70 70 62.6547 70 53.5938V16.4062C70 7.34533 62.6547 0 53.5938 0Z" fill="#F4F2ED"/>
<path d="M9.21922 27.4006C9.21922 27.4006 7.92449 26.4674 9.47816 25.2213L13.0974 21.9849C13.0974 21.9849 14.1332 20.8953 15.228 21.8447L48.6281 47.1319V59.2577C48.6281 59.2577 48.612 61.162 46.1683 60.9514L9.21922 27.4006Z" fill="#2489CA"/>
<path d="M17.8281 35.2166L9.21922 43.0432C9.21922 43.0432 8.33438 43.7013 9.21922 44.8774L13.2161 48.5127C13.2161 48.5127 14.1654 49.5324 15.5679 48.3724L24.6947 41.452L17.8281 35.2166Z" fill="#1070B3"/>
<path d="M32.9421 35.2814L48.7307 23.2255L48.6281 11.1645C48.6281 11.1645 47.9538 8.53208 45.7045 9.90227L24.6947 29.024L32.9421 35.2814Z" fill="#0877B9"/>
<path d="M46.1683 60.9678C47.0854 61.9062 48.1966 61.5989 48.1966 61.5989L60.5005 55.536C62.0755 54.4625 61.8543 53.1303 61.8543 53.1303V16.9252C61.8543 15.3338 60.2252 14.7839 60.2252 14.7839L49.5614 9.64331C47.2311 8.20311 45.7045 9.90225 45.7045 9.90225C45.7045 9.90225 47.6678 8.48913 48.6281 11.1644V59.0365C48.6296 59.363 48.5578 59.6857 48.4179 59.9807C48.1373 60.547 47.5278 61.0755 46.066 60.8543L46.1683 60.9678Z" fill="#3C99D4"/>
</svg>
