<svg width="20" height="20" viewBox="0 0 12 12" fill="none" xmlns="http://www.w3.org/2000/svg">
<g clip-path="url(#clip0_7_2)">
<path d="M10.8787 1.88624L8.71645 0.845242C8.59437 0.786256 8.45694 0.766766 8.32327 0.789481C8.1896 0.812196 8.06632 0.875989 7.97057 0.971993L0.89245 7.42499C0.806571 7.50292 0.755165 7.61177 0.749539 7.72759C0.743913 7.84342 0.784528 7.95674 0.86245 8.04262C0.8717 8.05262 0.881325 8.06224 0.891325 8.07149L1.4692 8.59649C1.54471 8.66522 1.64191 8.70532 1.74391 8.70984C1.84591 8.71437 1.94628 8.68302 2.02757 8.62124L10.5532 2.15624C10.6176 2.10738 10.6944 2.07746 10.7748 2.06985C10.8553 2.06224 10.9363 2.07725 11.0087 2.11318C11.0811 2.14912 11.1421 2.20455 11.1847 2.27324C11.2273 2.34193 11.2499 2.42115 11.2499 2.50199V2.47687C11.2499 2.35347 11.215 2.23261 11.1493 2.12814C11.0836 2.02367 10.9898 1.93983 10.8787 1.88624Z" fill="#0065A9"/>
<path d="M10.8787 10.1137L8.71645 11.1551C8.5943 11.2138 8.45694 11.2332 8.32334 11.2105C8.18973 11.1878 8.06647 11.1241 7.97057 11.0284L0.89245 4.57499C0.806571 4.49707 0.755165 4.38822 0.749539 4.27239C0.743913 4.15657 0.784528 4.04325 0.86245 3.95737C0.8717 3.94737 0.881325 3.93774 0.891325 3.92849L1.4692 3.40349C1.54479 3.33448 1.64221 3.2942 1.74446 3.28967C1.84672 3.28515 1.94731 3.31667 2.0287 3.37874L10.5532 9.84374C10.6176 9.89261 10.6944 9.92253 10.7748 9.93014C10.8553 9.93774 10.9363 9.92274 11.0087 9.8868C11.0811 9.85087 11.1421 9.79544 11.1847 9.72675C11.2273 9.65805 11.2499 9.57883 11.2499 9.49799V9.52499C11.2495 9.64807 11.2145 9.76854 11.1488 9.87264C11.0832 9.97675 10.9896 10.0603 10.8787 10.1137Z" fill="#007ACC"/>
<path d="M8.71649 11.1551C8.59435 11.2138 8.45699 11.2332 8.32338 11.2105C8.18977 11.1878 8.06651 11.1241 7.97062 11.0284C8.02447 11.0815 8.09281 11.1176 8.16707 11.1321C8.24134 11.1466 8.31822 11.1388 8.3881 11.1098C8.45797 11.0807 8.51772 11.0317 8.55986 10.9689C8.602 10.906 8.62466 10.8322 8.62499 10.7565V1.2435C8.62505 1.16748 8.60255 1.09316 8.56034 1.02994C8.51813 0.966723 8.4581 0.917456 8.38786 0.888381C8.31763 0.859307 8.24034 0.851733 8.16579 0.866619C8.09125 0.881505 8.0228 0.918181 7.96912 0.972002C8.06482 0.875936 8.18807 0.812073 8.32175 0.78929C8.45542 0.766507 8.59287 0.785936 8.71499 0.844877L10.8769 1.88438C10.9884 1.9377 11.0825 2.02142 11.1486 2.12591C11.2146 2.2304 11.2497 2.35141 11.25 2.475V9.525C11.2499 9.6485 11.215 9.76947 11.1493 9.87402C11.0835 9.97856 10.9896 10.0624 10.8784 10.116L8.71649 11.1551Z" fill="#1F9CF0"/>
</g>
<defs>
<clipPath id="clip0_7_2">
<rect width="12" height="12" fill="white"/>
</clipPath>
</defs>
</svg>
