<svg width="70" height="70" viewBox="0 0 70 70" fill="none" xmlns="http://www.w3.org/2000/svg">
<path d="M53.5938 0H16.4062C7.34533 0 0 7.34533 0 16.4062V53.5938C0 62.6547 7.34533 70 16.4062 70H53.5938C62.6547 70 70 62.6547 70 53.5938V16.4062C70 7.34533 62.6547 0 53.5938 0Z" fill="#242938"/>
<path d="M23.1725 30.6143C23.1725 31.2799 23.2444 31.8194 23.3702 32.2153C23.5301 32.6606 23.7225 33.0935 23.946 33.5106C24.036 33.6544 24.0718 33.7982 24.0718 33.9243C24.0718 34.1042 23.9638 34.2841 23.73 34.4638L22.5966 35.2196C22.4347 35.3273 22.2729 35.3814 22.129 35.3814C21.9491 35.3814 21.7692 35.2915 21.5893 35.1296C21.3469 34.8691 21.1301 34.586 20.9418 34.2841C20.7407 33.9385 20.5546 33.5843 20.3839 33.2227C18.9809 34.8778 17.2178 35.7052 15.0951 35.7052C13.5841 35.7052 12.3788 35.2734 11.4972 34.4099C10.6159 33.5464 10.1661 32.3952 10.1661 30.9561C10.1661 29.4268 10.7059 28.1857 11.8032 27.2502C12.9005 26.3148 14.3577 25.847 16.2105 25.847C16.8222 25.847 17.4519 25.9011 18.1174 25.9911C18.783 26.081 19.4666 26.2248 20.1863 26.3867V25.0734C20.1863 23.7062 19.8983 22.7527 19.3408 22.1952C18.7649 21.6374 17.7937 21.3678 16.4084 21.3678C15.7787 21.3678 15.1312 21.4397 14.4657 21.6016C13.7998 21.7634 13.1523 21.9614 12.5226 22.2132C12.3181 22.3048 12.1078 22.3829 11.8932 22.447C11.7674 22.4831 11.6772 22.5012 11.6052 22.5012C11.3537 22.5012 11.2273 22.3212 11.2273 21.9434V21.0618C11.2273 20.7741 11.2634 20.5581 11.3534 20.4323C11.4434 20.3066 11.6052 20.1805 11.8571 20.0545C12.4868 19.7307 13.2423 19.4611 14.1239 19.2451C15.0052 19.011 15.9406 18.9033 16.9302 18.9033C19.0709 18.9033 20.6358 19.3889 21.6434 20.3602C22.6327 21.3317 23.1364 22.8069 23.1364 24.7857V30.6143H23.1725ZM15.8689 33.3487C16.4623 33.3487 17.074 33.2407 17.7218 33.0247C18.3693 32.8089 18.9448 32.413 19.4307 31.8735C19.7184 31.5317 19.9344 31.1538 20.0422 30.7221C20.1502 30.2903 20.2221 29.7686 20.2221 29.1572V28.4014C19.6766 28.2687 19.1241 28.1667 18.5672 28.0957C18.0063 28.0245 17.4415 27.9884 16.876 27.9877C15.6707 27.9877 14.7894 28.2218 14.1958 28.7074C13.6022 29.193 13.3142 29.8766 13.3142 30.7762C13.3142 31.6217 13.5302 32.2511 13.9798 32.6829C14.4118 33.1327 15.0415 33.3487 15.8689 33.3487ZM30.3138 35.2915C29.9901 35.2915 29.7741 35.2373 29.6302 35.1116C29.4864 35.0036 29.3604 34.7517 29.2526 34.4099L25.0253 20.5043C24.917 20.1444 24.8631 19.9106 24.8631 19.7846C24.8631 19.4969 25.007 19.3348 25.2949 19.3348H27.0577C27.3995 19.3348 27.6336 19.3889 27.7594 19.5147C27.9032 19.6227 28.0112 19.8745 28.1192 20.2163L31.1413 32.1254L33.9478 20.2163C34.0378 19.8565 34.1455 19.623 34.2896 19.5147C34.4334 19.407 34.6853 19.335 35.009 19.335H36.4481C36.7899 19.335 37.024 19.3889 37.1678 19.5147C37.3116 19.6227 37.4377 19.8745 37.5096 20.2163L40.352 32.2692L43.464 20.2163C43.572 19.8565 43.6981 19.623 43.8238 19.5147C43.9677 19.407 44.2017 19.335 44.5255 19.335H46.1984C46.4863 19.335 46.6482 19.4789 46.6482 19.7846C46.6482 19.8748 46.6301 19.9645 46.6121 20.0725C46.5943 20.1805 46.5582 20.3241 46.4863 20.5223L42.1509 34.428C42.0429 34.7878 41.9169 35.0216 41.7731 35.1296C41.6292 35.2373 41.3952 35.3095 41.0895 35.3095H39.5423C39.2006 35.3095 38.9668 35.2554 38.8229 35.1296C38.6788 35.0036 38.5531 34.7698 38.4811 34.4099L35.6926 22.8069L32.9224 34.3919C32.8325 34.7517 32.7245 34.9855 32.5806 35.1116C32.4365 35.2373 32.1847 35.2915 31.8609 35.2915H30.3138ZM53.4302 35.7771C52.4948 35.7771 51.5594 35.6691 50.6598 35.4534C49.7604 35.2373 49.0588 35.0036 48.5909 34.7337C48.3033 34.5718 48.1053 34.3919 48.0334 34.23C47.9634 34.0712 47.9266 33.8998 47.9254 33.7263V32.8089C47.9254 32.4311 48.0692 32.2511 48.3391 32.2511C48.4471 32.2511 48.5551 32.2692 48.6629 32.3053C48.7709 32.3411 48.9327 32.413 49.1127 32.4852C49.7481 32.7645 50.4115 32.9756 51.0915 33.1146C51.7961 33.2578 52.5133 33.3302 53.2323 33.3307C54.3657 33.3307 55.247 33.1327 55.8586 32.737C56.4703 32.3411 56.7941 31.7655 56.7941 31.028C56.7941 30.5244 56.6322 30.1104 56.3084 29.7686C55.9847 29.4268 55.373 29.1211 54.4915 28.8332L51.8831 28.0238C50.5698 27.6101 49.5983 26.9984 49.0047 26.189C48.411 25.3974 48.1053 24.5156 48.1053 23.5804C48.1053 22.8249 48.2672 22.1594 48.5909 21.5835C48.9147 21.0079 49.3464 20.5043 49.8862 20.1086C50.426 19.6946 51.0377 19.3889 51.7571 19.1729C52.4768 18.9569 53.2323 18.8672 54.0239 18.8672C54.4195 18.8672 54.8332 18.8852 55.2292 18.9391C55.6429 18.993 56.0205 19.0649 56.3984 19.1371C56.7582 19.227 57.1 19.317 57.4238 19.425C57.7475 19.5327 57.9994 19.6407 58.1793 19.7487C58.4311 19.8926 58.6111 20.0364 58.7191 20.1983C58.8268 20.3424 58.8809 20.5401 58.8809 20.7922V21.6377C58.8809 22.0153 58.7371 22.2132 58.4672 22.2132C58.3231 22.2132 58.0893 22.1413 57.7836 21.9972C56.7582 21.5296 55.6068 21.2959 54.3296 21.2959C53.3042 21.2959 52.4948 21.4577 51.937 21.7995C51.3795 22.1413 51.0915 22.663 51.0915 23.4005C51.0915 23.9042 51.2714 24.3359 51.6313 24.6777C51.9909 25.0195 52.6567 25.3613 53.6102 25.667L56.1646 26.4764C57.4596 26.8904 58.3953 27.466 58.9529 28.2037C59.5104 28.9412 59.7803 29.7866 59.7803 30.7221C59.7803 31.4956 59.6184 32.1973 59.3127 32.8089C58.9889 33.4206 58.5572 33.9601 57.9994 34.3919C57.4418 34.8417 56.776 35.1654 56.0027 35.3995C55.1931 35.6513 54.3476 35.7771 53.4302 35.7771Z" fill="white"/>
<path fill-rule="evenodd" clip-rule="evenodd" d="M56.8304 44.52C50.9119 48.8914 42.3131 51.2121 34.9193 51.2121C24.5577 51.2121 15.2209 47.3802 8.16923 41.0121C7.61142 40.5084 8.11536 39.8248 8.78091 40.2205C16.4084 44.6458 25.8169 47.3263 35.5491 47.3263C42.1151 47.3263 49.329 45.9591 55.9669 43.1528C56.9562 42.703 57.8017 43.8003 56.8304 44.52Z" fill="#FF9900"/>
<path fill-rule="evenodd" clip-rule="evenodd" d="M59.2949 41.7137C58.5394 40.7422 54.294 41.2459 52.369 41.4797C51.7934 41.5518 51.7035 41.0479 52.2252 40.6703C55.6071 38.2957 61.1658 38.9793 61.8136 39.7707C62.4611 40.5803 61.6336 46.139 58.4675 48.8015C57.9816 49.2152 57.514 48.9992 57.7298 48.4597C58.4495 46.6788 60.0504 42.6669 59.2949 41.7137Z" fill="#FF9900"/>
</svg>
