<svg width="70" height="70" viewBox="0 0 70 70" fill="none" xmlns="http://www.w3.org/2000/svg">
<path d="M32.2837 35.105L17.3513 49.6847L2.42047 35.105L17.3513 20.5302L32.2837 35.105Z" fill="#932279"/>
<path d="M35.3937 32.1212L20.685 17.4508L35.3937 2.78031L50.0992 17.4508L35.3937 32.1212Z" fill="#EFA724"/>
<path d="M50.1348 52.8079L35.2013 67.3881L20.2716 52.8079L35.2024 38.2337L50.1348 52.8079Z" fill="#9CCD2A"/>
<path d="M53.2449 49.8247L38.5361 35.1515L53.2443 20.4837L67.9525 35.1515L53.2449 49.8247Z" fill="#262577"/>
<path d="M38.3174 37.9991H58.257V57.9059H38.3174V37.9991Z" fill="#EFA724"/>
<path d="M38.3994 12.2795H58.4024V32.0934H38.3994V12.2795Z" fill="#932279"/>
<path d="M11.5391 37.9991H32.3662V58.6452H11.5391V37.9991Z" fill="#262577"/>
<path d="M11.5391 11.445H32.3662V31.9736H11.5391V11.445Z" fill="#9CCD2A"/>
<path d="M35.3948 0.25375L26.3966 9.42101H10.7948V24.9495L1.35788 34.364L10.7948 43.7861V59.1801H25.9416L35.2001 68.4228L44.4615 59.1801H59.7647V43.8309L69.0014 34.4088L59.8905 25.1267V9.54516H44.5112L35.3948 0.25375ZM35.3921 2.38656L42.4145 9.54461H37.6512V27.9442L35.3926 30.2444L33.1094 27.9163V9.42101H28.4911L35.3921 2.38656ZM12.2812 10.9359H24.9178L19.6344 16.3177L31.6219 28.5436V30.4128H29.377L17.3485 18.404L12.2817 23.4609L12.2812 10.9359ZM27.0123 10.9359H31.6225V26.3998L21.7344 16.3166L27.0123 10.9359ZM39.1404 11.0534H43.8955L49.053 16.3177L39.1393 26.425L39.1404 11.0534ZM45.9922 11.0534H58.4046V23.6048L53.2443 18.3438L41.2918 30.5342H39.1404V28.566L51.1503 16.3171L45.9922 11.0534ZM53.2443 20.4843L58.4046 25.7425V30.5337H43.3885L53.2443 20.4843ZM17.3512 20.5209L27.259 30.4134H12.2812V25.5828L17.3512 20.5209ZM10.7953 27.0632V31.9184H28.7678L31.2233 34.364L29.0194 36.5663H10.7948V41.6675L3.4803 34.364L10.7953 27.0632ZM59.8915 27.259L66.9052 34.4088L59.7647 41.6905V36.5641H41.697L39.5861 34.4094L41.9098 32.042H59.8899L59.8915 27.259ZM33.1089 30.0573L35.3921 32.3799L37.6507 30.0825V32.0409H39.8136L37.4899 34.4083L39.6008 36.563H37.5774V38.8719L35.2007 36.499L33.1122 38.5864V36.5663H31.139L33.343 34.364L32.8147 33.8412L30.8875 31.9184H33.1105L33.1089 30.0573ZM12.2839 38.0723H27.5078L17.3512 48.2131L12.2844 43.1512L12.2839 38.0723ZM29.6264 38.0723H31.6225V40.0734L19.2101 52.4606L24.4305 57.6707H12.2839V45.2687L17.3485 50.3256L29.6264 38.0723ZM39.0633 38.0723H41.0807L53.2437 50.4755L53.7693 49.9466L58.2755 45.3458V57.6756H45.9703L51.1935 52.4623L50.6652 51.9307L39.0633 40.3566V38.0723ZM43.1752 38.0723H58.2761V43.2075L53.2443 48.3366L43.1752 38.0723ZM35.2034 38.6181L37.5769 40.9888V59.1817H42.3434L35.204 66.3064L28.0645 59.1817H33.1127V40.7045L35.2034 38.6181ZM31.623 42.1914V57.6718H26.5535L21.333 52.4617L31.623 42.1914ZM39.0638 42.4714L49.0749 52.4617L43.8517 57.6751H39.0633L39.0638 42.4714Z" fill="white"/>
</svg>
