<svg width="70" height="70" viewBox="0 0 70 70" fill="none" xmlns="http://www.w3.org/2000/svg">
<path d="M48.7998 3.20249H44.7617L48.9612 7.7596V9.92905H40.3118V7.38881H44.5107L40.3118 2.83171V0.660065H48.7998V3.20249ZM38.5968 3.20249H34.5587L38.7581 7.7596V9.92905H30.1082V7.38881H34.3076L30.1082 2.83171V0.660065H38.5968V3.20249ZM28.4938 3.30639H24.1363V7.28272H28.4938V9.92905H21.0388V0.660065H28.4938V3.30639Z" fill="#131313"/>
<path d="M15.1008 63.8236L10.6728 14.1602H59.3266L54.8947 63.8154L34.9699 69.3399L15.1008 63.8236Z" fill="#1572B6"/>
<path d="M35.0005 65.1175L51.1 60.6539L54.8877 18.2213H35.0005V65.1175Z" fill="#33A9DC"/>
<path d="M35 36.2141H43.0598L43.6171 29.977H35V23.8859H50.2737L50.1277 25.5199L48.6309 42.3046H35V36.2141Z" fill="white"/>
<path d="M35.0366 52.033L35.0098 52.0406L28.2264 50.2086L27.7922 45.3507H21.6786L22.5323 54.9145L35.0087 58.3778L35.0372 58.3696L35.0366 52.033Z" fill="#EBEBEB"/>
<path d="M42.5425 42.047L41.8086 50.2042L35.0153 52.0379V58.3751L47.5021 54.9145L47.594 53.8852L48.6538 42.047H42.5425Z" fill="white"/>
<path d="M35.0213 23.8859V29.9764H20.3087L20.1862 28.6076L19.909 25.5199L19.7629 23.8859H35.0213ZM35 36.2146V42.3057H28.3024L28.1804 40.9369L27.9026 37.8487L27.7566 36.2146H35Z" fill="#EBEBEB"/>
</svg>
