<svg width="70" height="70" viewBox="0 0 70 70" fill="none" xmlns="http://www.w3.org/2000/svg">
<rect width="70" height="70" rx="10" fill="#385EE2"/>
<path d="M25 52H14.2273V17.0909H25.4773C28.8636 17.0909 31.7614 17.7898 34.1705 19.1875C36.5795 20.5739 38.4261 22.5682 39.7102 25.1705C40.9943 27.7614 41.6364 30.8636 41.6364 34.4773C41.6364 38.1136 40.9886 41.2443 39.6932 43.8693C38.3977 46.483 36.5114 48.4943 34.0341 49.9034C31.5568 51.3011 28.5455 52 25 52ZM18.4545 48.25H24.7273C27.6136 48.25 30.0057 47.6932 31.9034 46.5795C33.8011 45.4659 35.2159 43.8807 36.1477 41.8239C37.0795 39.767 37.5455 37.3182 37.5455 34.4773C37.5455 31.6591 37.0852 29.233 36.1648 27.1989C35.2443 25.1534 33.8693 23.5852 32.0398 22.4943C30.2102 21.392 27.9318 20.8409 25.2045 20.8409H18.4545V48.25ZM53.5 17.0909L53.1591 42.1818H49.2045L48.8636 17.0909H53.5ZM51.1818 52.2727C50.3409 52.2727 49.6193 51.9716 49.017 51.3693C48.4148 50.767 48.1136 50.0455 48.1136 49.2045C48.1136 48.3636 48.4148 47.642 49.017 47.0398C49.6193 46.4375 50.3409 46.1364 51.1818 46.1364C52.0227 46.1364 52.7443 46.4375 53.3466 47.0398C53.9489 47.642 54.25 48.3636 54.25 49.2045C54.25 49.7614 54.108 50.2727 53.8239 50.7386C53.5511 51.2045 53.1818 51.5795 52.7159 51.8636C52.2614 52.1364 51.75 52.2727 51.1818 52.2727Z" fill="white"/>
</svg>
