<svg width="70" height="70" viewBox="0 0 70 70" fill="none" xmlns="http://www.w3.org/2000/svg">
<path fill-rule="evenodd" clip-rule="evenodd" d="M10.9375 52.9922V48.5625C10.9375 47.9609 11.3203 47.5234 11.9219 47.5234H12.0859C12.6875 47.5234 13.0703 48.0156 13.0703 48.5625V57.8594C13.0703 60.1016 11.9766 61.9063 10.0078 63.0547C9.07812 63.6016 8.09375 63.875 7.05469 63.875H6.61719C4.375 63.875 2.57031 62.7812 1.42187 60.8125C0.875 59.8828 0.601562 58.8984 0.601562 57.8594V57.4219C0.601562 55.1797 1.69531 53.375 3.66406 52.2266C4.59375 51.6797 5.57813 51.4063 6.61719 51.4063H7.05469C8.53125 51.4609 9.84375 52.0078 10.9375 52.9922ZM2.67969 57.6406C2.67969 59.2813 3.5 60.4844 4.92188 61.3047C5.52344 61.6328 6.125 61.7969 6.78125 61.7969C8.36719 61.7969 9.57031 61.0312 10.3906 59.6641C10.7734 59.0078 10.9375 58.3516 10.9375 57.5859C10.9375 56.1641 10.2813 55.0703 9.13281 54.25C8.42188 53.7578 7.65625 53.4844 6.83594 53.4844C5.08594 53.4844 3.82812 54.3594 3.0625 55.9453C2.78906 56.4922 2.67969 57.0938 2.67969 57.6406ZM20.2891 51.4609H20.5625C22.9688 51.4609 24.8281 52.6094 25.9766 54.7422C26.4688 55.5625 26.6875 56.4922 26.6875 57.4766V57.9141C26.6875 60.1563 25.5938 61.9609 23.625 63.1094C22.6953 63.6563 21.7109 63.9297 20.6719 63.9297H20.2344C17.9922 63.9297 16.1875 62.8359 15.0391 60.8672C14.4922 59.9375 14.2187 58.9531 14.2187 57.9141V57.4766C14.2187 55.2344 15.3672 53.4297 17.2812 52.2812C18.2109 51.6797 19.25 51.4609 20.2891 51.4609ZM16.3516 57.6406C16.3516 59.2266 17.1172 60.375 18.4844 61.1953C19.1406 61.5781 19.7969 61.7422 20.5625 61.7422C22.1484 61.7422 23.2969 60.9219 24.1172 59.6094C24.5 58.9531 24.6641 58.2969 24.6641 57.5312C24.6641 56.0547 23.9531 54.9063 22.75 54.0859C22.0937 53.6484 21.3281 53.4297 20.5625 53.4297C18.8125 53.4297 17.5547 54.3047 16.7891 55.8906C16.4609 56.4922 16.3516 57.0938 16.3516 57.6406ZM35.3828 53.7031C35.0547 53.5391 34.4531 53.4844 34.125 53.4844C32.375 53.4297 31.1172 54.4141 30.3516 55.9453C30.0781 56.4922 29.9688 57.0391 29.9688 57.6406C29.9688 59.4453 30.8984 60.7031 32.4844 61.4688C33.0859 61.7422 33.7969 61.7969 34.4531 61.7969C35 61.7969 35.8203 61.4688 36.3125 61.1953L36.4219 61.1406H36.8594C37.3516 61.25 37.6797 61.5234 37.6797 62.0703V62.2891C37.6797 63.5469 35.3281 63.875 34.4531 63.9297C31.3359 64.1484 28.9844 62.4531 28.1094 59.4453C27.9453 58.9531 27.8906 58.4063 27.8906 57.8594V57.4219C27.8906 55.1797 29.0391 53.375 30.9531 52.2266C31.8828 51.6797 32.8672 51.4063 33.9063 51.4063H34.3438C35.4375 51.4063 36.4766 51.7344 37.4063 52.3359L37.4609 52.3906L37.5156 52.4453C37.625 52.6094 37.6797 52.7734 37.6797 52.9922V53.2109C37.6797 53.7578 37.2969 54.0313 36.8047 54.1406H36.6406C36.3672 54.1406 35.6562 53.8125 35.3828 53.7031ZM42.1641 55.125C42.9844 54.3047 43.8047 53.4844 44.625 52.7188C44.8438 52.5 45.7187 51.5703 46.0469 51.5703H46.4844C46.9766 51.6797 47.3047 51.9531 47.3047 52.5V52.7188C47.3047 53.0469 46.9219 53.4844 46.6484 53.7031L45.1719 55.1797L42.6563 57.75C43.75 58.8438 44.8438 59.9375 45.8828 61.0312L46.7578 61.9609C46.8672 62.0703 47.0312 62.1797 47.0859 62.3438C47.1953 62.5078 47.25 62.6719 47.25 62.8359V63.1094C47.1406 63.6016 46.8125 63.9844 46.3203 63.9844H46.1563C45.8281 63.9844 45.4453 63.6016 45.1719 63.3828C44.6797 62.9453 44.1875 62.4531 43.75 61.9609L42.1641 60.375V62.8906C42.1641 63.4922 41.7813 63.9297 41.1797 63.9297H41.0156C40.4141 63.9297 40.0312 63.4375 40.0312 62.8906V48.6172C40.0312 48.0156 40.4141 47.5781 41.0156 47.5781H41.1797C41.7813 47.5781 42.1641 48.0156 42.1641 48.6172V55.125ZM68.1953 51.5156H68.4141C69.0156 51.5156 69.4531 51.9531 69.4531 52.5547C69.4531 53.4297 68.6328 53.6484 67.9219 53.6484C66.9922 53.6484 66.0625 54.1953 65.4609 54.8516C64.6406 55.6719 64.3125 56.6562 64.3125 57.8047V62.8359C64.3125 63.4375 63.9297 63.875 63.3281 63.875H63.1641C62.5625 63.875 62.1797 63.3828 62.1797 62.8359V57.4766C62.1797 55.3984 63.1641 53.7578 64.8594 52.5547C65.8437 51.8984 66.9922 51.5156 68.1953 51.5156ZM53.375 61.5234C54.1406 61.7969 55.0156 61.7422 55.7813 61.6328C56.1641 61.4687 57.2031 61.0312 57.5859 61.0859H57.6953C57.9141 61.1953 58.1328 61.3594 58.2422 61.5781C58.5156 62.125 58.4063 62.6719 57.8594 63L57.6953 63.1094C55.7266 64.2578 53.5938 64.0937 51.625 63C50.6953 62.5078 49.9844 61.7422 49.4375 60.8125L49.3281 60.5938C48.0703 58.4063 48.2344 56.0547 49.6563 53.9766C50.1484 53.2656 50.8047 52.7188 51.5703 52.2812L51.8438 52.1172C53.7031 51.0234 55.7266 51.1328 57.6406 52.0625C58.6797 52.5547 59.5 53.3203 60.1016 54.3047L60.2109 54.4688C60.6484 55.1797 60.1016 55.8359 59.5547 56.2734C58.8984 56.7656 58.2422 57.3672 57.6406 57.9141C56.1641 59.1172 54.7422 60.3203 53.375 61.5234ZM51.5703 60.2656L56.2188 56.2734C56.7656 55.8359 57.3125 55.3438 57.8594 54.8516C57.4219 54.3047 56.7109 53.9219 56.1641 53.7031C54.9609 53.2656 53.7578 53.375 52.6641 54.0313C51.2422 54.8516 50.5859 56.2188 50.6406 57.8594C50.6406 58.5156 50.8594 59.1172 51.1875 59.7187C51.2969 59.9375 51.4063 60.1016 51.5703 60.2656ZM40.3047 18.4297H46.4844V24.7187H49.6016C51.0234 24.7187 52.5 24.4453 53.8672 24.0078C54.5234 23.7891 55.2891 23.4609 55.9453 23.0781C55.0703 21.9297 54.6328 20.5078 54.5234 19.0859C54.3594 17.1719 54.7422 14.6563 56.0547 13.1797L56.7109 12.4141L57.4766 13.0156C59.4453 14.6016 61.0312 16.7344 61.3594 19.25C63.7109 18.5391 66.4453 18.7031 68.5234 19.9063L69.3438 20.3984L68.9063 21.2734C67.1563 24.6641 63.4922 25.7578 59.9375 25.5391C54.5781 38.8281 42.9844 45.1172 28.875 45.1172C21.6016 45.1172 14.9297 42.3828 11.1016 35.9297L11.0469 35.8203L10.5 34.6719C9.1875 31.8281 8.80469 28.7109 9.07812 25.5937L9.1875 24.6641H14.4375V18.4297H20.6172V12.25H32.9219V6.07031H40.3047V18.4297Z" fill="#3A4D54"/>
<path d="M60.2656 20.7266C60.7031 17.5 58.2969 14.9844 56.7656 13.7812C55.0703 15.75 54.7969 21 57.4766 23.1875C55.9453 24.5 52.8281 25.7578 49.5469 25.7578H10.0625C9.73437 29.1484 10.3359 32.2656 11.7031 34.9453L12.1406 35.7656C12.4141 36.2578 12.7422 36.6953 13.0703 37.1875C14.7109 37.2969 16.1875 37.3516 17.5547 37.2969C20.2344 37.2422 22.4219 36.9141 24.1172 36.3672C24.3906 36.2578 24.6094 36.4219 24.7188 36.6406C24.8281 36.9141 24.6641 37.1328 24.4453 37.2422C24.2266 37.2969 24.0078 37.4062 23.7344 37.4609C22.4219 37.8437 21 38.0625 19.1953 38.1719H18.8672C18.1563 38.2266 17.3906 38.2266 16.5703 38.2266C15.6953 38.2266 14.875 38.2266 13.8906 38.1719C17.1719 41.8906 22.3125 44.0781 28.7656 44.0781C42.4375 44.0781 54.0312 38.0078 59.1172 24.4453C62.7812 24.8281 66.2812 23.8984 67.8672 20.7812C65.4062 19.3594 62.125 19.7969 60.2656 20.7266Z" fill="#00AADA"/>
<path d="M60.2656 20.7266C60.7031 17.5 58.2969 14.9844 56.7656 13.7812C55.0703 15.75 54.7969 21 57.4766 23.1875C55.9453 24.5 52.8281 25.7578 49.5469 25.7578H12.3594C12.1953 30.9531 14.1094 34.8906 17.5547 37.2422C20.2344 37.1875 22.4219 36.8594 24.1172 36.3125C24.3906 36.2031 24.6094 36.3672 24.7187 36.5859C24.8281 36.8594 24.6641 37.0781 24.4453 37.1875C24.2266 37.2422 24.0078 37.3516 23.7344 37.4063C22.4219 37.7891 20.8906 38.0625 19.0859 38.1719L19.0312 38.1172C23.6797 40.5234 30.4062 40.4687 38.1719 37.5156C46.8125 34.1797 54.9062 27.8359 60.5391 20.6172C60.4297 20.6719 60.375 20.7266 60.2656 20.7266Z" fill="#28B8EB"/>
<path d="M10.1172 29.8594C10.3359 31.6641 10.8828 33.3594 11.7031 34.9453L12.1406 35.7656C12.4141 36.2578 12.7422 36.6953 13.0703 37.1875C14.7109 37.2969 16.1875 37.3516 17.5547 37.2969C20.2344 37.2422 22.4219 36.9141 24.1172 36.3672C24.3906 36.2578 24.6094 36.4219 24.7188 36.6406C24.8281 36.9141 24.6641 37.1328 24.4453 37.2422C24.2266 37.2969 24.0078 37.4063 23.7344 37.4609C22.4219 37.8438 20.8906 38.1172 19.0859 38.2266H18.8672C18.1563 38.2813 17.3906 38.2813 16.625 38.2813C15.75 38.2813 14.875 38.2813 13.9453 38.2266C17.2266 41.9453 22.4219 44.1328 28.875 44.1328C40.5781 44.1328 50.75 39.7031 56.6562 29.9141H10.1172V29.8594Z" fill="#028BB8"/>
<path d="M12.7422 29.8594C13.4531 33.0313 15.0937 35.5469 17.5547 37.2422C20.2344 37.1875 22.4219 36.8594 24.1172 36.3125C24.3906 36.2031 24.6094 36.3672 24.7188 36.5859C24.8281 36.8594 24.6641 37.0781 24.4453 37.1875C24.2266 37.2422 24.0078 37.3516 23.7344 37.4063C22.4219 37.7891 20.8906 38.0625 19.0312 38.1719C23.6797 40.5781 30.4062 40.5234 38.1172 37.5703C42.7656 35.7656 47.3047 33.0859 51.3516 29.8594H12.7422Z" fill="#019BC6"/>
<path fill-rule="evenodd" clip-rule="evenodd" d="M15.4219 19.4141H20.7812V24.7734H15.4219V19.4141ZM15.8594 19.9063H16.2969V24.3359H15.8594V19.9063ZM16.6797 19.9063H17.1172V24.3359H16.6797V19.9063ZM17.5 19.9063H17.9375V24.3359H17.5V19.9063ZM18.2656 19.9063H18.7031V24.3359H18.2656V19.9063ZM19.0859 19.9063H19.5234V24.3359H19.0859V19.9063ZM19.9063 19.9063H20.3438V24.3359H19.9063V19.9063ZM21.6016 13.2891H26.9609V18.5938H21.6016V13.2891ZM22.0391 13.7266H22.4766V18.1563H22.0391V13.7266ZM22.8594 13.7266H23.2969V18.1563H22.8594V13.7266ZM23.625 13.7266H24.0625V18.1563H23.625V13.7266ZM24.4453 13.7266H24.8828V18.1563H24.4453V13.7266ZM25.2656 13.7266H25.7031V18.1563H25.2656V13.7266ZM26.0859 13.7266H26.5234V18.1563H26.0859V13.7266Z" fill="#00ACD3"/>
<path fill-rule="evenodd" clip-rule="evenodd" d="M21.6016 19.4141H26.9609V24.7734H21.6016V19.4141ZM22.0391 19.9063H22.4766V24.3359H22.0391V19.9063ZM22.8594 19.9063H23.2969V24.3359H22.8594V19.9063ZM23.625 19.9063H24.0625V24.3359H23.625V19.9063ZM24.4453 19.9063H24.8828V24.3359H24.4453V19.9063ZM25.2656 19.9063H25.7031V24.3359H25.2656V19.9063ZM26.0859 19.9063H26.5234V24.3359H26.0859V19.9063Z" fill="#23C2EE"/>
<path fill-rule="evenodd" clip-rule="evenodd" d="M27.7812 19.4141H33.1406V24.7734H27.7812V19.4141ZM28.2187 19.9063H28.6563V24.3359H28.2187V19.9063ZM28.9844 19.9063H29.4219V24.3359H28.9844V19.9063ZM29.8047 19.9063H30.2422V24.3359H29.8047V19.9063ZM30.625 19.9063H31.0625V24.3359H30.625V19.9063ZM31.4453 19.9063H31.8828V24.3359H31.4453V19.9063ZM32.2109 19.9063H32.6484V24.3359H32.2109V19.9063Z" fill="#00ACD3"/>
<path fill-rule="evenodd" clip-rule="evenodd" d="M27.7812 13.2891H33.1406V18.5938H27.7812V13.2891ZM28.2187 13.7266H28.6563V18.1563H28.2187V13.7266ZM28.9844 13.7266H29.4219V18.1563H28.9844V13.7266ZM29.8047 13.7266H30.2422V18.1563H29.8047V13.7266ZM30.625 13.7266H31.0625V18.1563H30.625V13.7266ZM31.4453 13.7266H31.8828V18.1563H31.4453V13.7266ZM32.2109 13.7266H32.6484V18.1563H32.2109V13.7266ZM33.9063 19.4141H39.2656V24.7734H33.9063V19.4141ZM34.3984 19.9063H34.8359V24.3359H34.3984V19.9063ZM35.1641 19.9063H35.6016V24.3359H35.1641V19.9063ZM35.9844 19.9063H36.4219V24.3359H35.9844V19.9063ZM36.8047 19.9063H37.2422V24.3359H36.8047V19.9063ZM37.5703 19.9063H38.0078V24.3359H37.5703V19.9063ZM38.3906 19.9063H38.8281V24.3359H38.3906V19.9063Z" fill="#23C2EE"/>
<path fill-rule="evenodd" clip-rule="evenodd" d="M33.9062 13.2891H39.2656V18.5938H33.9062V13.2891ZM34.3984 13.7266H34.8359V18.1563H34.3984V13.7266ZM35.1641 13.7266H35.6016V18.1563H35.1641V13.7266ZM35.9844 13.7266H36.4219V18.1563H35.9844V13.7266ZM36.8047 13.7266H37.2422V18.1563H36.8047V13.7266ZM37.5703 13.7266H38.0078V18.1563H37.5703V13.7266ZM38.3906 13.7266H38.8281V18.1563H38.3906V13.7266Z" fill="#00ACD3"/>
<path fill-rule="evenodd" clip-rule="evenodd" d="M33.9062 7.10938H39.2656V12.4687H33.9062V7.10938ZM34.3984 7.54688H34.8359V12.0312H34.3984V7.54688ZM35.1641 7.54688H35.6016V12.0312H35.1641V7.54688ZM35.9844 7.54688H36.4219V12.0312H35.9844V7.54688ZM36.8047 7.54688H37.2422V12.0312H36.8047V7.54688ZM37.5703 7.54688H38.0078V12.0312H37.5703V7.54688ZM38.3906 7.54688H38.8281V12.0312H38.3906V7.54688Z" fill="#23C2EE"/>
<path fill-rule="evenodd" clip-rule="evenodd" d="M40.0859 19.4141H45.4453V24.7734H40.0859V19.4141ZM40.5234 19.9063H40.9609V24.3359H40.5234V19.9063ZM41.3437 19.9063H41.7812V24.3359H41.3437V19.9063ZM42.1641 19.9063H42.6016V24.3359H42.1641V19.9063ZM42.9297 19.9063H43.3672V24.3359H42.9297V19.9063ZM43.75 19.9063H44.1875V24.3359H43.75V19.9063ZM44.5703 19.9063H45.0078V24.3359H44.5703V19.9063Z" fill="#00ACD3"/>
<path fill-rule="evenodd" clip-rule="evenodd" d="M26.5781 33.4688C27.3984 33.4688 28.0547 34.125 28.0547 34.9453C28.0547 35.7656 27.3984 36.4219 26.5781 36.4219C25.7578 36.4219 25.1016 35.7656 25.1016 34.9453C25.1563 34.125 25.8125 33.4688 26.5781 33.4688Z" fill="#D4EEF1"/>
<path fill-rule="evenodd" clip-rule="evenodd" d="M26.5781 33.8516C26.6875 33.8516 26.8516 33.8516 26.9609 33.9062C26.8516 33.9609 26.7422 34.125 26.7422 34.2891C26.7422 34.5078 26.9609 34.7266 27.1797 34.7266C27.3438 34.7266 27.5078 34.6172 27.5625 34.5078C27.6172 34.6172 27.6172 34.7812 27.6172 34.8906C27.6172 35.4922 27.125 35.9297 26.5781 35.9297C25.9766 35.9297 25.5391 35.4375 25.5391 34.8906C25.5391 34.3437 26.0312 33.8516 26.5781 33.8516ZM0.546875 30.4062H69.0703C67.5938 30.0234 64.3672 29.5312 64.8594 27.5625C62.125 30.6797 55.6172 29.75 53.9219 28.2187C52.0625 30.8984 41.3438 29.8594 40.6328 27.7812C38.3359 30.5156 31.1719 30.5156 28.875 27.7812C28.1094 29.8594 17.3906 30.8984 15.5859 28.2187C13.9453 29.75 7.38281 30.6797 4.64844 27.5625C5.25 29.4766 2.02344 30.0234 0.546875 30.4062Z" fill="#3A4D54"/>
<path d="M30.5156 44.0781C26.8516 42.3281 24.8828 39.9766 23.7344 37.4062C22.3672 37.7891 20.7266 38.0625 18.8672 38.1719C18.1562 38.2266 17.3906 38.2266 16.625 38.2266C15.6953 38.2266 14.7656 38.2266 13.7812 38.1719C17.1172 41.5078 21.2734 44.0781 28.875 44.1328C29.4219 44.0781 29.9687 44.0781 30.5156 44.0781Z" fill="#BFDBE0"/>
<path d="M25.1016 39.7578C24.6094 39.0469 24.1172 38.2266 23.7344 37.4062C22.3672 37.7891 20.7266 38.0625 18.8672 38.1719C20.1797 38.8828 22.0391 39.5391 25.1016 39.7578Z" fill="#D4EEF1"/>
</svg>
