<svg width="70" height="70" viewBox="0 0 70 70" fill="none" xmlns="http://www.w3.org/2000/svg">
<path d="M53.5938 0H16.4062C7.34533 0 0 7.34533 0 16.4062V53.5938C0 62.6547 7.34533 70 16.4062 70H53.5938C62.6547 70 70 62.6547 70 53.5938V16.4062C70 7.34533 62.6547 0 53.5938 0Z" fill="#F4F2ED"/>
<mask id="mask0_18_24" style="mask-type:luminance" maskUnits="userSpaceOnUse" x="16" y="7" width="38" height="56">
<path d="M16.6797 7.65625H53.1453V62.3438H16.6797V7.65625Z" fill="white"/>
</mask>
<g mask="url(#mask0_18_24)">
<path d="M25.798 62.3438C30.8292 62.3438 34.9125 58.2605 34.9125 53.2293V44.1145H25.798C20.7667 44.1145 16.6832 48.198 16.6832 53.2293C16.6832 58.2605 20.7667 62.3438 25.798 62.3438Z" fill="#0ACF83"/>
<path d="M16.6832 35C16.6832 29.9687 20.7667 25.8855 25.798 25.8855H34.9125V44.1145H25.798C20.7667 44.1145 16.6832 40.0312 16.6832 35Z" fill="#A259FF"/>
<path d="M16.6832 16.7707C16.6832 11.7395 20.7667 7.65625 25.798 7.65625H34.9125V25.8855H25.798C20.7667 25.8855 16.6832 21.802 16.6832 16.7707Z" fill="#F24E1E"/>
<path d="M34.9125 7.65625H44.027C49.0582 7.65625 53.1417 11.7395 53.1417 16.7707C53.1417 21.802 49.0582 25.8855 44.027 25.8855H34.9125V7.65625Z" fill="#FF7262"/>
<path d="M53.1417 35C53.1417 40.0312 49.0582 44.1145 44.027 44.1145C38.9957 44.1145 34.9125 40.0312 34.9125 35C34.9125 29.9687 38.9957 25.8855 44.027 25.8855C49.0582 25.8855 53.1417 29.9687 53.1417 35Z" fill="#1ABCFE"/>
</g>
</svg>
