<svg width="70" height="70" viewBox="0 0 70 70" fill="none" xmlns="http://www.w3.org/2000/svg">
<path d="M53.5938 0H16.4062C7.34533 0 0 7.34533 0 16.4062V53.5938C0 62.6547 7.34533 70 16.4062 70H53.5938C62.6547 70 70 62.6547 70 53.5938V16.4062C70 7.34533 62.6547 0 53.5938 0Z" fill="#F4F2ED"/>
<path d="M34.9997 60.1565L45.2706 29.2056H24.7299L35 60.1554L34.9997 60.1565Z" fill="#E24329"/>
<path d="M34.9997 60.1565L24.73 29.2056H10.3362L34.9997 60.1554V60.1565Z" fill="#FC6D26"/>
<path d="M10.3359 29.2048L7.21409 38.611C6.9289 39.4685 7.2398 40.4086 7.98573 40.9388L35 60.1565L10.3359 29.2056V29.2048Z" fill="#FCA326"/>
<path d="M10.3359 29.2045H24.73L18.5437 10.5629C18.2254 9.60395 16.8388 9.60395 16.5211 10.5629L10.3359 29.2053V29.2045Z" fill="#E24329"/>
<path d="M35 60.1565L45.2709 29.2056H59.6654L35 60.1554V60.1565Z" fill="#FC6D26"/>
<path d="M59.6649 29.2048L62.7864 38.611C63.0711 39.4685 62.7591 40.4086 62.0143 40.9388L35 60.1565L59.6649 29.2056V29.2048Z" fill="#FCA326"/>
<path d="M59.6646 29.2045H45.2709L51.4566 10.5629C51.7751 9.60422 53.1615 9.60422 53.4792 10.5629L59.6654 29.2053L59.6646 29.2045Z" fill="#E24329"/>
</svg>
