<svg width="70" height="70" viewBox="0 0 70 70" fill="none" xmlns="http://www.w3.org/2000/svg">
<path d="M68.2156 31.9255L38.074 1.78501C36.3393 0.0492243 33.524 0.0492243 31.7866 1.78501L25.5281 8.04454L33.4677 15.9841C35.3134 15.3612 37.4287 15.779 38.8992 17.2495C40.3774 18.7294 40.792 20.8627 40.1538 22.7145L47.8056 30.3669C49.6568 29.7287 51.7934 30.141 53.2711 31.622C55.3383 33.6875 55.3383 37.036 53.2711 39.1027C52.7799 39.5941 52.1966 39.984 51.5546 40.25C50.9126 40.516 50.2246 40.653 49.5297 40.653C48.8348 40.653 48.1467 40.516 47.5047 40.25C46.8627 39.984 46.2795 39.5941 45.7882 39.1027C45.0501 38.3641 44.547 37.4238 44.3422 36.4C44.1373 35.3762 44.2399 34.3146 44.637 33.349L37.5014 26.2134L37.5003 44.9936C38.018 45.2486 38.4907 45.5862 38.8998 45.9933C40.9659 48.0588 40.9659 51.4063 38.8998 53.4762C36.8331 55.5417 33.4835 55.5417 31.4191 53.4762C29.353 51.4068 29.353 48.0594 31.4191 45.9933C31.9141 45.4975 32.5028 45.1052 33.151 44.8394V25.8852C32.5023 25.6201 31.9134 25.2276 31.4191 24.7308C29.8539 23.1667 29.4771 20.8698 30.2799 18.947L22.4525 11.1196L1.78501 31.786C0.951196 32.6201 0.482788 33.7512 0.482788 34.9306C0.482788 36.1099 0.951196 37.241 1.78501 38.0751L31.9271 68.2156C33.6629 69.9513 36.4771 69.9513 38.2156 68.2156L68.2161 38.2151C69.0497 37.3808 69.518 36.2496 69.5179 35.0702C69.5178 33.8908 69.0493 32.7596 68.2156 31.9255Z" fill="#F34F29"/>
</svg>
