<svg width="70" height="70" viewBox="0 0 70 70" fill="none" xmlns="http://www.w3.org/2000/svg">
<path d="M56.8367 9.40898C54.5657 9.71985 52.4467 10.7262 50.7708 12.2899C50.6669 12.388 50.5835 12.5057 50.5253 12.6361C50.4671 12.7666 50.4353 12.9073 50.4317 13.0501C50.4334 13.3375 50.5467 13.613 50.7478 13.8184L52.1287 15.2474C52.3087 15.4277 52.5477 15.5371 52.8019 15.5553C53.056 15.5736 53.3083 15.4996 53.5123 15.347C54.609 14.5192 55.9466 14.0734 57.3207 14.0777C58.5803 14.0729 59.8128 14.4427 60.8618 15.1399C61.9108 15.8372 62.7288 16.8305 63.2121 17.9937C63.6953 19.1569 63.8219 20.4375 63.5757 21.6728C63.3296 22.9081 62.7218 24.0423 61.8297 24.9315C53.0195 33.7427 41.2584 9.05898 14.5671 21.758C14.1135 21.9703 13.7088 22.2742 13.3784 22.6505C13.048 23.0269 12.799 23.4675 12.6472 23.9448C12.4953 24.422 12.4439 24.9255 12.4961 25.4236C12.5483 25.9217 12.703 26.4036 12.9505 26.839L17.5252 34.7555C18.0028 35.579 18.7848 36.1818 19.7026 36.4342C20.6205 36.6866 21.6008 36.5682 22.4323 36.1047L22.5433 36.0423L22.4558 36.1047L24.4847 34.9661C26.7457 33.5615 28.882 31.9653 30.87 30.1952C31.0737 30.0205 31.3331 29.9245 31.6014 29.9245C31.8697 29.9245 32.1292 30.0205 32.3329 30.1952C32.4561 30.291 32.556 30.4136 32.6252 30.5535C32.6943 30.6935 32.7309 30.8473 32.7321 31.0034C32.7347 31.1554 32.7047 31.3063 32.6443 31.4457C32.5838 31.5852 32.4942 31.7102 32.3816 31.8123C30.2879 33.6711 28.0353 35.3427 25.6495 36.808H25.5839L23.5539 37.9405C22.6962 38.4251 21.7269 38.6773 20.7419 38.6723C19.7238 38.6726 18.7234 38.4066 17.84 37.9008C16.9565 37.3949 16.2207 36.6667 15.7057 35.7886L11.3788 28.3106C3.06961 34.1797 -1.97258 45.4891 0.735545 59.8369C0.783727 60.0769 0.913014 60.2931 1.10171 60.4492C1.29041 60.6052 1.52703 60.6916 1.77187 60.6938H6.70195C6.95814 60.6935 7.20538 60.5996 7.39722 60.4298C7.58906 60.26 7.71229 60.026 7.74375 59.7718C7.9635 58.0273 8.81239 56.423 10.1311 55.26C11.4498 54.097 13.1476 53.4553 14.9059 53.4553C16.6642 53.4553 18.362 54.097 19.6807 55.26C20.9994 56.423 21.8483 58.0273 22.068 59.7718C22.1012 60.0264 22.2258 60.2603 22.4185 60.4299C22.6113 60.5995 22.8591 60.6933 23.1159 60.6938H27.9207C28.1769 60.6935 28.4241 60.5996 28.616 60.4298C28.8078 60.26 28.931 60.026 28.9625 59.7718C29.1881 58.0306 30.0398 56.431 31.3587 55.272C32.6775 54.113 34.3733 53.4738 36.129 53.4738C37.8848 53.4738 39.5805 54.113 40.8994 55.272C42.2182 56.431 43.07 58.0306 43.2955 59.7718C43.327 60.026 43.4502 60.26 43.6421 60.4298C43.8339 60.5996 44.0812 60.6935 44.3373 60.6938H49.0798C49.356 60.6944 49.6213 60.5864 49.8184 60.3929C50.0155 60.1995 50.1285 59.9363 50.1331 59.6602C50.2463 52.9758 52.0488 45.2955 57.19 41.4477C74.9973 28.1263 70.3188 16.707 66.1965 12.5601C64.9855 11.348 63.5103 10.4327 61.8864 9.88605C60.2626 9.33937 58.5342 9.17608 56.8367 9.40898ZM46.3159 28.9111C46.7946 28.8053 47.2951 28.8676 47.7333 29.0874C48.1714 29.3073 48.5205 29.6712 48.7219 30.1182C48.9233 30.5651 48.9646 31.0678 48.839 31.5416C48.7133 32.0155 48.4284 32.4316 48.032 32.7201V32.7091L44.6359 31.0034C44.6343 30.5151 44.8002 30.041 45.1059 29.6602C45.4117 29.2794 45.8388 29.015 46.3159 28.9111Z" fill="#02303A"/>
</svg>
