<svg width="70" height="70" viewBox="0 0 70 70" fill="none" xmlns="http://www.w3.org/2000/svg">
<path d="M35 0C54.3375 0 70 15.6625 70 35C69.9981 42.3334 67.6966 49.4815 63.4193 55.4383C59.142 61.3951 53.1044 65.8606 46.1563 68.2063C44.4063 68.5563 43.75 67.4625 43.75 66.5438C43.75 65.3625 43.7938 61.6 43.7938 56.9188C43.7938 53.6375 42.7 51.5375 41.4313 50.4437C49.2188 49.5687 57.4 46.5937 57.4 33.1625C57.4 29.3125 56.0438 26.2062 53.8125 23.7562C54.1625 22.8812 55.3875 19.2937 53.4625 14.4812C53.4625 14.4812 50.5313 13.5188 43.8375 18.0688C41.0375 17.2813 38.0625 16.8875 35.0875 16.8875C32.1125 16.8875 29.1375 17.2813 26.3375 18.0688C19.6438 13.5625 16.7125 14.4812 16.7125 14.4812C14.7875 19.2937 16.0125 22.8812 16.3625 23.7562C14.1313 26.2062 12.775 29.3562 12.775 33.1625C12.775 46.55 20.9125 49.5687 28.7 50.4437C27.6938 51.3187 26.775 52.85 26.4688 55.125C24.4563 56.0438 19.425 57.5312 16.275 52.2375C15.6188 51.1875 13.65 48.6062 10.8938 48.65C7.96251 48.6937 9.71251 50.3125 10.9375 50.9687C12.425 51.8 14.1313 54.9062 14.525 55.9125C15.225 57.8812 17.5 61.6438 26.2938 60.025C26.2938 62.9563 26.3375 65.7125 26.3375 66.5438C26.3375 67.4625 25.6813 68.5125 23.9313 68.2063C16.9603 65.8859 10.897 61.4294 6.6014 55.469C2.30583 49.5087 -0.0038521 42.347 4.82262e-06 35C4.82262e-06 15.6625 15.6625 0 35 0Z" fill="black"/>
</svg>
