<svg width="70" height="70" viewBox="0 0 50 70" fill="none" xmlns="http://www.w3.org/2000/svg">
<path d="M49.5536 13.7219L45.047 64.2072L24.7897 69.8231L4.58822 64.215L0.0863037 13.7219H49.5536Z" fill="#E44D26"/>
<path d="M24.8199 65.5305L41.1889 60.9925L45.0399 17.8504H24.8199V65.5305Z" fill="#F16529"/>
<path d="M16.0593 30.2361H24.8199V24.0434H9.29138L9.43953 25.7047L10.9617 42.7704H24.8199V36.5776H16.6253L16.0593 30.2361ZM17.455 45.8669H11.2384L12.1059 55.5905L24.7914 59.1118L24.8199 59.104V52.6609L24.7928 52.6681L17.896 50.8058L17.455 45.8669Z" fill="#EBEBEB"/>
<path d="M4.68866 0H7.83575V3.10928H10.7147V0H13.862V9.41568H10.7149V6.26277H7.83594V9.41568H4.68885L4.68866 0ZM18.0003 3.12247H15.2302V0H23.9199V3.12247H21.148V9.41568H18.0009V3.12247H18.0003ZM25.2989 0H28.5804L30.5989 3.30842L32.6156 0H35.8984V9.41568H32.7641V4.74875L30.5989 8.09654H30.5446L28.3781 4.74875V9.41568H25.2989V0ZM37.4646 0H40.6126V6.30349H45.0383V9.41568H37.4644L37.4646 0Z" fill="black"/>
<path d="M24.7986 42.7704H32.4243L31.7053 50.802L24.7984 52.6662V59.1089L37.494 55.5905L37.5871 54.5442L39.0425 38.2406L39.1936 36.5776H24.7986V42.7704ZM24.7986 30.221V30.2361H39.7571L39.8812 28.8443L40.1635 25.7047L40.3114 24.0434H24.7986V30.221Z" fill="white"/>
</svg>
