<svg width="70" height="70" viewBox="0 0 70 70" fill="none" xmlns="http://www.w3.org/2000/svg">
<path d="M59.5509 33.7313C59.5509 47.6 48.5592 58.8427 35.0005 58.8427C21.4413 58.8427 10.4497 47.6 10.4497 33.7313C10.4497 19.8625 21.4419 8.61875 35.0005 8.61875C48.5592 8.61875 59.5509 19.8625 59.5509 33.7313Z" fill="#D33833"/>
<path d="M11.4505 39.9503C11.4505 39.9503 9.67312 13.7632 33.8023 13.0156L32.1191 10.2102L19.0252 14.6054L15.2846 18.9077L12.011 25.1743L10.1407 32.4691L10.7012 37.3324" fill="#EF3D3A"/>
<path d="M18.1852 16.6004C13.878 21.0082 11.2126 27.0927 11.2126 33.8248C11.2126 40.5552 13.878 46.6413 18.1852 51.048C22.4946 55.4542 28.4337 58.1738 35 58.1738C41.5663 58.1738 47.5054 55.4542 51.8148 51.048C56.122 46.6413 58.788 40.5552 58.788 33.8248C58.788 27.0927 56.122 21.0077 51.8148 16.6004C47.5054 12.1953 41.5663 9.4757 35 9.47516C28.4342 9.4757 22.4946 12.1948 18.1852 16.6009V16.6004ZM17.0953 52.1139C12.518 47.4321 9.68735 40.962 9.68735 33.8248C9.68735 26.6864 12.518 20.2169 17.0953 15.5351C21.6727 10.8522 28.0077 7.94992 35 7.95047C41.9934 7.94938 48.3295 10.8522 52.9052 15.5351C57.4837 20.2169 60.3143 26.687 60.3138 33.8248C60.3138 40.9615 57.4837 47.4321 52.9052 52.1139C48.3295 56.7962 41.9934 59.6991 35.0005 59.6991C28.0077 59.6991 21.6716 56.7962 17.0953 52.1139Z" fill="#231F20"/>
<path d="M45.3348 33.8702L41.5937 34.4313L36.5433 34.9923L33.2697 35.0859L30.0896 34.9929L27.6582 34.2442L25.5068 31.9063L23.8235 27.1365L23.4495 26.1078L21.2045 25.3597L19.8953 23.2083L18.9602 20.1217L19.9888 17.4092L22.4202 16.5681L24.3846 17.5033L25.3198 19.5606L26.4425 19.3736L26.816 18.906L26.4425 16.7552L26.3484 14.0427L26.9095 10.302L26.8877 8.16485L28.5934 5.43867L31.5859 3.28727L36.8238 1.04289L42.6223 1.88453L47.6727 5.53219L50.0112 9.27281L51.5074 11.9853L51.8815 18.719L50.7588 24.518L48.7014 29.6614L46.7376 32.3739" fill="#F0D6B7"/>
<path d="M48.1398 31.1582L45.8959 33.4031V42.1006L43.9381 50.1178L42.997 50.1435L43.7445 59.1221L47.2981 58.6545L46.457 50.05L44.87 50.0932L49.1701 49.8624C49.1701 49.8624 51.3204 44.438 51.3204 44.1574C51.3204 43.8769 53.1918 36.3016 53.1918 36.3016L48.982 31.9063L48.1403 31.1571L48.1398 31.1582ZM25.6003 32.5604L23.2624 33.4961L15.7801 38.64L16.2482 40.1368L18.3996 46.4959L19.3342 57.0653L19.9888 58.1864L29.3409 61.3676L29.9031 60.7113L28.7804 52.8555V50.6116L42.1542 50.05L43.1823 49.4889L35.047 45.6542L36.5433 42.7558L34.3924 43.5034L33.5502 42.4747L32.428 37.6113L31.4923 37.3308L29.435 36.6756L27.6577 35.0864L25.6003 32.5604Z" fill="#335061"/>
<path d="M19.9888 17.4098L22.4202 16.5676L24.3846 17.5033L25.3198 19.5606L26.4425 19.3736L26.723 18.2514L26.1619 16.1005L26.723 10.9561L26.2549 8.15063L27.9387 6.18625L31.5864 3.28727L30.5572 1.88453L25.4133 4.40945L23.2624 6.09328L22.0462 8.71172L20.1759 11.2366L19.6148 14.2297L19.9888 17.4098Z" fill="#6D6B6D"/>
<path d="M32.509 2.19899C31.868 2.19242 31.1183 2.25805 31.1183 2.25805L25.0398 4.59703L22.7008 6.93547L21.6721 8.80578L23.8235 8.61875C23.8235 8.61875 25.2262 5.15813 30.8377 3.47485C34.3448 2.42266 33.5776 2.21047 32.509 2.19899ZM26.2555 8.15063L21.1116 9.36633L19.6148 14.2297L19.9888 17.4092L21.0169 16.7557C21.0169 16.7557 19.0531 10.2074 26.5349 9.27227L26.2555 8.15063Z" fill="#DCD9D8"/>
<path d="M38.2736 0.259765C37.5533 0.272553 36.8408 0.410986 36.1681 0.668827C30.5572 2.81969 26.442 6.74734 26.5349 9.27226C26.6946 13.5729 26.629 13.5762 26.629 13.5762C26.629 13.5762 28.2193 5.34516 36.2633 3.75484C42.8848 2.44617 46.363 4.03484 47.6727 5.53109C47.6727 5.53109 43.161 0.160781 38.2741 0.259218L38.2736 0.259765ZM48.2967 6.4668C47.9987 6.46516 45.6099 6.52586 45.5219 8.80578C45.5219 8.80578 45.5219 9.1793 45.7089 9.55336C45.7089 9.55336 47.8603 7.12141 49.1695 8.43062L48.3279 6.46734C48.3279 6.46734 48.317 6.4668 48.2967 6.4668ZM34.5237 7.56601C34.0643 7.57695 33.4977 7.76891 32.8016 8.24414C30.7442 9.64687 30.9312 11.6112 31.3053 11.9853C31.6794 12.3594 31.5782 13.1119 31.8631 12.5951C32.1475 12.0783 32.054 10.3955 33.0827 9.92797C34.1113 9.46039 35.7984 8.93703 36.4514 9.80656C36.4514 9.80656 36.1659 7.52828 34.5237 7.56656V7.56601ZM48.9814 13.2951C48.9814 13.2951 47.4403 13.6199 47.2981 14.9784C47.1559 16.3362 48.982 15.2584 49.2625 15.1648L48.9814 13.2951ZM37.6649 13.3886C37.6649 13.3886 35.6076 13.6691 35.6076 14.9784C35.6076 16.2876 37.946 16.1941 38.6006 15.633L37.6649 13.3886ZM21.0175 16.7562L18.8672 18.9995L19.2412 21.8055L20.3623 24.704L21.5791 25.0791C19.8018 22.9283 20.6434 21.4309 21.0175 19.3736C21.391 17.3157 24.9457 19.4677 24.9457 19.4677L24.8516 18.0638L23.4495 16.9427L21.0175 16.7562ZM42.1318 21.0476C41.516 21.0202 41.2809 23.0355 41.2305 23.5555C41.4001 23.0524 42.9647 22.0407 42.9647 22.0407C42.9647 22.0407 42.9647 21.2773 42.2012 21.0596C42.1787 21.0529 42.1553 21.0488 42.1318 21.0476ZM41.2305 23.5555C41.2154 23.594 41.2116 23.6359 41.2196 23.6764C41.2196 23.6764 41.2229 23.6321 41.2305 23.5555ZM25.2355 24.267L24.0105 25.4537L24.2911 29.569L27.2841 34.2453C27.2841 34.2453 30.6436 35.0033 30.2766 34.7134C26.2555 31.5334 25.9749 25.6408 25.8814 24.9856C25.7884 24.3316 25.2355 24.267 25.2355 24.267ZM35.7596 25.661C35.3905 25.6665 35.146 25.7857 35.0771 25.8776C34.8436 26.1893 35.327 27.8857 35.327 27.8857L35.7946 27.9798C35.7016 26.1089 36.8233 25.9213 36.8233 25.9213C36.4087 25.7223 36.0467 25.6566 35.7596 25.661Z" fill="#F7E4CD"/>
<path d="M24.9457 32.468L15.7801 38.64L16.8087 41.5401L19.2412 52.0138L19.3342 57.5329L20.6434 57.9999C22.5137 53.5101 18.8672 39.0141 18.8672 39.0141L27.6577 35.0864L24.9457 32.468ZM28.5627 43.1036L28.3123 43.6904C28.3123 43.6904 28.1258 45.3737 28.1258 45.8412C28.1258 46.3094 28.3123 50.2381 28.3123 50.2381H29.8091V44.6255L28.5622 43.103L28.5627 43.1036ZM28.5934 51.0792L24.3852 51.2663L25.6003 52.1084L28.5934 52.576V51.0792ZM48.1398 31.1582L46.3635 33.122L52.9102 37.9859L53.0972 35.7416L48.1398 31.1582ZM46.2695 49.4895L42.997 50.1435L43.464 52.763C44.6797 53.3241 46.7376 51.8273 46.7376 51.8273L46.2695 49.4895Z" fill="#49728B"/>
<path d="M27.6577 34.2453V35.0864L28.8466 36.3962L32.5872 38.0795L32.6812 35.2745L30.0896 34.9923L27.6577 34.2453ZM55.0337 47.5256L52.0406 48.4613L49.1695 49.863L47.6443 49.5841L46.4565 50.0506L47.4584 57.9081L51.1049 56.8783L58.0262 56.5042L59.0548 53.3247L57.1845 47.8067L55.0337 47.5256ZM42.997 50.1435L37.5446 50.1446L28.7804 50.6116L28.9395 54.915L29.9031 60.7119L31.8391 68.5699L36.1408 69.5045L43.2491 68.9434L43.342 67.5402L42.4998 59.9648L42.997 50.1435ZM43.7172 49.3965L41.6593 44.1591L39.5079 41.0725C39.5079 41.0725 39.9755 39.7633 40.6306 39.7633H42.7815L44.8388 40.5114L44.6523 43.972L43.7172 49.3965Z" fill="white"/>
<path d="M28.5004 35.5545L28.2198 35.9291L29.8102 37.0508L32.4281 37.6113L32.3351 36.4902C31.3999 36.7708 28.5004 35.5545 28.5004 35.5545ZM41.4996 39.5757L39.3493 39.8557L42.997 48.4602L43.7445 48.5543L44.1186 47.6191C44.1186 47.6191 41.4991 42.5682 41.4991 41.8201C41.4991 41.8201 41.9672 40.6979 42.6218 40.9779C43.277 41.259 44.6802 42.0071 44.6802 42.0071V40.2303L41.4996 39.5757ZM50.3852 49.3959L49.1695 49.863L50.1982 55.0069C49.8241 54.9134 47.3927 56.0366 47.3927 56.0366L47.6716 57.5329L48.702 57.1583L51.9745 56.6913L52.9102 57.907L55.7156 57.9999L57.3995 57.6259L58.8957 55.382L58.8016 53.6977L57.7735 50.7046C58.0541 52.949 56.9313 55.1009 56.9313 55.1009C56.4638 55.1009 51.2269 54.8198 51.2269 54.8198C51.2269 54.2588 50.3852 49.3959 50.3852 49.3959ZM43.1829 49.4889L41.7802 50.0506C41.7802 50.0506 41.3131 59.7778 42.7159 66.6985C42.7159 66.6985 39.9104 68.4753 35.7946 68.9423L43.6505 68.6618L44.5862 68.1007L43.464 52.7625L43.1829 49.4889ZM45.6274 59.4951C45.2249 59.4973 44.6266 59.7827 44.2039 59.7548C44.1421 61.232 44.3494 63.601 44.4188 65.1509C45.401 65.152 45.8216 64.9365 46.5549 64.6893C46.6375 62.8655 45.9769 61.1773 45.7871 59.512C45.7351 59.4994 45.681 59.4937 45.6274 59.4951Z" fill="#DCD9D8"/>
<path d="M46.3624 34.9005C45.1637 34.9562 43.5471 36.4848 42.7941 36.7527C42.8914 37.0327 43.0511 37.2542 43.0631 37.6113C43.5909 37.4812 44.2334 37.5703 44.6912 37.7951C44.1618 37.8541 43.5766 37.8509 43.2266 38.103C43.0981 38.4732 43.2567 38.978 43.1709 39.492C44.4265 39.8464 45.8609 40.0356 47.4474 40.0821C47.757 39.6812 47.8619 38.9156 47.8248 38.1582C47.781 37.2449 47.5409 35.367 46.9771 35.0383C46.7912 34.9305 46.5845 34.8906 46.3624 34.9005ZM34.0386 35.3095C32.7677 35.3369 32.9 37.5561 32.9618 38.9145C33.0137 40.0619 33.6115 41.2759 33.8696 42.0388C33.9921 42.3943 34.0195 42.7727 34.3235 42.8427C34.8616 42.9685 36.6368 42.2592 37.1427 41.9836C38.2118 41.4006 39.042 40.4742 39.9498 39.8524L39.9837 38.9457C39.4379 38.6734 38.8079 38.4798 38.0056 38.4448C38.5498 38.1713 39.3493 38.1752 39.8448 37.8498L39.859 37.4877C38.9545 37.4183 38.6094 37.0152 38.0133 36.6887C37.0377 36.1561 35.572 35.5748 34.312 35.3341C34.222 35.3164 34.1303 35.3082 34.0386 35.3095ZM41.3831 37.2001C41.1414 37.2023 40.8532 37.2936 40.5245 37.5134C40.4622 38.202 40.623 38.4267 40.7613 39.217C42.6716 39.8147 42.6891 37.1913 41.3831 37.2001Z" fill="#D33833"/>
<path d="M46.2421 34.2459L42.6885 36.3032L42.5004 37.3313V39.3887L43.8096 39.8568C43.8096 39.8568 43.155 38.9216 43.6231 38.6411C44.0907 38.3605 44.5588 38.6411 44.8394 38.1735C45.1199 37.7054 44.8394 37.4248 44.9323 36.8637C45.0259 36.3027 45.4934 36.2097 45.961 36.1162C46.4286 36.0232 47.7384 35.8356 47.9254 36.3032L47.3643 34.6199L46.2421 34.2459ZM34.4646 34.8091C34.0014 34.7993 33.5792 34.8759 33.2697 35.0864C31.0707 36.5821 32.8431 40.0389 33.9205 42.0722C33.8292 40.9033 33.7311 39.735 33.6262 38.5673C33.4283 36.3907 34.1496 36.7708 36.0369 36.7708C36.3256 36.7708 37.8115 37.1142 37.9181 37.3319C38.4284 38.3737 37.065 38.1418 38.5055 38.9277C39.7217 39.5905 41.8698 38.5246 41.3787 37.0508C41.1037 36.7227 39.9459 36.9485 39.5309 36.7336L37.339 35.5972C36.7002 35.2652 35.484 34.8305 34.4646 34.8091ZM33.9199 42.0716C33.9429 42.3626 33.967 42.653 33.9894 42.9434L34.3241 42.8433C34.2125 42.6218 34.073 42.3604 33.9205 42.0722L33.9199 42.0716Z" fill="#EF3D3A"/>
<path d="M36.9496 0.00328242C34.9863 0.0404699 33.0662 0.366954 31.4661 0.955939C30.2766 1.39344 29.1244 1.785 28.0798 2.39859C25.2848 4.03922 22.3174 5.13734 21.4889 8.43992C19.4469 9.3543 18.8311 11.9678 18.9339 15.0008C18.9536 15.592 19.2746 16.3308 19.1636 16.887C19.1067 17.1691 18.7239 17.5306 18.6473 17.7144C17.6684 20.0479 18.4532 23.1153 19.5841 24.774C20.2677 25.7759 21.3998 26.6645 22.8927 26.9002C22.9523 27.7944 23.1673 28.5638 23.5802 29.47C23.8416 30.0431 24.8177 31.0734 24.4584 31.8046C24.278 32.1732 22.6882 32.9733 22.161 33.2899C20.3809 34.3574 19.0909 35.012 17.4475 36.1949C16.3844 36.9605 14.7213 37.059 14.9838 38.8243C15.1605 40.0154 15.8386 41.492 16.2263 42.6863C16.6463 43.9753 17.2479 45.156 17.5935 46.4937C18.3619 49.4747 18.5221 52.2834 18.7091 55.195C18.7824 56.3352 18.661 57.5416 18.9569 58.1711C19.262 58.8219 20.393 59.0297 21.21 59.4092C23.5698 60.5002 26.0734 62.1666 29.1681 61.8357C29.9059 64.3163 30.6031 66.9583 31.4885 69.131C34.662 70.2718 39.672 70.0935 42.9712 69.697C43.9742 69.5756 45.0324 69.0807 45.2681 68.2112C45.1976 67.6752 45.1194 67.1448 45.1533 66.5109C46.1847 66.2977 47.5885 66.1216 47.8155 64.9797C48.1337 63.3784 46.8043 61.0843 47.2478 59.3272C47.845 59.1336 48.4827 58.9821 48.3875 58.0393C49.3938 57.5154 50.5876 57.3984 51.8618 57.4476C52.0259 57.7648 52.2594 58.0699 52.4694 58.2444C54.2544 58.6031 55.983 58.6327 57.4651 58.1492C59.1423 57.6013 59.9424 54.1707 59.5591 52.5383C59.2867 51.3816 58.6709 49.4867 58.1459 48.3667C56.7235 45.3261 52.4841 47.2347 50.2152 48.3623C51.316 45.4666 52.2627 42.4643 53.2339 39.2159C53.5238 38.2424 54.0969 36.8627 53.9684 35.8542C53.848 34.9059 52.3693 33.9095 51.5911 33.1581C51.1585 32.7414 49.1416 31.2102 49.0246 30.637C48.9114 30.0825 49.8471 28.8263 50.1479 28.198C50.5799 27.2989 50.8895 26.1986 51.1022 25.4499C52.6881 19.874 52.8495 12.2134 50.5821 7.62945C49.7235 5.89313 47.3227 3.49508 45.8216 2.35922C43.6078 0.685782 40.2205 -0.0579676 36.9496 0.00328242ZM37.211 1.55641C39.8617 1.5307 42.8094 2.46586 44.8055 3.59188C46.4734 4.5325 47.7039 6.3525 48.8775 7.8668C47.232 7.37844 45.8314 8.21789 46.0868 9.57524C47.4644 8.3125 49.8176 9.56156 50.5137 10.9577C51.1793 12.2921 51.1749 14.2702 51.2772 16.2542C51.5249 21.0656 50.3967 26.0296 47.979 29.5072C47.3326 30.4358 46.7901 31.4508 45.8812 32.0901C43.6904 33.6284 40.3605 35.023 37.5091 34.0665C33.7411 32.8021 32.0294 30.2914 29.9567 27.4165C30.013 28.9959 31.1238 30.292 32.2208 31.5C33.1751 32.5527 34.3268 33.7422 35.566 34.2333C34.5324 33.9905 32.9454 33.9145 32.5145 34.8425C30.1027 34.6823 27.8616 34.4356 26.7209 32.801C25.8218 31.5126 24.9085 29.3213 24.4989 27.6287C24.4152 27.2809 24.272 26.5404 24.307 26.3506C24.4415 25.6162 25.7496 25.2935 25.235 24.267C24.2856 24.2583 24.0718 25.1311 23.2006 25.2175C20.9448 25.4406 19.3534 22.2277 19.4556 20.2891C19.5426 18.6408 20.936 17.0636 22.8419 17.272C24.1888 17.4196 24.6466 18.8896 24.908 20.1977C25.6845 20.2393 26.8062 20.1644 27.1737 19.5584C27.1206 18.0802 26.4343 16.8946 26.4813 15.5362C26.5699 12.9834 27.9606 10.6799 26.8877 8.16539C28.0361 5.56008 31.4054 3.50383 33.8975 2.26078C34.8627 1.77953 36.0062 1.56953 37.2116 1.5575L37.211 1.55641ZM30.3543 2.83938C30.4626 2.85688 30.5621 2.94109 30.6584 3.04391C30.642 3.48742 30.2045 3.47813 29.9091 3.62031C29.4498 4.18524 28.7782 4.44938 28.2193 5.06844C27.6456 5.70281 27.0041 7.40688 26.244 7.595C25.8628 7.69016 25.4275 7.52938 25.0955 7.55125C24.2178 7.60649 23.5998 8.05602 22.7095 8.18508C23.8591 5.67219 27.4449 3.63891 30.2422 2.84649C30.2786 2.83584 30.3169 2.83341 30.3543 2.83938ZM35.134 8.29336C33.6919 8.295 32.0496 9.83664 31.6214 11.013C31.4475 11.4909 31.173 12.4294 31.8626 12.5962C32.6353 10.8741 33.9019 9.21375 36.4509 9.80711C36.9403 9.00266 36.0653 8.41149 35.4189 8.31414C35.3244 8.30005 35.2295 8.29311 35.134 8.29336ZM26.0252 8.55586C27.0107 11.0638 25.3181 14.0443 25.9487 16.7869C26.1417 17.6269 26.8095 18.9306 25.743 18.9591C25.7709 16.5692 22.8063 15.0527 20.5723 16.4577C20.423 14.6453 20.1644 12.0974 21.4003 10.7379C22.5405 9.48227 24.1123 8.70078 26.0252 8.55586ZM48.8715 12.7105C48.79 14.087 49.3013 14.9155 49.6563 15.8889C49.0427 16.275 47.8488 16.0344 47.157 16.3368C47.1078 18.3728 50.307 17.3693 50.7938 16.2356C50.0664 15.1791 49.5682 13.9114 48.9918 12.7154L48.8715 12.7105ZM37.7563 12.7416C37.3778 13.8157 38.4059 15.639 38.9823 16.561C38.2315 17.29 36.8812 16.6846 35.8766 16.6376C34.918 18.1519 37.7486 18.4368 38.9632 18.078C39.2957 17.9802 39.871 17.482 39.9503 17.2577C40.2877 16.31 39.6074 15.8944 39.2574 15.5531C38.4809 14.7963 38.3026 13.743 37.7563 12.7416ZM43.5252 13.7315C43.452 13.7216 43.3639 13.7479 43.2584 13.8245C43.19 16.3488 45.0658 18.4384 46.4647 20.1245C47.1483 20.9475 47.9719 21.4178 47.2134 22.6964C45.9905 23.1612 44.0114 24.4929 42.3112 24.202C41.4088 24.0477 41.6123 23.0234 41.2885 22.4667C40.6662 23.2854 40.9101 24.5241 41.551 25.0808C44.5473 25.3772 46.5866 24.0997 48.4154 22.9245C48.3427 22.464 48.9688 21.6338 48.7949 20.9415C48.7348 20.703 48.1923 20.3574 47.863 19.997C46.5216 18.5341 44.6835 16.3483 43.9529 14.6388C43.8873 14.4856 43.843 13.7736 43.5252 13.7315ZM22.208 18.4538C21.5152 18.4428 20.8873 18.8995 20.7391 19.9757C21.0465 19.7745 21.2942 19.2019 21.8482 19.4742C21.3615 20.4241 21.4785 22.2742 22.1408 22.8758C22.137 21.7481 21.9614 19.8204 22.9228 19.8789C23.596 19.9194 23.7322 21.3609 24.3053 21.688C24.7007 19.7859 23.3636 18.4713 22.208 18.4538ZM49.5797 24.1194C48.1179 24.7866 46.9383 25.7584 45.0286 25.9416C44.9362 26.2571 44.9755 27.0534 45.0264 27.5767C47.524 27.5248 48.7288 25.7398 49.5797 24.1194ZM37.6119 25.1699C38.342 27.1239 41.633 27.813 44.4166 27.6741C44.4123 27.0955 44.415 26.5092 44.2991 26.0345C42.1334 26.098 39.2049 26.0072 37.6119 25.1699ZM37.3095 26.7329C35.9023 26.7345 37.0891 27.5171 37.3275 27.8234C37.8208 28.4577 38.3994 29.54 39.3006 30.0191C40.7214 30.7737 43.5433 30.4571 44.567 30.0409C44.9455 29.8878 45.2506 29.4629 45.3912 29.1041C42.1974 29.1807 38.4114 29.499 37.3095 26.7329ZM47.9385 32.1087C49.0323 32.9897 49.6929 33.8188 50.7418 34.761C51.3106 35.2713 52.4305 35.8827 52.5438 36.7079C52.6066 37.1684 52.3245 38.2966 52.2205 38.8145C51.7612 41.0862 50.7276 44.0874 49.7432 46.468C49.3855 47.3331 49.0432 48.4148 48.5713 48.6019C47.2784 49.1138 45.7095 48.5521 44.6108 49.2363C46.0873 46.6741 47.6952 44.2537 49.1422 41.6609C48.9218 41.1469 48.3815 40.9276 48.2245 40.355C49.2406 38.436 48.7736 32.4784 46.1803 33.7362C46.5429 33.2035 47.495 32.7638 47.9385 32.1087ZM25.1207 33.4649C25.3564 33.372 27.0769 35.6103 27.3312 35.7919C28.7257 36.7817 30.4571 37.5638 32.0764 38.3365C32.1754 39.0797 32.4045 40.0427 32.8081 41.3312C33.2527 42.7541 33.6197 44.7623 35.4998 43.7363C35.321 44.549 34.2765 45.0532 34.5647 46.0009C34.7452 46.5954 36.7194 47.3298 37.345 47.6831C38.4995 48.3339 39.5527 48.6938 40.4398 49.0744C36.4093 49.1848 32.6244 49.513 28.8996 50.0199C28.4534 49.3287 28.6333 48.2634 28.5863 47.1625C28.5348 45.967 29.032 43.272 28.5622 43.1047C28.0312 42.916 27.9316 43.9923 27.9125 44.2296C27.813 45.4918 28.5135 48.1644 27.8228 49.6754C27.067 49.4616 26.6946 48.8934 25.9864 48.6352C25.7086 49.5102 26.5617 49.5523 26.4742 50.108C26.3583 50.8424 24.9665 50.2283 24.9741 51.3204C25.8803 51.4659 27.2705 51.0388 28.239 51.4473C28.4922 54.4184 28.8991 57.2338 29.3448 60.3898C25.4904 60.1896 22.9955 58.2745 20.1545 56.9461C19.9779 50.6625 18.9766 44.1438 16.497 38.8227C19.098 36.8156 22.0084 34.6927 25.1213 33.4655L25.1207 33.4649ZM46.4937 34.901C46.6665 34.9092 46.8289 34.9524 46.9771 35.0388C47.5415 35.368 47.7816 37.246 47.8253 38.1593C47.862 38.9167 47.7564 39.6813 47.448 40.0827C45.8609 40.0362 44.427 39.8475 43.1714 39.4931C43.2573 38.9791 43.0976 38.4732 43.2261 38.1024C43.5755 37.8509 44.1618 37.8552 44.6906 37.7962C44.2334 37.5709 43.5914 37.4817 43.0637 37.6119C43.0511 37.2542 42.8909 37.0333 42.7941 36.7533C43.5745 36.4749 45.2845 34.8414 46.4937 34.901ZM43.6499 34.9705C42.9838 35.4047 42.4167 35.9477 41.7774 36.4115C40.3594 36.482 39.5855 36.3136 38.5438 35.4993C38.5602 35.4337 38.6652 35.4632 38.6695 35.3828C40.1871 36.0593 42.1176 35.1072 43.6499 34.9705ZM28.6945 34.9973C29.4859 35.5469 31.0171 35.4113 32.1825 35.6158C32.2427 35.9893 31.9408 36.4798 31.9463 36.9999C30.9657 36.9398 27.8846 35.8187 28.6945 34.9973ZM34.0386 35.3106C34.1234 35.3084 34.2141 35.3166 34.312 35.3352C35.572 35.5759 37.0377 36.1566 38.0133 36.6898C38.6094 37.0158 38.9545 37.4183 39.859 37.4883C39.8552 37.6086 39.8497 37.7289 39.8453 37.8503C39.3498 38.1757 38.5498 38.1719 38.0062 38.4453C38.8079 38.4803 39.439 38.6734 39.9848 38.9457L39.9492 39.853C39.0409 40.4748 38.2112 41.4006 37.1421 41.9836C36.6362 42.2592 34.8616 42.9691 34.3241 42.8433C34.0195 42.7727 33.9921 42.3948 33.8702 42.0394C33.6115 41.2765 33.0148 40.063 32.9623 38.9156C32.9005 37.5566 32.7677 35.3363 34.0386 35.3106ZM41.3088 37.2045C41.3837 37.1984 41.4548 37.2006 41.522 37.2105C42.6847 37.3816 42.6005 39.7928 40.7608 39.2175C40.6224 38.4278 40.4622 38.2025 40.524 37.514C40.8204 37.3166 41.0829 37.2225 41.3088 37.2045ZM42.3675 39.9465C43.0336 40.0176 43.5608 40.9363 44.5112 40.8762C44.3587 43.3546 44.4385 45.8418 43.7467 48.1124C42.4577 45.7488 41.6992 42.8952 40.0307 40.8844C40.2068 40.6973 40.3643 40.4901 40.5371 40.2987C41.2929 40.6148 41.7862 39.8841 42.3675 39.9465ZM46.2 40.7351C47.1177 40.728 47.8691 41.3279 48.282 41.9913C46.9891 44.2061 45.7521 46.48 44.2187 48.4334C44.8613 46.5423 45.1369 43.3776 45.2342 40.9648C45.5357 40.8191 45.8652 40.7407 46.2 40.7351ZM39.2164 41.5789C40.7477 43.5225 41.6795 46.0223 42.7055 48.4351C40.2817 47.7045 37.8055 46.5188 35.6814 45.3168C36.0981 43.5099 37.7322 42.5737 39.2164 41.5789ZM55.3552 47.9927C56.0208 48.0091 56.682 48.5494 56.9713 48.9874C57.4941 49.7771 57.9824 52.1019 58.2564 53.3362C58.6649 55.1731 57.7467 56.9614 56.286 57.3158C55.2229 57.5739 53.5921 57.6423 52.8959 57.3059C53.748 56.8406 55.0282 56.8378 56.0142 56.5184C54.6016 55.9103 52.5115 56.4834 50.8129 56.3773C50.6078 54.2801 50.453 52.0062 49.9559 50.3508C50.9474 49.297 53.3427 49.0438 54.7028 48.1737C54.8968 48.0484 55.1244 47.9853 55.3552 47.9927ZM55.2398 49.9494C53.4991 50.0008 52.1391 50.4618 51.3625 51.5561C52.7751 51.6463 53.7923 50.2392 55.2398 49.9494ZM48.382 50.3787C48.5051 50.3841 48.6265 50.3978 48.743 50.4241C49.6683 52.0155 49.8673 54.6618 49.8367 56.5824C49.2598 56.694 48.8852 57.0243 48.1852 57.0024C48.0063 54.8144 47.4983 52.5137 47.2894 50.429C47.623 50.4224 48.0118 50.3634 48.382 50.3787ZM37.6616 50.4022C39.4882 50.3727 41.2601 50.4798 42.7941 50.7992C43.1687 53.2345 43.0292 55.6363 43.3027 58.0234C43.6647 61.1997 43.3934 64.8233 44.0136 67.7994C40.6377 68.8455 36.0347 68.7444 32.2153 67.585C30.4943 62.3115 29.5559 57.3059 28.9084 51.351C31.4169 50.8818 34.6161 50.4514 37.6616 50.4022ZM45.7685 50.6122C46.3717 52.7926 46.3356 55.5669 46.632 58.0316C45.7198 58.2318 45.0527 58.3297 44.071 58.4773C43.8758 55.9169 43.7265 53.3941 43.7615 50.837C44.4571 50.604 45.0707 50.6182 45.7685 50.6122ZM53.6905 51.8678C53.0015 51.8766 52.3813 52.0264 52.1155 52.4322C53.3132 52.5306 54.6979 52.3392 55.878 52.2145C55.3399 52.0286 54.4715 51.8574 53.6905 51.8678ZM53.4931 53.6397C52.8763 53.6473 52.3321 53.7644 52.0527 54.0646C53.3127 54.1702 54.9609 54.1964 56.2871 54.168C55.7495 53.9175 54.5213 53.6266 53.4931 53.6397ZM45.4442 59.5109C45.5733 59.4907 45.6903 59.4863 45.7871 59.512C45.9774 61.1773 46.6375 62.8649 46.5549 64.6888C45.8221 64.9359 45.401 65.1525 44.4183 65.1509C44.3494 63.601 44.1416 61.232 44.2039 59.7543C44.5659 59.7784 45.0576 59.5716 45.4442 59.5109Z" fill="#231F20"/>
<path d="M46.2 40.7345C45.865 40.7401 45.5353 40.8185 45.2337 40.9642C45.1363 43.377 44.8618 46.5418 44.2187 48.4323C45.7526 46.4794 46.9891 44.205 48.2819 41.9907C47.8685 41.3273 47.1176 40.7274 46.2 40.7345ZM39.2164 41.5789C37.7322 42.5742 36.0992 43.5105 35.6819 45.3173C37.806 46.5194 40.2823 47.7045 42.706 48.4351C41.6801 46.0234 40.7482 43.523 39.2164 41.5789Z" fill="#81B0C4"/>
<path d="M43.6499 34.9699C42.9838 35.4047 42.4167 35.9472 41.7774 36.4115C40.3594 36.4815 39.5855 36.3131 38.5437 35.4988C38.5607 35.4331 38.6657 35.4627 38.6695 35.3823C40.1871 36.0588 42.117 35.1066 43.6499 34.9699Z" fill="#F0D6B7"/>
<path d="M43.277 41.9606C43.277 42.097 43.2228 42.2279 43.1263 42.3243C43.0298 42.4208 42.899 42.475 42.7626 42.475C42.6262 42.475 42.4954 42.4208 42.3989 42.3243C42.3025 42.2279 42.2483 42.097 42.2483 41.9606C42.2483 41.8242 42.3025 41.6934 42.3989 41.5969C42.4954 41.5005 42.6262 41.4463 42.7626 41.4463C42.899 41.4463 43.0298 41.5005 43.1263 41.5969C43.2228 41.6934 43.277 41.8242 43.277 41.9606ZM43.7916 44.3455C43.7916 44.482 43.7373 44.6129 43.6408 44.7094C43.5443 44.8059 43.4134 44.8602 43.277 44.8602C43.1405 44.8602 43.0096 44.8059 42.9131 44.7094C42.8166 44.6129 42.7623 44.482 42.7623 44.3455C42.7623 44.2091 42.8166 44.0782 42.9131 43.9817C43.0096 43.8852 43.1405 43.8309 43.277 43.8309C43.4134 43.8309 43.5443 43.8852 43.6408 43.9817C43.7373 44.0782 43.7916 44.2091 43.7916 44.3455Z" fill="#1D1919"/>
</svg>
