<svg width="70" height="70" viewBox="0 0 70 70" fill="none" xmlns="http://www.w3.org/2000/svg">
<path d="M59.0751 8.75H33.7996C33.7996 15.05 38.8987 20.1512 45.2003 20.1512H49.8488V24.6498C49.8488 30.9498 54.95 36.0511 61.25 36.0511V10.9249C61.2496 10.3482 61.0203 9.79528 60.6125 9.3875C60.2047 8.97972 59.6518 8.75043 59.0751 8.75Z" fill="#2684FF"/>
<path d="M46.5506 21.35H21.2745C21.2745 27.6495 26.3741 32.7507 32.6736 32.7507H37.3242V37.2493C37.3242 43.5493 42.4255 48.6505 48.7255 48.6505V23.5244C48.7246 22.9478 48.4952 22.3951 48.0875 21.9874C47.6798 21.5797 47.1271 21.3509 46.5506 21.35Z" fill="url(#paint0_linear_13_214)"/>
<path d="M34.026 33.9489H8.75C8.75 40.2511 13.8491 45.3502 20.1512 45.3502H24.7997V49.8509C24.7997 56.1509 29.9009 61.25 36.2004 61.25V36.126C36.1998 35.5493 35.9706 34.9964 35.563 34.5884C35.1554 34.1804 34.6027 33.9501 34.026 33.9489Z" fill="url(#paint1_linear_13_214)"/>
<defs>
<linearGradient id="paint0_linear_13_214" x1="48.1994" y1="21.3784" x2="37.4456" y2="32.4669" gradientUnits="userSpaceOnUse">
<stop offset="0.176" stop-color="#0052CC"/>
<stop offset="1" stop-color="#2684FF"/>
</linearGradient>
<linearGradient id="paint1_linear_13_214" x1="36.4022" y1="34.0463" x2="23.9684" y2="46.1431" gradientUnits="userSpaceOnUse">
<stop offset="0.176" stop-color="#0052CC"/>
<stop offset="1" stop-color="#2684FF"/>
</linearGradient>
</defs>
</svg>
