<svg width="70" height="70" viewBox="0 0 70 70" fill="none" xmlns="http://www.w3.org/2000/svg">
<path d="M53.5938 0H16.4062C7.34533 0 0 7.34533 0 16.4062V53.5938C0 62.6547 7.34533 70 16.4062 70H53.5938C62.6547 70 70 62.6547 70 53.5938V16.4062C70 7.34533 62.6547 0 53.5938 0Z" fill="#F0DB4F"/>
<path d="M18.4056 58.497L23.7623 55.2552C24.7959 57.0875 25.736 58.6379 27.991 58.6379C30.1525 58.6379 31.5153 57.7924 31.5153 54.5035V32.1368H38.0937V54.5965C38.0937 61.4097 34.0999 64.511 28.2729 64.511C23.0106 64.511 19.956 61.7857 18.4054 58.4965M41.6667 57.7921L47.0228 54.6911C48.4329 56.9937 50.2655 58.6852 53.5074 58.6852C56.2333 58.6852 57.9712 57.3223 57.9712 55.4427C57.9712 53.1874 56.1857 52.3884 53.1784 51.0732L51.5342 50.368C46.7882 48.3479 43.6398 45.8104 43.6398 40.4537C43.6398 35.5198 47.399 31.7606 53.2727 31.7606C57.4547 31.7606 60.462 33.2175 62.6232 37.0234L57.5015 40.3126C56.3735 38.2922 55.1524 37.4935 53.2727 37.4935C51.3461 37.4935 50.1244 38.7152 50.1244 40.3126C50.1244 42.286 51.3461 43.085 54.1652 44.307L55.8097 45.0116C61.4012 47.4083 64.5496 49.8512 64.5496 55.3487C64.5496 61.2697 59.8979 64.5116 53.6485 64.5116C47.5401 64.5116 43.5931 61.5984 41.6667 57.7921Z" fill="#323330"/>
</svg>
