<svg width="70" height="70" viewBox="0 0 70 70" fill="none" xmlns="http://www.w3.org/2000/svg">
<path d="M0 49.9368H2.31984V40.7783L5.91062 48.7616C6.33336 49.7295 6.9125 50.0691 8.05109 50.0691C9.18969 50.0691 9.74531 49.7295 10.168 48.7616L13.7588 40.7783V49.9362H16.0787V40.7936C16.0787 39.9005 15.7221 39.4691 14.9849 39.247C13.2223 38.698 12.0411 39.1721 11.5052 40.3621L7.98273 48.2426L4.57133 40.3621C4.05891 39.1721 2.85414 38.698 1.09375 39.247C0.356562 39.4691 0 39.9005 0 40.7936L0 49.9368ZM18.0086 42.4813H20.3262V47.5273C20.3049 47.8007 20.4138 48.4438 21.6847 48.4652H26.7285V42.4555H29.0527C29.0637 42.4555 29.0484 50.6499 29.0484 50.6844C29.0609 52.7051 26.5426 53.1431 25.3805 53.1776H18.0578V51.6179L25.3936 51.6157C26.8866 51.4598 26.7094 50.7161 26.7094 50.4684V49.8597H21.7809C19.4868 49.8384 18.0277 48.8365 18.0086 47.6848C18.0064 47.5803 18.0578 42.5327 18.0086 42.4813Z" fill="#00618A"/>
<path d="M30.8388 49.9368H37.508C38.2878 49.9368 39.0463 49.7722 39.6484 49.4905C40.6525 49.0312 41.1414 48.4055 41.1414 47.5874V45.8932C41.1414 45.2244 40.5858 44.5988 39.492 44.1842C38.9129 43.96 38.1976 43.8424 37.5074 43.8424H34.6959C33.7602 43.8424 33.314 43.5602 33.203 42.9368C33.1816 42.8619 33.1816 42.8023 33.1816 42.7273V41.6719C33.1816 41.6123 33.1816 41.5521 33.203 41.4777C33.314 41.0036 33.5595 40.8691 34.3842 40.7941L34.6084 40.7794H41.2305V39.235H34.72C33.7843 39.235 33.2932 39.2946 32.8464 39.4275C31.4645 39.859 30.8618 40.5426 30.8618 41.7326V43.085C30.8618 44.1252 32.043 45.0182 34.0277 45.2255L34.6965 45.2555H37.106C37.1957 45.2555 37.2832 45.2555 37.3516 45.2703C38.0866 45.3299 38.3983 45.4645 38.6225 45.7319C38.7379 45.8385 38.8041 45.9906 38.7997 46.1464V47.501C38.7997 47.6634 38.6887 47.8729 38.4666 48.0501C38.2659 48.2295 37.9307 48.347 37.4861 48.3771L37.2405 48.3919H30.8388V49.9368ZM55.6106 47.2451C55.6106 48.8365 56.7941 49.7273 59.1779 49.9067L59.8489 49.9368H65.8924V48.3902H59.8041C58.4434 48.3902 57.9305 48.0484 57.9305 47.2303V39.2317H55.6128V47.2445L55.6106 47.2451ZM42.6223 47.326V41.8124C42.6223 40.413 43.6073 39.5631 45.5509 39.2957C45.7582 39.2657 45.9675 39.2508 46.177 39.2509H50.5777C50.802 39.2509 51.0027 39.2656 51.2274 39.2957C53.1716 39.5626 54.1543 40.413 54.1543 41.8124V47.326C54.1543 48.4624 53.7376 49.0695 52.7745 49.4665L55.0605 51.5282H52.3666L50.5187 49.8597L48.6582 49.9773H46.1781C45.7172 49.9756 45.2587 49.9109 44.8153 49.7848C43.3393 49.3834 42.6234 48.6079 42.6234 47.326H42.6223ZM45.1259 47.1915C45.1259 47.2664 45.1473 47.3408 45.1708 47.431C45.3053 48.072 45.908 48.4285 46.824 48.4285H48.9305L46.9952 46.6813H49.6891L51.3767 48.2065C51.6884 48.0397 51.8913 47.7876 51.9641 47.4611C51.9854 47.3862 51.9854 47.3118 51.9854 47.2369V41.9497C51.9854 41.8901 51.9854 41.8152 51.9641 41.7402C51.8295 41.1441 51.2269 40.8023 50.3322 40.8023H46.8245C45.797 40.8023 45.1265 41.2486 45.1265 41.9497L45.1259 47.1915Z" fill="#E48E00"/>
<path d="M67.9323 36.6663C66.5077 36.628 65.4177 36.7604 64.4864 37.1536C64.2217 37.2646 63.7984 37.2668 63.7558 37.5982C63.9013 37.7519 63.9248 37.9805 64.0402 38.1664C64.2622 38.5273 64.6384 39.008 64.9737 39.2602L66.1079 40.0717C66.8041 40.4966 67.5839 40.7405 68.2571 41.1655C68.6525 41.4176 69.0452 41.7337 69.4318 42.018C69.6221 42.157 69.7501 42.3768 70 42.4643V42.4238C69.8698 42.257 69.8354 42.0284 69.7156 41.8556L69.1879 41.3279C68.6733 40.6443 68.0192 40.0438 67.3231 39.544C66.7674 39.1464 65.5288 38.6083 65.2958 37.963L65.2553 37.9225C65.6485 37.8798 66.1101 37.7366 66.471 37.6403C67.0819 37.4757 67.6266 37.5184 68.2549 37.3559L69.1075 37.1104V36.9502C68.7892 36.6231 68.5628 36.1916 68.2145 35.8947C67.3088 35.1236 66.3173 34.3503 65.2963 33.705C64.7303 33.3484 64.032 33.1177 63.4315 32.8141C63.2308 32.7119 62.8759 32.6605 62.7413 32.4893C62.4274 32.0879 62.2563 31.5793 62.0129 31.1112L60.5538 28.0306C60.2465 27.3279 60.0452 26.6334 59.6608 26.0034C57.8216 22.9764 55.8392 21.1498 52.7691 19.3555C52.1177 18.9733 51.3291 18.8234 50.5006 18.6271L49.1613 18.5462C48.8901 18.4308 48.6079 18.0977 48.352 17.9375C47.3353 17.2944 44.7267 15.8977 43.9726 17.7346C43.4984 18.8945 44.6841 20.0266 45.109 20.6145C45.4059 21.0268 45.7882 21.4884 45.9998 21.9516C46.1409 22.2551 46.1645 22.5602 46.2842 22.8829C46.579 23.6775 46.8355 24.5405 47.2177 25.2755C47.4102 25.6473 47.6213 26.0384 47.8652 26.3692C48.0145 26.5721 48.271 26.664 48.3115 26.9779C48.0616 27.3284 48.0468 27.8709 47.9057 28.315C47.2713 30.3122 47.5103 32.7945 48.4334 34.2748C48.7156 34.7277 49.3817 35.7016 50.2983 35.3281C51.0995 35.0011 50.9201 33.991 51.1487 33.098C51.2023 32.8973 51.17 32.7474 51.2706 32.6129V32.6534L52.0013 34.1124C52.5416 34.982 53.4986 35.8898 54.3107 36.5028C54.7334 36.8211 55.0648 37.3723 55.6095 37.5583V37.5156H55.5691C55.4624 37.3532 55.2978 37.2848 55.1633 37.1525C54.845 36.8408 54.4923 36.4541 54.232 36.097C53.4926 35.0952 52.8391 33.997 52.2452 32.8541C51.9608 32.3094 51.7131 31.7067 51.4741 31.1516C51.3822 30.9378 51.3844 30.6135 51.1919 30.5041C50.9294 30.9099 50.5427 31.2391 50.3393 31.7198C50.0145 32.4866 49.974 33.4245 49.852 34.3946L49.7711 34.4351C49.2073 34.2984 49.0082 33.7176 48.7993 33.2194C48.2672 31.9588 48.1693 29.9272 48.6369 28.4769C48.7566 28.1012 49.3035 26.9172 49.0815 26.5716C48.977 26.2254 48.6287 26.0247 48.434 25.76C48.1795 25.4051 47.9619 25.025 47.7848 24.6258C47.3512 23.6409 47.1483 22.5389 46.6911 21.5452C46.4734 21.0689 46.1038 20.5882 45.8002 20.1655C45.4628 19.6979 45.0866 19.3539 44.8263 18.7873C44.7344 18.5866 44.6086 18.264 44.7453 18.0567C44.788 17.9178 44.852 17.8604 44.9887 17.8155C45.2238 17.634 45.8795 17.8752 46.1229 17.9758C46.7742 18.247 47.3173 18.5035 47.868 18.8688C48.1305 19.0438 48.3979 19.3834 48.7184 19.4775H49.0837C49.6541 19.6077 50.2928 19.5158 50.8271 19.6782C51.7694 19.9642 52.6154 20.411 53.3799 20.8961C55.7167 22.3699 57.627 24.4699 58.934 26.9757C59.1456 27.3793 59.2353 27.7637 59.4213 28.1914C59.7953 29.0544 60.2651 29.943 60.637 30.7869C61.0088 31.6307 61.3698 32.4789 61.8931 33.1795C62.1688 33.547 63.2346 33.7433 63.7175 33.9484C64.0571 34.0916 64.6127 34.2409 64.9332 34.4356C65.5484 34.8053 66.1423 35.245 66.7193 35.6513C67.0053 35.8564 67.8902 36.301 67.935 36.6658L67.9323 36.6663ZM49.8105 21.2215C49.5652 21.2173 49.3204 21.2445 49.082 21.3024V21.3429H49.1225C49.2636 21.6355 49.5135 21.8236 49.6885 22.0735L50.0943 22.9239L50.1348 22.8856C50.3869 22.7084 50.5001 22.4241 50.5001 21.9926C50.3978 21.8859 50.3847 21.7536 50.2972 21.6273C50.1818 21.4583 49.9581 21.3648 49.8105 21.2215Z" fill="#00618A"/>
</svg>
