<svg width="70" height="70" viewBox="0 0 70 70" fill="none" xmlns="http://www.w3.org/2000/svg">
<path d="M39.4882 6.7025C39.3597 6.685 37.2854 7.43368 35.9477 7.97672C34.1419 8.71336 32.7398 9.415 31.8746 10.022C31.588 10.2255 31.249 10.5596 31.1314 10.7434L31.1259 10.7291C31.1259 10.7291 31.115 10.7641 31.1095 10.774C31.1041 10.7849 31.0904 10.8013 31.0866 10.8106C31.0621 10.874 31.0497 10.9413 31.0499 11.0091L31.0696 11.0272C31.0745 11.0901 31.0898 11.1606 31.1205 11.2377C31.197 11.4248 31.4185 11.6523 31.6695 11.8863C31.6695 11.8863 34.2699 14.4216 34.5855 14.7837C36.0227 16.4434 36.6488 18.0791 36.7073 20.3345C36.7423 21.7837 36.4673 23.0584 35.7842 24.5366C34.5691 27.1895 32.0037 30.1164 28.0476 33.3648L28.1044 33.3457C28.0804 33.3648 28.041 33.3998 28.018 33.4184C27.5445 33.7925 26.8434 34.4931 26.4868 34.9371C25.9552 35.6032 25.5352 36.3109 25.3537 36.8545C25.0327 37.8361 25.1896 38.8287 25.8092 39.7458C26.6038 40.9145 28.1881 42.1072 30.0344 42.9193C30.975 43.3338 32.5582 43.8654 33.7504 44.1634C35.7312 44.6666 39.5648 45.2096 41.6735 45.2916C42.1001 45.3091 42.6726 45.3091 42.6962 45.2916C42.7426 45.2621 43.0702 44.6376 43.4498 43.8599C44.7469 41.213 45.6821 38.7297 46.1907 36.6084C46.4942 35.3232 46.7337 33.6109 46.8912 31.5831C46.9328 31.0166 46.9498 29.1178 46.9148 28.4752C46.8617 27.4236 46.7682 26.5699 46.6222 25.7343C46.6052 25.6446 46.608 25.6009 46.6096 25.5604C51.3056 24.1653 56.4862 22.9015 59.9277 22.3748L60.4581 22.2928L60.3772 22.1648C59.9096 21.4402 59.5886 20.9891 59.2025 20.51C58.0809 19.1193 56.7191 17.9916 55.0539 17.057C52.763 15.7773 49.8006 14.7782 46.0496 14.0361C45.343 13.8961 43.7899 13.6276 42.5277 13.4345L42.4096 13.2245C41.72 12.0094 40.9604 10.5016 40.5174 9.485C40.1723 8.69641 39.8448 7.78422 39.6637 7.12961C39.5642 6.73258 39.5522 6.70907 39.4887 6.7036L39.4882 6.7025ZM39.3941 7.00055H39.4007C39.4062 7.00602 39.4297 7.17118 39.4532 7.36368C39.5565 8.20105 39.7466 9.02543 40.0203 9.82352C40.2363 10.4666 40.2363 10.4306 39.9848 10.354C39.3892 10.191 36.7183 9.73055 34.784 9.46149C34.4744 9.42047 34.2119 9.37946 34.2119 9.37399C34.1879 9.35047 35.6087 8.60836 36.2337 8.31633C37.0344 7.94828 39.2301 7.03008 39.3941 7.00055ZM33.7624 9.61844L33.9899 9.69446C35.2286 10.1155 38.343 10.7116 40.0608 10.8522C40.2533 10.8697 40.4173 10.8866 40.4228 10.8866C40.4288 10.8921 40.2659 10.9802 40.0553 11.0797C39.2461 11.4844 38.4542 11.9231 37.6819 12.3944C37.5712 12.4669 37.4557 12.532 37.3362 12.5891C37.1439 12.5579 36.9516 12.5265 36.7593 12.495L36.2102 11.9569C35.4995 11.2646 34.7845 10.5766 34.0654 9.89297L33.7624 9.61844ZM33.5284 9.8L34.3519 10.8287C34.8015 11.3952 35.2576 11.9498 35.3571 12.0728C35.4462 12.1833 35.5048 12.2566 35.5152 12.2779C34.9333 12.1767 34.3104 12.0712 33.8313 11.9684C33.4813 11.8918 32.8098 11.7338 32.2837 11.5527C32.2255 11.5304 32.1672 11.5085 32.1087 11.4871V11.4248C32.1141 11.0332 32.6107 10.4481 33.4523 9.8525L33.5284 9.8ZM40.5284 11.2027C40.5524 11.2027 40.5814 11.2552 40.6514 11.4127C40.8499 11.8513 41.4695 13.0315 41.6216 13.2595L41.6407 13.2907C40.5375 13.1161 39.4352 12.9364 38.3337 12.7515C38.3675 12.7238 38.4041 12.7 38.4431 12.6804C39.0746 12.3272 39.671 11.9146 40.2243 11.4483C40.3588 11.3373 40.4813 11.2323 40.5054 11.2142C40.5109 11.2027 40.5223 11.1967 40.5284 11.2027ZM32.6342 12.1893C32.6397 12.1838 32.7337 12.2188 32.8562 12.2604C33.0783 12.3359 33.3648 12.4239 33.7039 12.5174C33.9603 12.5878 34.2173 12.6558 34.475 12.7214C34.825 12.8089 35.1176 12.8909 35.123 12.8909C35.1641 12.932 35.7541 14.8187 35.9526 15.5433C36.0287 15.8184 36.0883 16.0519 36.0823 16.0519C36.0762 16.0573 36.0112 15.9589 35.9357 15.8244C35.2521 14.6207 34.1709 13.3995 32.9202 12.4179C32.8193 12.349 32.7237 12.2726 32.6342 12.1893ZM35.5031 12.979C35.5031 12.9905 35.5026 12.9845 35.5086 12.9845C35.5381 12.9845 35.6672 13.0025 35.8247 13.0375C36.8184 13.2595 38.6001 13.598 39.7392 13.7905C39.9323 13.8201 40.0843 13.8545 40.0843 13.8666C40.0843 13.8781 40.0143 13.9191 39.9262 13.9656C39.509 14.1975 39.0997 14.4433 38.6991 14.7027C38.0505 15.1348 37.4664 15.6023 37.0453 16.0229C36.9413 16.1272 36.8363 16.2306 36.7303 16.333C36.7303 16.333 36.6959 16.2329 36.6663 16.1104C36.4563 15.2983 36.0172 14.0952 35.6196 13.2481C35.5755 13.1608 35.5366 13.0709 35.5031 12.979ZM40.5694 13.9486C40.6044 13.9606 40.6629 14.1586 40.7799 14.5972C40.9991 15.4716 41.0935 16.3727 41.0605 17.2736C41.049 17.5191 41.0369 17.7466 41.0255 17.7756L41.0074 17.8347L40.7039 17.7352C39.8696 17.476 39.0317 17.2286 38.1905 16.993C37.6939 16.8585 37.2914 16.736 37.2914 16.7251C37.2914 16.6895 38.0155 15.9644 38.325 15.6898C38.9156 15.1698 40.5163 13.9311 40.5694 13.9486ZM40.973 14.0077C40.9921 13.9902 43.3912 14.4047 44.4839 14.6147C45.296 14.7733 46.4762 15.0177 46.5462 15.0467C46.5812 15.0588 46.4587 15.1288 46.0671 15.3038C44.5249 15.9994 43.3803 16.625 42.2406 17.3846C41.9426 17.5831 41.6916 17.7466 41.6855 17.7466C41.6795 17.7466 41.6735 17.5771 41.6735 17.3731C41.6735 16.263 41.4515 15.1413 41.0424 14.1941C41.0014 14.1012 40.9669 14.0137 40.973 14.0077ZM47.1838 15.2348C47.2019 15.2523 47.1248 15.7243 47.0548 16.0048C46.8448 16.8755 46.2782 18.1677 45.5831 19.3834C45.4601 19.5995 45.3491 19.7745 45.337 19.7805C45.3255 19.7865 45.168 19.6984 44.987 19.5923C44.3089 19.1953 43.5378 18.8213 42.6956 18.4713C42.4621 18.3717 42.2576 18.2908 42.2516 18.2788C42.2105 18.2438 44.0929 16.9991 45.0866 16.403C45.8752 15.9239 47.1609 15.2108 47.1838 15.2348ZM47.6273 15.3043C47.6798 15.3043 48.7441 15.5969 49.2991 15.7604C50.6718 16.1695 52.249 16.7475 53.2776 17.2151L53.7042 17.4081L53.4067 17.4776C50.8944 18.0562 48.7435 18.7223 46.6692 19.5639C46.5598 19.6114 46.4485 19.6545 46.3356 19.693C46.3247 19.693 46.3827 19.5573 46.4587 19.3938C47.0837 18.0677 47.4873 16.6835 47.5869 15.5028C47.5923 15.3918 47.6098 15.3043 47.6273 15.3043ZM37.0398 17.7352C37.0579 17.7177 37.87 17.9102 38.308 18.0332C38.9741 18.2202 40.3878 18.6927 40.3878 18.7283C40.3878 18.7343 40.2303 18.8683 40.0433 19.0318C39.2777 19.6689 38.541 20.3416 37.6589 21.1947C37.3959 21.4463 37.1744 21.6497 37.1629 21.6497C37.1514 21.6497 37.1454 21.6141 37.1514 21.5677C37.2859 20.586 37.2559 19.3244 37.0694 18.0447C37.0513 17.8812 37.0338 17.7412 37.0398 17.7352ZM54.1078 17.7521C54.1187 17.7636 53.7332 18.3717 53.4882 18.7168C53.1377 19.2194 52.6241 19.886 51.4609 21.3462C50.9485 21.9893 50.4381 22.6341 49.9297 23.2805C49.6956 23.5725 49.5031 23.8186 49.4971 23.8186C49.4916 23.8186 49.4156 23.7136 49.3336 23.5845C48.6795 22.6034 47.8953 21.7443 46.9667 20.9732C46.8251 20.8531 46.6811 20.7358 46.5347 20.6216C46.4919 20.5933 46.4526 20.56 46.4176 20.5226C46.4176 20.5051 47.4113 20.0785 48.1649 19.7745C49.6331 19.1841 51.1239 18.6517 52.634 18.1787C53.3416 17.9572 54.0952 17.7412 54.1073 17.7527L54.1078 17.7521ZM54.5573 17.8697C54.5803 17.8642 54.7214 17.9342 54.8909 18.0332C56.3106 18.8453 57.7013 19.8915 58.8 20.9661C59.1095 21.2702 59.8751 22.0653 59.8637 22.0708C59.8637 22.0708 59.5946 22.0943 59.2796 22.1178C56.8192 22.3048 53.6698 22.8238 50.6428 23.5545C50.5108 23.5863 50.3783 23.6158 50.2452 23.6431C50.2337 23.6431 50.4618 23.4145 50.7484 23.1399C52.5246 21.4277 53.3367 20.347 54.2943 18.4188C54.4288 18.1327 54.5464 17.8877 54.5573 17.8697ZM41.5444 19.2019C41.6265 19.2194 42.3861 19.5754 42.9587 19.862C43.4848 20.1245 44.2744 20.5455 44.3149 20.5805C44.3209 20.586 44.0404 20.7326 43.6959 20.9021C42.6658 21.4143 41.6579 21.9699 40.6749 22.5673C40.3944 22.7369 40.1609 22.8769 40.1548 22.8769C40.1313 22.8769 40.1368 22.8534 40.2948 22.5673C40.8209 21.6092 41.2409 20.4641 41.4805 19.3479C41.504 19.2604 41.5269 19.2019 41.5444 19.2019ZM40.7848 19.3413C40.8023 19.3594 40.6044 20.078 40.4819 20.4695C40.2091 21.2898 39.863 22.0837 39.4477 22.8419C39.3542 23.0059 39.2142 23.2449 39.1382 23.3789L38.9916 23.613L38.6646 23.298C38.2851 22.9299 37.9744 22.7013 37.5774 22.4968C37.4199 22.4148 37.2974 22.3448 37.2974 22.3333C37.2974 22.2868 38.2966 21.3817 39.0622 20.7271C39.6112 20.2535 40.7673 19.3244 40.7848 19.3413ZM45.43 21.2527L45.7177 21.4391C46.4169 21.8975 47.0897 22.3951 47.7329 22.9294C48.0665 23.2039 48.7091 23.7825 48.8376 23.9225L48.907 23.9991L48.434 24.1331C45.7576 24.8752 43.6898 25.5358 41.2765 26.4245C41.0074 26.5229 40.7799 26.6049 40.7624 26.6049C40.7274 26.6049 40.6979 26.6345 41.3 26.0794C42.8422 24.6597 44.2094 23.0934 45.2266 21.5688L45.43 21.2527ZM44.2094 21.5567C44.2214 21.5688 43.4208 22.6964 42.9417 23.333C42.2002 24.3049 41.4362 25.2594 40.6503 26.1959C40.3588 26.5404 40.1078 26.8264 40.0963 26.8324C40.0783 26.8379 40.0728 26.7504 40.0728 26.6164C40.0728 25.9093 39.8912 25.1563 39.5757 24.5131C39.4417 24.2452 39.4182 24.1795 39.4477 24.15C39.5587 24.0516 41.259 23.0814 42.3336 22.5034C43.0587 22.1178 44.1919 21.5447 44.2094 21.5567ZM36.8233 23.3669C36.8413 23.3669 36.9764 23.438 37.1279 23.52C37.4835 23.7135 37.8201 23.9402 38.133 24.197C38.144 24.2091 37.993 24.3321 37.794 24.4781C37.1549 24.9397 36.5258 25.415 35.9073 25.9038C35.3926 26.3129 35.3746 26.3249 35.4326 26.2374C35.8187 25.6468 36.0112 25.3132 36.2157 24.8872C36.4039 24.4906 36.5679 24.083 36.7068 23.6666C36.7533 23.497 36.8118 23.3669 36.8233 23.3669ZM38.7811 24.9107H38.7931C38.8221 24.9052 38.8577 24.9566 39.0152 25.1907C39.3482 25.6867 39.6058 26.3534 39.6698 26.8915L39.6818 27.0085L38.8806 27.3181C37.4489 27.8731 36.1282 28.4216 35.2341 28.8307C34.9078 28.984 34.5828 29.1399 34.259 29.2983C33.9724 29.4443 33.7389 29.5553 33.7389 29.5498C33.7389 29.5438 33.9199 29.4098 34.1425 29.2463C35.8898 27.9781 37.4019 26.588 38.5355 25.1967C38.6586 25.0513 38.7691 24.9167 38.7811 24.9107ZM37.8869 25.1327C37.9105 25.1568 37.2449 25.9093 36.7894 26.3709C35.6617 27.522 34.5444 28.4216 33.1598 29.2983C32.9848 29.4093 32.8273 29.5088 32.8098 29.5209C32.7687 29.5438 32.8212 29.4859 33.4288 28.8252C33.7852 28.4427 34.1225 28.0428 34.4394 27.627C34.6615 27.3405 34.703 27.3006 35.0246 27.0725C35.8832 26.4529 37.864 25.1092 37.8869 25.1327ZM45.7111 25.8295C45.7893 26.0236 45.9534 27.6188 45.9977 28.6841C46.0091 28.9242 46.0037 29.0828 45.9922 29.0828C45.9451 29.0828 45.004 28.5272 44.3324 28.1066C43.75 27.7402 42.6502 27.0107 42.4681 26.8663C43.5436 26.5037 44.6247 26.158 45.7111 25.8295ZM41.8403 27.0895C41.9169 27.1223 42.0317 27.1857 42.2641 27.329C43.4673 28.0826 45.1041 28.9948 45.8052 29.2983C46.0212 29.3918 46.0447 29.3568 45.5481 29.6959C44.4844 30.4205 43.1583 31.1341 41.5341 31.8522C41.3585 31.9322 41.1811 32.0081 41.0019 32.0797C40.9905 32.0797 41.0249 31.9337 41.0714 31.7587C41.463 30.3034 41.6855 28.8313 41.697 27.6506C41.7003 27.3563 41.7014 27.2114 41.7091 27.1365L41.8403 27.0895ZM40.944 27.4088C40.9746 27.5166 40.9533 28.7191 40.9079 29.0648C40.8034 29.9261 40.6237 30.7766 40.3709 31.6066C40.3063 31.8227 40.2478 32.0042 40.2358 32.0157C40.2123 32.0447 39.4127 31.2621 39.1497 30.9586C38.6941 30.4325 38.337 29.9064 38.074 29.3923C37.9477 29.1446 37.7661 28.7011 37.759 28.6333C38.5875 28.2964 39.4444 27.9606 40.3473 27.6216C40.5327 27.5521 40.7509 27.4794 40.944 27.4088ZM37.147 28.8892C37.1618 28.9122 37.1946 28.9866 37.2269 29.0828C37.4139 29.5914 37.8344 30.3395 38.197 30.8186C38.5941 31.3441 39.1147 31.9041 39.5473 32.2722C39.6873 32.3892 39.8152 32.5002 39.8322 32.5183C39.8677 32.5527 39.8803 32.5478 38.9277 32.9098C37.8235 33.3309 36.6198 33.7504 35.2406 34.195C34.9109 34.3011 34.5815 34.4081 34.2524 34.516C34.1999 34.5335 34.218 34.5051 34.37 34.2656C35.0536 33.1964 36.0937 31.0991 36.6778 29.6149C36.7773 29.3573 36.8763 29.0992 36.8938 29.0407C36.9009 29.0161 36.9124 29.0024 36.9212 28.986C36.9977 28.9532 37.0699 28.9215 37.147 28.8892ZM35.9275 29.4109C35.9012 29.5039 35.6502 30.0316 35.3806 30.561C34.8135 31.6657 34.1939 32.7518 33.3648 34.072C33.2243 34.3 33.0898 34.5111 33.0723 34.5346C33.0427 34.5751 33.0323 34.5641 32.9388 34.3826C32.7403 33.991 32.5757 33.4879 32.4877 33.0263C32.4002 32.5702 32.4187 31.7762 32.5177 31.2851C32.562 31.074 32.5817 30.9914 32.6227 30.9389C33.7106 30.4004 34.8126 29.8909 35.9275 29.4109ZM46.0327 29.7598V30.0059C46.0327 31.3086 45.8921 33.0969 45.6881 34.4001C45.6526 34.6276 45.6236 34.8146 45.6181 34.8212C45.6181 34.8212 45.4486 34.7736 45.2495 34.7151C44.3182 34.4192 43.4178 34.0335 42.5611 33.5634C41.9945 33.2544 41.1709 32.7463 41.1939 32.7228C41.1999 32.7173 41.446 32.5888 41.7326 32.4368C42.8777 31.8407 43.9753 31.1981 44.928 30.561C45.2845 30.3215 45.8216 29.9359 45.9386 29.8304L46.0327 29.7598ZM31.5437 31.5011C31.5591 31.5109 31.5547 31.5585 31.5235 31.7466C31.4943 31.9545 31.4729 32.1634 31.4595 32.3728C31.4125 33.2259 31.5536 33.857 31.9741 34.7211C32.0912 34.9612 32.1841 35.1586 32.1781 35.1646C32.1371 35.2002 28.2702 36.3333 27.0539 36.6663C26.6919 36.7653 26.3763 36.8539 26.3528 36.8599C26.3123 36.8714 26.3063 36.8654 26.3238 36.7659C26.4584 35.9073 27.1124 34.7856 28.0246 33.839C28.6316 33.2079 29.1162 32.8393 29.9458 32.3663C30.3296 32.1493 30.7161 31.9371 31.1052 31.7297C31.2479 31.6531 31.3983 31.5771 31.5437 31.5011ZM40.6569 33.1198C40.6623 33.1144 40.8029 33.1909 40.9719 33.2899C42.2226 34.0145 43.9644 34.6861 45.4486 35.0312L45.5831 35.0602L45.395 35.1646C44.6184 35.5966 42.0645 36.6603 39.4532 37.6365C39.0731 37.7765 38.7002 37.917 38.6296 37.946C38.5596 37.9756 38.4951 37.993 38.4951 37.9876C38.4951 37.9821 38.6001 37.7776 38.7341 37.526C39.4647 36.1588 40.2002 34.4931 40.5748 33.3359C40.6213 33.2248 40.6509 33.1259 40.6569 33.1198ZM39.7272 33.4234C39.7337 33.4294 39.6867 33.5524 39.6287 33.693C39.1201 34.9256 38.4535 36.2698 37.6009 37.777C37.3844 38.1631 37.2044 38.4727 37.1984 38.4727C37.1924 38.4727 37.0169 38.3671 36.8063 38.2386C35.5671 37.4784 34.469 36.5444 33.7504 35.6388L33.6448 35.5097L34.1764 35.3631C36.0817 34.8436 37.6994 34.2825 39.3066 33.5934C39.5347 33.4999 39.7223 33.4239 39.7277 33.4239L39.7272 33.4234ZM45.5005 35.4402C45.506 35.5759 45.2085 36.7779 44.9635 37.648C44.7444 38.4238 44.5105 39.1954 44.2619 39.9623C44.1219 40.407 43.9994 40.7745 43.9939 40.7745C43.9678 40.7716 43.9422 40.766 43.9173 40.7575C42.1821 40.442 40.6273 40.0028 39.1666 39.4188C38.7576 39.2552 38.1735 38.9922 38.1385 38.9627C38.1265 38.9512 38.4776 38.7877 38.9211 38.5952C41.58 37.4325 44.3384 36.1118 45.2851 35.5447C45.3955 35.4747 45.483 35.4402 45.5005 35.4402ZM32.1732 35.8952C32.1841 35.9073 31.442 36.9759 30.4019 38.4311C30.0398 38.9397 29.6198 39.5352 29.4618 39.7573C29.2793 40.0147 29.1021 40.2758 28.9302 40.5404L28.6841 40.9205L28.4216 40.6984C28.1121 40.4414 27.574 39.8923 27.3345 39.5883C26.8313 38.9632 26.4934 38.3031 26.3588 37.7016C26.2943 37.421 26.2943 37.2805 26.3528 37.2635C26.4403 37.24 28.0011 36.872 29.4618 36.5329C30.1596 36.3721 30.8566 36.2084 31.553 36.0418C31.8921 35.9598 32.1677 35.8952 32.1732 35.8952ZM32.9202 36.1813L33.1073 36.3918C33.9489 37.3324 34.808 38.0286 35.8482 38.6362C36.0347 38.7412 36.1752 38.8341 36.1632 38.8402C36.1222 38.8697 32.5522 40.1373 30.8984 40.7105C30.3328 40.9106 29.7658 41.1071 29.1977 41.3C29.1922 41.3 29.1402 41.265 29.0817 41.224L28.9762 41.148L29.1457 40.9024C29.6948 40.1078 30.3844 39.2372 31.8866 37.4259L32.9202 36.1813ZM37.584 39.5183C37.5894 39.5128 37.8465 39.6058 38.1615 39.7223C38.9216 40.0088 39.5232 40.1898 40.3298 40.3944C41.3235 40.6459 42.7607 40.8909 43.6078 40.9615C43.7363 40.9724 43.8063 40.9855 43.7828 41.003C43.7423 41.0266 42.8827 41.3126 42.2516 41.5116C41.2464 41.8266 38.1795 42.7323 35.6781 43.4509C35.2166 43.5854 34.8195 43.697 34.796 43.7024C34.738 43.7139 34.545 43.6609 34.545 43.6379C34.545 43.6264 34.6855 43.4448 34.8551 43.2458C35.706 42.2285 36.4979 41.1633 37.2269 40.0553C37.4199 39.7633 37.584 39.5243 37.584 39.5183ZM36.5553 39.5473V39.5484C36.5608 39.5538 36.1451 40.2199 35.4211 41.3651C35.1116 41.8496 34.767 42.3992 34.6445 42.5923C34.5275 42.7793 34.3514 43.0708 34.2524 43.2343L34.0834 43.5323L33.9959 43.5088C33.7859 43.4503 32.3066 42.9308 31.9156 42.7727C31.4514 42.5882 30.9971 42.3797 30.5544 42.1482C30.0869 41.8966 29.5028 41.522 29.5493 41.5106C29.5613 41.5045 30.3609 41.288 31.3244 41.0255C33.8838 40.3298 35.3046 39.9268 36.2337 39.6348C36.4033 39.5823 36.5493 39.5413 36.5553 39.5473ZM43.8304 41.2535H43.8359C43.8588 41.312 42.9127 43.9414 42.5676 44.771C42.4922 44.958 42.4621 45.0045 42.4216 44.9985C42.3221 44.993 40.9489 44.8011 40.1133 44.6786C38.6586 44.4566 36.2157 44.0289 35.6026 43.8889L35.4627 43.8588L36.3333 43.662C38.2036 43.2409 39.1021 43.0128 40.0137 42.7323C41.1908 42.372 42.3409 41.9286 43.4552 41.4055C43.6362 41.3235 43.7888 41.259 43.8304 41.2535ZM20.7495 44.0809C20.5089 44.0809 20.312 44.1536 20.1502 44.3051C19.962 44.4839 19.8619 44.7152 19.8619 45.0297V45.488H19.3895V45.8637H19.8619V48.2727L19.8647 48.2716H20.3126V45.8533H20.9661V45.477H20.3126V45.0456C20.3126 44.6529 20.4635 44.4571 20.778 44.4571C20.8835 44.4571 20.9918 44.4839 21.0716 44.5288V44.1252C20.9918 44.0891 20.8841 44.0814 20.749 44.0814L20.7495 44.0809ZM5.59836 44.187C5.56044 44.186 5.52273 44.1927 5.48749 44.2067C5.45224 44.2207 5.4202 44.2417 5.39328 44.2684C5.36527 44.295 5.34285 44.3268 5.32735 44.3621C5.31186 44.3974 5.30359 44.4355 5.30304 44.4741C5.30304 44.5632 5.33039 44.6255 5.39328 44.6791C5.44848 44.7319 5.52197 44.7613 5.59836 44.7612H5.59945C5.63742 44.7622 5.6752 44.7555 5.71047 44.7414C5.74574 44.7273 5.77775 44.7061 5.80453 44.6791C5.83275 44.6529 5.85534 44.6212 5.87095 44.5859C5.88655 44.5507 5.89484 44.5126 5.89531 44.4741C5.89686 44.4353 5.88965 44.3967 5.87422 44.3611C5.85879 44.3255 5.83553 44.2938 5.80617 44.2684C5.77871 44.2417 5.74618 44.2207 5.71049 44.2067C5.6748 44.1927 5.63668 44.186 5.59836 44.187ZM43.8719 44.2329V44.3581H44.2028V45.3622H44.328V44.3581H44.66V44.2329H43.8719ZM44.8301 44.2329V45.3622H44.9548V44.6086L44.9635 44.6064C44.9635 44.5096 44.9635 44.4292 44.9559 44.3838C44.9641 44.4369 44.9832 44.4735 44.9914 44.5003L45.3759 45.3616H45.4376L45.8243 44.4921C45.8352 44.4659 45.8429 44.4298 45.8598 44.3838C45.8535 44.4557 45.8505 44.5277 45.8511 44.5998V45.36H45.9845V44.2323H45.8243L45.4743 45.0111C45.4661 45.0384 45.4387 45.0926 45.4218 45.1544H45.4098C45.4032 45.1183 45.3857 45.0816 45.36 45.0204L45.01 44.2329H44.8301ZM0.407418 44.3598V48.2738H0.847106V45.6504L0.854762 45.6482C0.854762 45.2982 0.843825 45.0379 0.835621 44.8853H0.843825C0.879371 45.0658 0.924215 45.2009 0.960309 45.29L2.29468 48.2727H2.5189L3.85382 45.2638C3.89047 45.1817 3.92601 45.0581 3.97031 44.8864H3.98015C3.95703 45.1404 3.94517 45.3953 3.94461 45.6504V48.2809H4.40179V44.3696H3.82812L2.60093 47.0914C2.55554 47.1991 2.4932 47.3594 2.41281 47.5738H2.39531C2.34822 47.4144 2.2886 47.2589 2.21703 47.1089L1.01664 44.3598H0.407418ZM22.1462 44.6529C21.9931 44.7059 21.8422 44.7513 21.6989 44.7956V45.4765H21.2177V45.8522H21.6989V47.5092H21.7011C21.7011 48.0561 21.9417 48.335 22.435 48.335C22.6138 48.335 22.7478 48.306 22.8561 48.242V47.8581C22.7729 47.9193 22.6717 47.9513 22.5684 47.9489C22.4164 47.9489 22.3092 47.9123 22.2469 47.8313C22.1829 47.7509 22.1462 47.6159 22.1462 47.4288V45.8522H22.8555V45.4765H22.1462V44.6529ZM23.993 44.8952C23.7672 44.8952 23.5812 44.9673 23.4292 45.1194C23.275 45.2714 23.205 45.4584 23.205 45.6739C23.205 45.8998 23.2772 46.0868 23.4292 46.2284C23.573 46.3723 23.7595 46.4439 23.9837 46.4439V46.4461C24.2074 46.4461 24.3939 46.3739 24.547 46.2197C24.6222 46.1484 24.6817 46.0623 24.7219 45.9669C24.7621 45.8715 24.7821 45.7687 24.7805 45.6652C24.7805 45.4409 24.7002 45.255 24.5476 45.1112C24.4741 45.0402 24.3872 44.9846 24.292 44.9475C24.1968 44.9104 24.0952 44.8926 23.993 44.8952ZM23.993 44.9761C24.1883 44.9761 24.3512 45.039 24.4869 45.1719C24.6203 45.3059 24.692 45.4683 24.692 45.6652C24.6933 45.7582 24.6759 45.8505 24.6406 45.9366C24.6054 46.0227 24.5531 46.1007 24.4869 46.1661C24.4223 46.2307 24.3451 46.2815 24.2602 46.3154C24.1753 46.3492 24.0844 46.3654 23.993 46.363C23.7951 46.363 23.6337 46.3017 23.5009 46.1661C23.4347 46.1007 23.3824 46.0227 23.3471 45.9366C23.3119 45.8505 23.2944 45.7582 23.2958 45.6652C23.2958 45.4683 23.3559 45.3059 23.4899 45.1719C23.6234 45.039 23.7858 44.9761 23.993 44.9761ZM23.6611 45.1549V46.1579H23.8044V45.7368L23.8208 45.7379H23.9121C23.9761 45.7379 24.039 45.7991 24.0926 45.9162L24.2003 46.1579H24.3693L24.2359 45.8883C24.1812 45.7806 24.1287 45.7188 24.0663 45.7018C24.1451 45.6832 24.208 45.6564 24.2523 45.6034C24.2739 45.5788 24.2905 45.5502 24.301 45.5193C24.3115 45.4883 24.3158 45.4555 24.3135 45.4229C24.3158 45.3873 24.3098 45.3517 24.2959 45.3189C24.2821 45.286 24.2607 45.2569 24.2337 45.2337C24.1719 45.1823 24.0734 45.1549 23.946 45.1549H23.6611ZM23.8197 45.2714H23.9471C24.0373 45.2714 24.1008 45.2895 24.1363 45.3163C24.1697 45.3425 24.1801 45.3775 24.1801 45.4409C24.1801 45.5574 24.1073 45.6121 23.9739 45.6121H23.8202L23.8197 45.2714ZM12.3698 45.4048C11.9487 45.4048 11.6096 45.5306 11.358 45.7729C11.0895 46.0398 10.9473 46.4177 10.9473 46.9011C10.9473 47.3222 11.0622 47.6711 11.305 47.9309C11.5555 48.1999 11.8874 48.3345 12.308 48.3345L12.3069 48.3356C12.728 48.3356 13.067 48.1999 13.3186 47.9309C13.5691 47.664 13.6943 47.3041 13.6943 46.8563C13.6943 46.3996 13.5794 46.0502 13.3448 45.7898C13.1124 45.5306 12.7909 45.4048 12.3698 45.4048ZM17.7887 45.4048L17.7866 45.4059C17.3655 45.4059 17.0264 45.5312 16.7748 45.7734C16.508 46.0409 16.3647 46.4177 16.3647 46.9011C16.3647 47.3222 16.4801 47.6711 16.7212 47.9309C16.9728 48.1999 17.3042 48.3345 17.7253 48.3345C18.1562 48.3345 18.4855 48.1988 18.737 47.9298C18.9886 47.6618 19.1144 47.3031 19.1144 46.8552C19.1144 46.3985 18.9962 46.0496 18.7638 45.7888C18.5221 45.5295 18.1994 45.4048 17.7887 45.4048ZM7.96304 45.4059C7.5157 45.4059 7.16625 45.5492 6.90539 45.827C6.64672 46.1038 6.51328 46.4805 6.51328 46.9355C6.51328 47.3402 6.62976 47.6804 6.87148 47.9402C7.12304 48.207 7.44406 48.3432 7.83781 48.3432C8.14297 48.3345 8.39179 48.2705 8.60781 48.1452V47.7159C8.39179 47.8773 8.16047 47.9577 7.92039 47.9577C7.63328 47.9577 7.39922 47.8592 7.22914 47.67C7.05961 47.483 6.96828 47.2238 6.96828 46.9C6.96828 46.5609 7.06015 46.2913 7.24718 46.0863C7.42656 45.8894 7.65953 45.7904 7.945 45.7904C8.17797 45.7904 8.40109 45.8631 8.60781 46.007V45.5487C8.41968 45.4502 8.2064 45.4059 7.96304 45.4059ZM15.1812 45.4174C14.8941 45.4174 14.6513 45.4967 14.473 45.6493C14.3846 45.7177 14.3135 45.8059 14.2652 45.9067C14.217 46.0076 14.193 46.1183 14.1952 46.2301C14.1952 46.4352 14.2565 46.6058 14.3735 46.731C14.472 46.8377 14.6415 46.947 14.8755 47.0444C15.0998 47.1428 15.2507 47.2314 15.3316 47.3036C15.3696 47.3368 15.3997 47.378 15.4198 47.4243C15.44 47.4705 15.4496 47.5206 15.4481 47.571C15.4481 47.8319 15.2693 47.967 14.9204 47.967C14.6513 47.967 14.4102 47.8789 14.1941 47.7001V48.1813C14.3894 48.2995 14.624 48.3525 14.8832 48.3525C15.2146 48.335 15.4738 48.2541 15.6521 48.0933L15.6554 48.0922C15.826 47.9402 15.9162 47.7526 15.9162 47.518C15.9181 47.4234 15.9008 47.3294 15.8654 47.2417C15.83 47.154 15.7771 47.0744 15.7101 47.0077C15.6007 46.9 15.4339 46.8032 15.19 46.7048C14.9745 46.6145 14.8411 46.5347 14.7689 46.4718C14.7303 46.4345 14.7 46.3895 14.68 46.3398C14.6599 46.2901 14.6505 46.2367 14.6524 46.183C14.6524 46.0671 14.6973 45.9791 14.7859 45.9069C14.8761 45.8352 14.992 45.7997 15.1462 45.7997C15.3869 45.7997 15.5936 45.8637 15.7817 45.9988V45.5503C15.5949 45.459 15.3891 45.4135 15.1812 45.4174ZM10.471 45.4322C10.3097 45.4322 10.1664 45.4869 10.039 45.5864C9.90609 45.692 9.8 45.8533 9.73711 46.0584H9.72617V45.4869H9.27992V48.2798H9.72726V46.847L9.73711 46.8453C9.73711 46.5243 9.8082 46.2656 9.94218 46.0863C10.0674 45.9255 10.22 45.8434 10.3994 45.8434C10.5514 45.8434 10.6591 45.8713 10.7379 45.9342V45.4677C10.6766 45.4404 10.5869 45.4322 10.471 45.4322ZM5.40257 45.6548V48.0922H5.79632V45.6548H5.40257ZM17.7691 45.7816C18.0463 45.7816 18.2689 45.8708 18.4308 46.0496C18.5735 46.2465 18.655 46.5161 18.655 46.8743H18.6561C18.6561 47.215 18.5834 47.4835 18.4319 47.6629C18.2793 47.851 18.0556 47.95 17.7592 47.95C17.4721 47.95 17.2501 47.851 17.0795 47.6629C16.9099 47.4742 16.8279 47.215 16.8279 46.8743C16.8279 46.515 16.9176 46.2366 17.0975 46.0496C17.267 45.8708 17.4912 45.7816 17.7691 45.7816ZM12.3424 45.7904C12.6301 45.7904 12.8455 45.8795 13.0052 46.0595C13.1666 46.2476 13.2469 46.515 13.2469 46.8743C13.2469 47.2145 13.1748 47.4835 13.0227 47.6629C12.8712 47.851 12.6476 47.95 12.3517 47.95C12.0646 47.95 11.8409 47.851 11.6703 47.6629C11.5008 47.4742 11.4204 47.215 11.4204 46.8743C11.4029 46.5352 11.492 46.258 11.6703 46.0595C11.8409 45.8795 12.0652 45.7904 12.3424 45.7904ZM3.7625 49.3259C1.99062 49.2997 0.843825 49.8805 0.30734 51.0634C-0.4818 52.8095 0.217106 54.1259 2.74093 55.5942C4.15843 56.4184 4.78351 57.1353 4.78351 57.9157C4.78351 59.5279 2.84047 60.0906 0.835075 59.0789C0.422731 58.8733 0.0732777 58.7016 0.0541371 58.7016C-0.0180504 59.1588 0.0185902 60.2525 0.0185902 60.2525C0.0185902 60.2525 0.636012 60.5117 1.56023 60.69C3.85164 61.1472 5.93797 60.0715 6.13484 58.3259C6.30656 56.6869 5.7132 55.8272 3.46773 54.4857V54.4868C1.97257 53.5806 1.30976 52.9282 1.39125 52.1571C1.62312 50.0265 4.25523 50.3218 5.71375 51.1279L5.72468 49.694C5.72468 49.694 4.91804 49.344 3.7625 49.3259ZM12.5836 49.3259V49.327C12.4759 49.327 12.3681 49.338 12.2615 49.338C10.0849 49.4534 8.61601 50.412 7.75742 52.2834C7.02297 53.9755 7.10336 56.187 7.76562 57.89C8.53562 59.5536 9.78031 60.4319 11.8579 60.7633C12.297 60.8355 12.5918 61.0756 13.4438 62.0692L14.4905 63.2975H16.3909L15.1277 62.0233C14.4287 61.3255 13.8644 60.7173 13.8644 60.6638C13.8644 60.6107 14.1318 60.4942 14.455 60.3958C15.5214 60.0731 16.4057 59.2495 17.0253 57.9873C17.5262 56.974 17.5984 56.6601 17.6706 55.399C17.8582 51.6458 15.8791 49.2991 12.5836 49.3259ZM32.0419 49.3451C30.269 49.3188 29.1233 49.8996 28.5857 51.0825C27.7977 52.8281 28.5053 54.145 31.0209 55.6139C32.4362 56.4375 33.0619 57.1452 33.0619 57.925C33.0619 59.5372 31.1188 60.1092 29.1134 59.0882C28.7027 58.8831 28.3533 58.7136 28.3336 58.7136C28.262 59.1702 28.298 60.2645 28.298 60.2645C28.298 60.2645 28.9078 60.5128 29.8293 60.7009C32.1229 61.1587 34.2087 60.0852 34.4055 58.3395C34.5756 56.7088 33.985 55.8496 31.7461 54.5059V54.5038C30.2509 53.6003 29.5892 52.9452 29.6696 52.1741C29.9015 50.0434 32.5341 50.3393 33.9921 51.1448L34.003 49.7115C34.003 49.7115 33.1969 49.3615 32.0419 49.3451ZM19.3878 49.4616V60.5303H25.235V59.2233H20.778V49.4616H19.3878ZM12.4852 50.4908C14.7962 50.4908 16.1109 51.9056 16.2827 54.565C16.4183 56.7853 15.6745 58.4511 14.251 59.1418L14.2499 59.1429C13.3257 59.5902 11.9837 59.6788 11.1076 59.3573C10.202 59.0248 9.32476 58.0852 8.93101 57.0205C8.49242 55.8556 8.55531 53.7064 9.05679 52.7395C9.86234 51.199 10.9277 50.4908 12.4852 50.4908ZM59.2741 52.4431C58.9873 52.4467 58.7016 52.4797 58.4216 52.5416C56.5786 53.0245 55.5395 54.7914 55.6106 56.6092C55.6106 58.129 55.9059 58.8831 56.6404 59.6799C58.1443 60.9159 59.506 61.0138 61.3506 60.3509C61.5688 60.2577 61.7862 60.1629 62.003 60.0666V58.8295L61.3495 59.1708C59.8604 59.8161 58.7409 59.8156 57.8473 59.0532C57.2726 58.4719 57.0237 57.7817 56.9067 56.9751H62.4591V55.918C62.4591 53.772 61.1603 52.4092 59.2709 52.4453L59.2741 52.4431ZM69.2054 52.4431C68.9795 52.4431 68.7925 52.5153 68.6405 52.669C68.4884 52.8199 68.4162 53.008 68.4162 53.2235C68.4162 53.4477 68.4884 53.6342 68.6394 53.7786C68.7914 53.9224 68.9784 53.9935 69.2043 53.9935C69.4269 53.9935 69.6144 53.9219 69.7692 53.7693C69.9202 53.6162 70 53.439 70 53.2159C69.9918 52.99 69.9109 52.8024 69.7588 52.6591L69.7599 52.6581C69.6863 52.5873 69.5994 52.5319 69.5042 52.4951C69.409 52.4583 69.3074 52.4403 69.2054 52.4431ZM38.9637 52.4617C38.6809 52.4647 38.3991 52.4977 38.1232 52.5602C36.278 53.0431 35.2379 54.8089 35.3013 56.6262C35.3013 58.1481 35.5983 58.9099 36.3322 59.7078C37.8361 60.9421 39.1967 61.04 41.0326 60.3777C41.3454 60.2443 41.6877 60.0901 41.6877 60.0901V58.8552L41.0326 59.1948C39.5467 59.8418 38.4284 59.8418 37.5315 59.08C36.96 58.4976 36.7068 57.7998 36.5914 57.0019H42.152V55.9453C42.152 53.7895 40.8548 52.4284 38.9659 52.4617H38.9648H38.9637ZM67.3766 52.5153C66.5798 52.5153 65.963 52.838 65.5588 53.4745L65.2362 53.9755V52.6684H63.8575V60.5123H65.2356V58.0054C65.2356 55.7129 65.263 55.4438 65.5845 54.8171C66.0264 53.958 66.7871 53.5281 67.521 53.7348L68.0132 53.8781V52.5153H67.3766ZM69.195 52.5263C69.3902 52.5263 69.5527 52.5864 69.6883 52.7204C69.8212 52.856 69.8934 53.0179 69.8934 53.2126C69.8934 53.4209 69.8316 53.5812 69.6883 53.7168C69.6239 53.7815 69.5468 53.8322 69.462 53.8658C69.3771 53.8994 69.2862 53.9151 69.195 53.912C68.9998 53.912 68.8379 53.8502 68.7028 53.7168C68.6365 53.651 68.5842 53.5726 68.5489 53.4861C68.5135 53.3997 68.496 53.307 68.4972 53.2137C68.4972 53.0184 68.559 52.856 68.6941 52.7204C68.8275 52.587 68.9888 52.5263 69.195 52.5263ZM47.0679 52.5334C46.2711 52.5334 45.6608 52.856 45.2495 53.4915L44.9269 53.9946V52.6859H43.5493V60.5314H44.9274V58.0234C44.9274 55.7304 44.9559 55.4624 45.2763 54.8352C45.7177 53.9744 46.4773 53.5456 47.2123 53.7507L47.7044 53.8951V52.5356H47.069L47.0679 52.5334ZM48.1419 52.6766C49.0761 55.311 50.0556 57.9291 51.0798 60.5298C51.5189 60.5402 51.958 60.5298 52.3966 60.5298L53.9443 56.6431L55.5193 52.6772H54.1598C54.1598 52.6772 53.5582 54.2533 52.9315 56.0175L52.9337 56.0164L51.7874 58.9985L50.6855 55.9995L49.566 52.6761L48.1419 52.6766ZM68.8816 52.7138V53.7157H69.026V53.2935H69.1157C69.1769 53.2935 69.2382 53.3564 69.294 53.4734L69.4012 53.7146H69.5718L69.4384 53.4455C69.3924 53.3302 69.3388 53.2777 69.2852 53.2596C69.3559 53.2451 69.4211 53.211 69.4734 53.1612C69.5172 53.1116 69.5396 53.0467 69.5357 52.9807C69.5378 52.9453 69.5316 52.9098 69.5177 52.8772C69.5037 52.8445 69.4824 52.8156 69.4553 52.7926C69.3935 52.7412 69.2945 52.7138 69.1682 52.7138H68.8816ZM69.0326 52.8303H69.1594C69.2491 52.8303 69.3115 52.8467 69.3476 52.8741C69.3837 52.9014 69.3913 52.9359 69.3913 52.9998C69.3913 53.1158 69.3191 53.1694 69.1862 53.1694H69.0326V52.8303ZM59.1921 53.6178C59.6034 53.6178 60.0157 53.7502 60.3559 54.0105C61.0542 54.5481 61.1723 55.8742 61.1723 55.8742H57.027C57.0314 55.848 57.2403 54.5344 57.9934 54.0017C58.3433 53.7522 58.7623 53.6183 59.1921 53.6178ZM38.8839 53.6441C39.3047 53.6442 39.7137 53.7825 40.0482 54.0378C40.7466 54.5754 40.863 55.8917 40.863 55.8917H36.7188C36.7232 55.8622 36.9305 54.5502 37.6841 54.0285C38.0346 53.7794 38.4538 53.645 38.8839 53.6441Z" fill="black"/>
</svg>
