<svg width="70" height="70" viewBox="0 0 70 70" fill="none" xmlns="http://www.w3.org/2000/svg">
<path d="M34.8863 4.375H35.0284C35.7571 4.72208 36.4669 5.10762 37.1547 5.53L60.9066 19.1931C61.2129 19.3566 61.463 19.6084 61.6245 19.9157C61.7859 20.2231 61.8513 20.5719 61.8122 20.9169C61.7947 30.5178 61.8122 40.1166 61.8013 49.7131C61.6982 50.1711 61.4183 50.5698 61.0225 50.8222C52.6035 55.6697 44.1839 60.5143 35.7634 65.3559C35.5594 65.5115 35.3134 65.6023 35.0573 65.6167C34.8011 65.6312 34.5465 65.5685 34.3263 65.4369C25.8971 60.604 17.4759 55.7623 9.06282 50.9119C8.7894 50.7826 8.56038 50.5752 8.40466 50.316C8.24894 50.0567 8.17349 49.7571 8.18782 49.455V20.6609C8.16719 20.3602 8.23671 20.06 8.38751 19.799C8.53831 19.5379 8.76353 19.3277 9.03438 19.1953C16.9415 14.6482 24.8485 10.0982 32.7556 5.54531C33.46 5.14281 34.1513 4.71625 34.8863 4.375Z" fill="#019639"/>
<path d="M19.1778 23.0519V46.8059C19.1677 47.2445 19.2451 47.6806 19.4055 48.0889C19.5659 48.4971 19.806 48.8693 20.1119 49.1838C20.6982 49.7629 21.4653 50.1236 22.2853 50.2056C23.1054 50.2876 23.9288 50.086 24.6181 49.6344C25.0796 49.3208 25.4573 48.8992 25.7185 48.4062C25.9797 47.9132 26.1163 47.3638 26.1166 46.8059C26.1166 41.0747 26.1056 35.3434 26.1166 29.6122C31.3418 35.8684 36.5779 42.1159 41.825 48.3547C42.554 49.0932 43.4568 49.6368 44.4505 49.9357C45.4442 50.2346 46.4971 50.2792 47.5125 50.0653C48.2295 49.9241 48.8823 49.5565 49.3749 49.0167C49.8675 48.4768 50.1739 47.7932 50.2491 47.0663C50.2607 38.9856 50.2607 30.9057 50.2491 22.8266C50.1737 21.9642 49.7779 21.1613 49.1397 20.5764C48.5015 19.9915 47.6673 19.6671 46.8016 19.6671C45.9359 19.6671 45.1016 19.9915 44.4634 20.5764C43.8252 21.1613 43.4294 21.9642 43.3541 22.8266C43.3541 28.6497 43.3191 34.4663 43.3541 40.2872C38.2222 34.2366 33.1538 28.1334 28.0416 22.0609C27.3676 21.1967 26.4753 20.5279 25.4567 20.1234C24.4382 19.7189 23.3301 19.5933 22.2469 19.7597C21.4263 19.851 20.6655 20.2333 20.1025 20.8373C19.5395 21.4412 19.2114 22.2269 19.1778 23.0519Z" fill="white"/>
</svg>
