<svg width="70" height="70" viewBox="0 0 70 70" fill="none" xmlns="http://www.w3.org/2000/svg">
<path d="M61.8609 14.2548C50.4044 -0.580778 29.0888 -3.31953 14.2527 8.13914C-0.581321 19.5978 -3.31734 40.9134 8.14133 55.7473C19.6022 70.5808 40.9194 73.3152 55.7512 61.8543C70.5791 50.3956 73.3157 29.0866 61.8609 14.2548Z" fill="#F37036"/>
<path d="M49.8083 13.2147C48.6398 13.3081 47.532 13.773 46.6468 14.5414C45.6107 15.4409 44.9494 16.6962 44.7935 18.0594C44.6376 19.4227 44.9983 20.7948 45.8046 21.9051C46.6098 23.0158 47.802 23.7845 49.146 24.0593C50.4901 24.3342 51.8883 24.0953 53.0649 23.3898H53.066L53.1513 23.4752C53.5388 23.253 53.8994 22.9869 54.2259 22.6822C55.2331 21.6168 55.7871 20.2019 55.7712 18.7359C55.7552 17.2699 55.1706 15.8674 54.1406 14.8241V14.823L49.3041 19.6295L49.2188 19.5448L54.0553 14.7361C53.4955 14.1963 52.8273 13.7816 52.0952 13.5195C51.363 13.2574 50.5835 13.1539 49.8083 13.2158V13.2147ZM43.4405 21.0826C41.1217 21.0788 37.3357 23.707 28.0913 32.9514L28.1373 32.9984C28.087 32.9809 28.0361 32.9793 28.0361 32.9793L24.5558 36.429C24.4664 36.514 24.4073 36.6259 24.3873 36.7476C24.3674 36.8693 24.3877 36.9942 24.4453 37.1033C24.5029 37.2124 24.5945 37.2997 24.7063 37.3519C24.818 37.4041 24.9438 37.4184 25.0644 37.3926L31.033 36.1195C31.0593 36.0947 31.077 36.0621 31.0833 36.0265L31.2156 36.1632L29.1813 38.1812H29.0828L17.0045 50.3546L20.8797 54.0865C20.9881 54.1842 21.1248 54.2447 21.2699 54.2594C21.4151 54.274 21.5612 54.242 21.6869 54.168C21.8137 54.0944 21.9153 53.9842 21.9782 53.8519C22.0412 53.7195 22.0626 53.5712 22.0396 53.4264L21.4736 50.9655C21.4383 50.916 21.4193 50.8567 21.4193 50.7959C21.4193 50.7352 21.4383 50.6759 21.4736 50.6264C26.7641 48.1043 31.684 44.869 36.0959 41.0107L33.6159 38.5295L33.6629 38.5219L32.1918 37.0513L32.2859 36.9562L32.3854 37.0579L32.334 37.1077L36.237 41.096V41.0944C43.7183 34.0102 49.0284 28.3155 47.6476 24.483C47.5847 24.0247 47.3718 23.6002 47.0422 23.2755V23.2777C46.9585 23.2154 46.8702 23.1594 46.778 23.1104C46.7327 23.0623 46.6927 23.013 46.6446 22.966L46.6085 23.0021C46.5072 22.9402 46.4007 22.8871 46.2902 22.8435L46.4483 22.6838C45.4661 21.8088 44.6545 21.0848 43.4405 21.0815V21.0826ZM16.9203 50.4273L14.0924 53.2558V53.258C13.991 53.3208 13.9121 53.4143 13.8672 53.5248C13.8222 53.6354 13.8136 53.7574 13.8425 53.8732C13.8704 53.989 13.9341 54.093 14.0245 54.1704C14.1149 54.2479 14.2275 54.2949 14.3462 54.3047L21.2762 54.7832L16.9203 50.4273Z" fill="white"/>
<path d="M50.2852 12.7477C48.6979 12.7457 47.1737 13.3684 46.042 14.4812C45.2367 15.3054 44.6853 16.3437 44.4535 17.4724C44.2218 18.6011 44.3195 19.7727 44.7349 20.8474C42.1422 19.7373 38.6345 21.6732 27.7238 32.5817C27.7162 32.5985 27.7094 32.6156 27.7036 32.6331C27.6813 32.6432 27.6596 32.6546 27.6385 32.667L24.1883 36.1473C24.0229 36.3097 23.9143 36.521 23.8785 36.7499C23.8428 36.9789 23.8818 37.2133 23.9898 37.4183C24.0862 37.5805 24.2227 37.7152 24.3861 37.8094C24.5496 37.9037 24.7346 37.9543 24.9233 37.9564L25.0945 37.8454L29.7013 36.8627L27.4974 39.0868C27.4846 39.116 27.4747 39.1464 27.4679 39.1776L16.6671 50.0052C16.624 50.0414 16.5884 50.0856 16.5621 50.1353L13.7807 52.9189C13.6421 53.0652 13.5474 53.2475 13.5073 53.4451C13.4673 53.6426 13.4836 53.8474 13.5543 54.0362C13.6268 54.2237 13.7498 54.3876 13.9096 54.5097C14.0694 54.6318 14.2599 54.7073 14.4599 54.728L21.3604 55.2092C21.4781 55.1679 21.5783 55.0879 21.6448 54.9823C21.7041 54.8998 21.736 54.8008 21.736 54.6993C21.736 54.5977 21.7041 54.4987 21.6448 54.4162L21.6305 54.4026C21.7794 54.3244 21.9107 54.2164 22.0161 54.0854C22.1269 53.9416 22.2043 53.7749 22.2427 53.5974C22.2811 53.42 22.2796 53.2362 22.2381 53.0595L21.7 50.7697C26.8627 48.3024 31.7 45.2052 36.1014 41.5488C36.1441 41.5731 36.1897 41.592 36.237 41.6052C36.3759 41.5948 36.5061 41.5352 36.6045 41.4367C44.0147 34.4203 48.3705 29.6122 48.3705 25.795C48.3866 25.2655 48.3068 24.7375 48.1348 24.2364C48.8026 24.5133 49.515 24.6671 50.2376 24.6903L50.2294 24.6925C51.2245 24.6621 52.1973 24.3899 53.0638 23.8995C53.0646 23.8997 53.0653 23.8999 53.066 23.9001C53.1782 23.9337 53.299 23.9229 53.4034 23.87C53.8215 23.6238 54.2027 23.3196 54.5355 22.9666C55.0994 22.4132 55.5475 21.753 55.8534 21.0246C56.1593 20.2961 56.317 19.514 56.3172 18.7239C56.317 17.9339 56.1594 17.1518 55.8536 16.4233C55.5478 15.6948 55.0999 15.0346 54.536 14.4812C54.5159 14.463 54.4943 14.4463 54.4715 14.4315C53.3457 13.3506 51.8453 12.7473 50.2846 12.7482L50.2852 12.7477ZM50.2376 13.7167C51.3427 13.7233 52.4155 14.0909 53.2924 14.7634L48.8802 19.2024C48.8651 19.2192 48.8512 19.2371 48.8387 19.256C48.7591 19.3365 48.7125 19.4438 48.708 19.5568C48.708 19.6251 48.7234 19.6925 48.753 19.754C48.7827 19.8156 48.8258 19.8697 48.8791 19.9123H48.8802L52.2162 23.2482C51.303 23.6464 50.2909 23.7596 49.3124 23.5729C48.3339 23.3862 47.4345 22.9084 46.7321 22.202C45.3179 20.7802 44.9077 18.6452 45.6641 16.7929C46.4204 14.939 48.2234 13.7277 50.2376 13.7167ZM54.1313 15.5936C54.8528 16.4664 55.2461 17.5642 55.2431 18.6966C55.2411 20.0232 54.7123 21.2947 53.7731 22.2316C53.5848 22.4087 53.3841 22.5723 53.1727 22.721L50.4804 20.0703L49.9537 19.5437L50.0987 19.3987L54.1308 15.5925L54.1313 15.5936ZM53.9312 17.8866C53.8322 17.8554 53.7252 17.8614 53.6304 17.9036C53.5366 17.9522 53.4658 18.0359 53.4335 18.1366C53.4177 18.1868 53.4119 18.2397 53.4166 18.2921C53.4213 18.3446 53.4364 18.3956 53.4609 18.4423C53.5581 18.6466 53.5964 18.8739 53.5716 19.0988C53.5467 19.3237 53.4597 19.5372 53.3203 19.7154C53.2847 19.7498 53.2567 19.7914 53.2383 19.8374C53.22 19.8834 53.2115 19.9328 53.2137 19.9823C53.2159 20.0829 53.252 20.1791 53.3203 20.2513C53.3932 20.2792 53.4738 20.2792 53.5467 20.2513C53.6125 20.2677 53.6815 20.2659 53.7462 20.2459C53.811 20.226 53.8691 20.1887 53.9142 20.1381C54.1469 19.8528 54.2942 19.5075 54.3392 19.142C54.3842 18.7766 54.325 18.4059 54.1685 18.0726V18.0748C54.1152 17.985 54.0307 17.9181 53.9312 17.8866ZM43.3891 21.5633C44.0491 21.5852 44.6842 21.8204 45.1992 22.2337C44.6443 22.3136 44.13 22.5707 43.733 22.9666L31.2605 35.3834L28.8127 32.9355C35.2811 26.4977 39.2361 23.135 41.6948 22.033C42.2013 21.7136 42.7904 21.5506 43.3891 21.5633ZM45.5574 23.182C45.9762 23.182 46.378 23.348 46.6747 23.6436C46.8326 23.7917 46.9572 23.9717 47.0401 24.1717C47.123 24.3717 47.1623 24.5871 47.1554 24.8035C47.1482 25.0191 47.0967 25.2309 47.004 25.4257C46.9113 25.6204 46.7795 25.794 46.6167 25.9355L33.355 37.4779L31.9238 36.0467L44.4402 23.6436C44.737 23.3482 45.1387 23.1819 45.5574 23.182ZM47.1948 26.845C46.2705 30.5102 41.3722 35.4763 36.2644 40.302L34.1988 38.2386L47.1948 26.845ZM28.0913 33.6585L28.2412 33.8062L30.1623 35.7273L24.8959 36.8539L28.0913 33.6585ZM31.2594 36.8523L31.2616 36.8545L31.9003 37.508C31.903 37.5234 31.9063 37.5387 31.9102 37.5539L31.9528 37.5605L32.0884 37.6994L32.5369 38.1587L29.592 38.5197L31.2594 36.8523ZM33.3741 39.0813L35.3309 41.037C31.0041 44.6348 26.2562 47.6935 21.1914 50.1457C21.027 50.224 20.8948 50.3569 20.8173 50.5217C20.7398 50.6865 20.7219 50.8731 20.7665 51.0497L21.3325 53.5106C21.3534 53.5395 21.3646 53.5742 21.3646 53.6099C21.3646 53.6455 21.3534 53.6802 21.3325 53.7091C21.3014 53.737 21.2611 53.7525 21.2193 53.7525C21.1775 53.7525 21.1372 53.737 21.1061 53.7091L17.7691 50.3448L28.0547 39.9082L33.3741 39.0813ZM17.0045 51.0798L17.4798 51.5249L19.9363 53.9815L14.4588 53.6271L17.0045 51.0798Z" fill="#F37036"/>
</svg>
