<svg width="70" height="70" viewBox="0 0 70 70" fill="none" xmlns="http://www.w3.org/2000/svg">
<path d="M49.8458 25.8475C49.4936 24.0082 48.5641 22.3291 47.1924 21.0545C45.8207 19.7799 44.0784 18.9761 42.2187 18.76L41.5042 18.6725C40.3354 18.5244 39.2605 17.9556 38.4806 17.0726C37.7006 16.1896 37.2689 15.0527 37.2662 13.8746V11.3779C38.5238 10.8557 39.5627 9.91561 40.2075 8.7163C40.8524 7.51699 41.0637 6.13192 40.8058 4.79488C40.5479 3.45785 39.8366 2.25074 38.7919 1.37732C37.7473 0.503893 36.4332 0.0176428 35.0717 0.000644354C33.7101 -0.0163541 32.3844 0.436941 31.3182 1.28401C30.2521 2.13109 29.5109 3.32006 29.2197 4.65024C28.9285 5.98042 29.1051 7.37033 29.7198 8.58537C30.3345 9.8004 31.3496 10.7661 32.5937 11.3196V13.8688C32.5954 16.1863 33.4422 18.4236 34.9752 20.1612C36.5082 21.8988 38.6222 23.0173 40.9208 23.3071L41.6354 23.4004C43.8637 23.6804 44.9721 25.3254 45.2696 26.7692C45.5612 28.2129 45.1821 30.1613 43.2337 31.29C42.2917 31.8375 41.2416 32.1729 40.1567 32.2729L29.4233 33.2821C27.6657 33.4484 25.9646 33.9915 24.4358 34.8746C22.8045 35.7967 21.5097 37.215 20.7397 38.9234C19.9697 40.6318 19.7646 42.5412 20.1542 44.3742C20.5064 46.2135 21.4359 47.8925 22.8076 49.1672C24.1793 50.4418 25.9216 51.2456 27.7812 51.4617L28.4958 51.555C29.6641 51.7031 30.7386 52.2714 31.5185 53.1538C32.2983 54.0362 32.7303 55.1724 32.7337 56.35V58.6163C31.4758 59.1417 30.4377 60.085 29.7948 61.2871C29.1518 62.4892 28.9433 63.8764 29.2046 65.2143C29.4658 66.5523 30.1808 67.7591 31.2287 68.6311C32.2766 69.503 33.5934 69.9866 34.9565 70.0002C36.3197 70.0138 37.6458 69.5566 38.711 68.7058C39.7761 67.855 40.515 66.6627 40.8029 65.3302C41.0909 63.9977 40.9101 62.6067 40.2913 61.392C39.6725 60.1773 38.6534 59.2133 37.4062 58.6629V56.35C37.4045 54.0321 36.5573 51.7944 35.0237 50.0567C33.4901 48.3191 31.3754 47.2008 29.0762 46.9117L28.3646 46.8183C26.1362 46.5383 25.025 44.8933 24.7304 43.4496C24.4387 42.0058 24.8179 40.0575 26.7633 38.9288C27.7071 38.3805 28.7593 38.045 29.8462 37.9458L40.5796 36.9396C42.3372 36.7733 44.0383 36.2301 45.5671 35.3471C47.1969 34.4233 48.4902 33.0042 49.2596 31.2956C50.0289 29.5871 50.2342 27.6778 49.8458 25.8446V25.8475ZM42.1079 39.5792C41.6864 39.6538 41.2622 39.7122 40.8362 39.7542L36.3358 40.1829L41.965 46.3633C43.6663 48.2291 44.6089 50.6634 44.6075 53.1883H49.2917C49.2934 49.4976 47.9149 45.9396 45.4271 43.2133L42.1079 39.5792ZM27.5158 30.5083C28.0416 30.3991 28.5733 30.3212 29.1083 30.275L33.2704 29.8783L27.6179 23.6833C25.9176 21.8172 24.9762 19.3829 24.9783 16.8583H20.3087C20.3087 20.5538 21.6796 24.1004 24.1704 26.8333L27.5158 30.5083Z" fill="black"/>
</svg>
