<svg width="70" height="70" viewBox="0 0 70 70" fill="none" xmlns="http://www.w3.org/2000/svg">
<rect width="70" height="70" rx="10" fill="white"/>
<rect x="3.88889" y="3.88889" width="62.2222" height="62.2222" rx="5" fill="#CF5A8D"/>
<g clip-path="url(#clip0_13_81)">
<path d="M32.618 45.3989H22.9561C22.8815 45.3944 22.8067 45.4053 22.7364 45.4308C22.6662 45.4563 22.6019 45.4959 22.5474 45.5471C22.493 45.5984 22.4497 45.6602 22.42 45.7289C22.3904 45.7975 22.3751 45.8715 22.3751 45.9462C22.3751 46.021 22.3904 46.095 22.42 46.1636C22.4497 46.2322 22.493 46.2941 22.5474 46.3453C22.6019 46.3966 22.6662 46.4362 22.7364 46.4617C22.8067 46.4872 22.8815 46.4981 22.9561 46.4936H32.62C32.6946 46.4981 32.7694 46.4872 32.8396 46.4617C32.9099 46.4362 32.9742 46.3966 33.0286 46.3453C33.083 46.2941 33.1264 46.2322 33.156 46.1636C33.1857 46.095 33.201 46.021 33.201 45.9462C33.201 45.8715 33.1857 45.7975 33.156 45.7289C33.1264 45.6602 33.083 45.5984 33.0286 45.5471C32.9742 45.4959 32.9099 45.4563 32.8396 45.4308C32.7694 45.4053 32.6946 45.3944 32.62 45.3989M46.8533 45.3989H37.1914C37.1167 45.3944 37.042 45.4053 36.9717 45.4308C36.9014 45.4563 36.8371 45.4959 36.7827 45.5471C36.7283 45.5984 36.685 45.6602 36.6553 45.7289C36.6257 45.7975 36.6104 45.8715 36.6104 45.9462C36.6104 46.021 36.6257 46.095 36.6553 46.1636C36.685 46.2322 36.7283 46.2941 36.7827 46.3453C36.8371 46.3966 36.9014 46.4362 36.9717 46.4617C37.042 46.4872 37.1167 46.4981 37.1914 46.4936H46.8533C46.9928 46.4853 47.1239 46.424 47.2198 46.3223C47.3156 46.2205 47.369 46.086 47.369 45.9462C47.369 45.8065 47.3156 45.672 47.2198 45.5702C47.1239 45.4685 46.9928 45.4072 46.8533 45.3989ZM32.5928 32.8086H22.958C22.8834 32.8042 22.8087 32.815 22.7384 32.8405C22.6681 32.866 22.6038 32.9056 22.5494 32.9569C22.495 33.0081 22.4516 33.07 22.422 33.1386C22.3924 33.2072 22.3771 33.2812 22.3771 33.356C22.3771 33.4307 22.3924 33.5047 22.422 33.5733C22.4516 33.642 22.495 33.7038 22.5494 33.7551C22.6038 33.8063 22.6681 33.8459 22.7384 33.8714C22.8087 33.8969 22.8834 33.9078 22.958 33.9033H32.5908C32.6654 33.9078 32.7402 33.8969 32.8105 33.8714C32.8807 33.8459 32.9451 33.8063 32.9995 33.7551C33.0539 33.7038 33.0972 33.642 33.1269 33.5733C33.1565 33.5047 33.1718 33.4307 33.1718 33.356C33.1718 33.2812 33.1565 33.2072 33.1269 33.1386C33.0972 33.07 33.0539 33.0081 32.9995 32.9569C32.9451 32.9056 32.8807 32.866 32.8105 32.8405C32.7402 32.815 32.6654 32.8042 32.5908 32.8086M46.8241 32.8086H37.1894C37.1148 32.8042 37.0401 32.815 36.9698 32.8405C36.8995 32.866 36.8352 32.9056 36.7808 32.9569C36.7264 33.0081 36.683 33.07 36.6534 33.1386C36.6237 33.2072 36.6085 33.2812 36.6085 33.356C36.6085 33.4307 36.6237 33.5047 36.6534 33.5733C36.683 33.642 36.7264 33.7038 36.7808 33.7551C36.8352 33.8063 36.8995 33.8459 36.9698 33.8714C37.0401 33.8969 37.1148 33.9078 37.1894 33.9033H46.8241C46.9637 33.895 47.0948 33.8337 47.1906 33.732C47.2865 33.6302 47.3398 33.4957 47.3398 33.356C47.3398 33.2162 47.2865 33.0817 47.1906 32.98C47.0948 32.8782 46.9637 32.8169 46.8241 32.8086ZM47.8975 14.9197H39.4566C39.1551 13.9756 38.5612 13.1518 37.7608 12.5672C36.9604 11.9827 35.995 11.6677 35.0039 11.6677C34.0128 11.6677 33.0473 11.9827 32.2469 12.5672C31.4465 13.1518 30.8527 13.9756 30.5511 14.9197H22.1005C20.5041 14.9202 18.9732 15.5546 17.8443 16.6835C16.7155 17.8124 16.0811 19.3433 16.0805 20.9397V52.3114C16.0805 53.9085 16.715 55.4402 17.8443 56.5695C18.9737 57.6989 20.5054 58.3333 22.1025 58.3333H47.8975C49.4943 58.3328 51.0255 57.6981 52.1544 56.5689C53.2833 55.4396 53.9175 53.9082 53.9175 52.3114V20.9417C53.917 19.3452 53.2826 17.8143 52.1537 16.6854C51.0248 15.5566 49.4939 14.9222 47.8975 14.9217M30.9711 16.0164C31.0983 16.0187 31.2224 15.9768 31.3221 15.8977C31.4218 15.8185 31.4909 15.7072 31.5175 15.5828C31.6911 14.7841 32.1328 14.0688 32.7691 13.5559C33.4055 13.043 34.1982 12.7633 35.0155 12.7633C35.8329 12.7633 36.6256 13.043 37.262 13.5559C37.8983 14.0688 38.34 14.7841 38.5136 15.5828C38.5403 15.7076 38.6096 15.8191 38.7097 15.8983C38.8098 15.9774 38.9344 16.0192 39.0619 16.0164H42.0058V19.6C42.0053 20.0351 41.8322 20.4522 41.5246 20.7599C41.2169 21.0675 40.7998 21.2406 40.3647 21.2411H29.6625C29.2274 21.2406 28.8103 21.0675 28.5026 20.7599C28.195 20.4522 28.0219 20.0351 28.0214 19.6V16.0144L30.9711 16.0164ZM52.8228 52.3133C52.8228 55.0355 50.6178 57.2405 47.8975 57.2405H22.1025C20.796 57.24 19.5433 56.7207 18.6197 55.7967C17.6961 54.8727 17.1772 53.6198 17.1772 52.3133V20.9417C17.1772 19.6354 17.6961 18.3826 18.6198 17.459C19.5435 16.5353 20.7962 16.0164 22.1025 16.0164H26.9247V19.6C26.9247 21.1108 28.1497 22.3358 29.6625 22.3358H40.3375C41.8483 22.3358 43.0733 21.1108 43.0733 19.6V16.0144H47.8955C50.6178 16.0144 52.8228 18.2194 52.8228 20.9397V52.3133Z" fill="white"/>
</g>
<defs>
<clipPath id="clip0_13_81">
<rect width="46.6667" height="46.6667" fill="white" transform="translate(11.6667 11.6667)"/>
</clipPath>
</defs>
</svg>
