<svg width="70" height="62" viewBox="0 0 78 70" fill="none" xmlns="http://www.w3.org/2000/svg">
<path d="M48.0809 43.3656L46.5865 45.9608C46.3653 46.3448 46.0468 46.6638 45.663 46.8856C45.2793 47.1074 44.8439 47.2242 44.4007 47.2241H32.9517C32.5085 47.2242 32.0731 47.1074 31.6894 46.8856C31.3057 46.6638 30.9871 46.3448 30.7659 45.9608L29.2713 43.3656H48.0809ZM52.2647 36.1008L49.6297 40.6764H27.7227L25.0877 36.1008H52.2647ZM49.7265 28.9967L52.269 33.4116H25.0834L27.626 28.9967H49.7265ZM44.4004 22.281C44.8437 22.2809 45.2791 22.3977 45.6629 22.6195C46.0467 22.8413 46.3653 23.1603 46.5865 23.5444L48.1777 26.3075H29.1748L30.7662 23.5444C30.9874 23.1603 31.306 22.8413 31.6897 22.6195C32.0734 22.3978 32.5088 22.281 32.952 22.281H44.4004Z" fill="#00435B"/>
<path d="M16.2896 21.0765C15.0214 14.9269 14.749 10.2101 15.5689 6.78527C16.0564 4.74827 16.9476 3.08653 18.3031 1.8874C19.7342 0.621613 21.5432 0.00043931 23.5763 0.00043931C26.9296 0.00043931 30.4551 1.52979 34.2224 4.43479C35.7593 5.61992 37.3541 7.04822 39.0104 8.72061C39.1424 8.55109 39.2913 8.39101 39.4574 8.24279C44.1401 4.07018 48.0827 1.47714 51.4548 0.477657C53.4599 -0.117039 55.3423 -0.173648 57.0564 0.403396C58.866 1.01209 60.3077 2.27118 61.3251 4.03427C63.0039 6.94414 63.4464 10.7677 62.8207 15.489C62.5657 17.4134 62.1295 19.5094 61.5132 21.7808C61.7457 21.8088 61.9789 21.8605 62.2096 21.9369C68.1507 23.906 72.3581 26.0231 74.9051 28.443C76.4208 29.8825 77.4102 31.4852 77.7681 33.2596C78.1455 35.1322 77.7773 37.0104 76.7614 38.7722C75.0856 41.6781 72.0044 43.9696 67.6151 45.7847C65.8529 46.5136 63.8585 47.1737 61.6304 47.7675C61.7321 47.997 61.8112 48.2408 61.8638 48.4964C63.1321 54.6461 63.4041 59.3629 62.5845 62.7877C62.097 64.8247 61.2055 66.4864 59.85 67.6856C58.4192 68.9514 56.6099 69.5725 54.5771 69.5725C51.2235 69.5725 47.6983 68.0432 43.9311 65.1382C42.3777 63.9403 40.7652 62.4943 39.0898 60.7988C38.9134 61.0744 38.7 61.3245 38.4555 61.542C33.7728 65.7152 29.8303 68.3077 26.4581 69.3074C24.4531 69.9021 22.5707 69.9587 20.8566 69.3817C19.047 68.773 17.6053 67.5139 16.5878 65.7508C14.9091 62.841 14.4665 59.0174 15.0923 54.2961C15.3568 52.3023 15.8154 50.1238 16.4673 47.7572C16.2075 47.7308 15.9513 47.676 15.7034 47.5937C9.76223 45.6246 5.55492 43.5076 3.00784 41.0877C1.49219 39.6481 0.502751 38.0454 0.144838 36.2711C-0.232553 34.3984 0.135708 32.52 1.15162 30.7581C2.82736 27.8525 5.90858 25.5608 10.2979 23.746C12.1127 22.9951 14.1734 22.3177 16.4822 21.7102C16.3986 21.5053 16.3342 21.2932 16.2896 21.0765Z" fill="#002B3B"/>
<path d="M57.7186 49.1014C58.0022 49.0511 58.2942 49.1119 58.5342 49.2711C58.7742 49.4303 58.9437 49.6758 59.0076 49.9566L59.0146 49.9907L59.0776 50.3178C61.1197 61.054 59.6811 66.4224 54.7619 66.4224C49.9493 66.4224 43.8224 61.8417 36.3817 52.6802C36.2495 52.5174 36.1657 52.3207 36.1397 52.1126C36.1136 51.9045 36.1465 51.6933 36.2345 51.5029C36.3226 51.3125 36.4622 51.1507 36.6377 51.0357C36.8131 50.9208 37.0172 50.8573 37.2269 50.8526H37.2616L37.6536 50.8553C40.7847 50.8724 43.8285 50.7631 46.7853 50.5278C50.2752 50.25 53.9198 49.7746 57.7186 49.1014ZM23.9357 40.9856L23.9546 41.0176L24.1512 41.3606C25.7268 44.0997 27.3682 46.6994 29.0756 49.1601C31.0867 52.0575 33.348 54.9908 35.8595 57.96C36.0459 58.1804 36.1401 58.4641 36.1226 58.7522C36.1051 59.0403 35.9772 59.3106 35.7654 59.5067L35.7371 59.532L35.4845 59.7496C27.1737 66.8704 21.7721 68.292 19.2798 64.0141C16.8399 59.8272 17.7246 52.2136 21.9334 41.1737C22.0079 40.9781 22.1357 40.8073 22.3023 40.6806C22.4689 40.5539 22.6677 40.4763 22.8761 40.4568C23.0845 40.4372 23.2942 40.4764 23.4814 40.5698C23.6687 40.6633 23.8261 40.8073 23.9357 40.9856ZM61.9357 25.1431L61.9698 25.1544L62.2826 25.2621C72.5407 28.8306 76.4379 32.7521 73.9745 37.0267C71.5653 41.2072 64.561 44.2513 52.962 46.1583C52.7518 46.1929 52.536 46.1669 52.3401 46.0833C52.1441 45.9997 51.976 45.862 51.8555 45.6863C51.735 45.5106 51.6671 45.3042 51.6597 45.0913C51.6523 44.8784 51.7057 44.6677 51.8137 44.4841C53.4748 41.6579 54.9713 38.8464 56.3025 36.0485C57.8121 32.8757 59.2288 29.4697 60.5527 25.8315C60.6489 25.5671 60.841 25.3485 61.0909 25.2191C61.3407 25.0897 61.6301 25.059 61.9016 25.1331L61.9357 25.1431ZM25.701 23.3465C25.8279 23.4211 25.9389 23.5199 26.0277 23.6374C26.1164 23.7549 26.1812 23.8887 26.2182 24.0312C26.2552 24.1737 26.2638 24.3221 26.2435 24.4679C26.2231 24.6137 26.1743 24.7541 26.0996 24.8811C24.4379 27.7069 22.9417 30.5188 21.6105 33.3167C20.101 36.4895 18.6842 39.8951 17.3603 43.5336C17.262 43.8038 17.0637 44.0259 16.8063 44.154C16.5489 44.2821 16.2522 44.3065 15.9773 44.2221L15.9433 44.2108L15.6304 44.1028C5.37235 40.5346 1.47517 36.6127 3.93857 32.3385C6.34778 28.1577 13.352 25.1139 24.951 23.2068C25.2097 23.1642 25.4751 23.2135 25.701 23.3465ZM58.6332 5.77105C61.0732 9.95827 60.1884 17.5718 55.9796 28.6117C55.9051 28.8073 55.7773 28.9782 55.6107 29.1049C55.4441 29.2316 55.2454 29.3091 55.037 29.3287C54.8286 29.3483 54.6189 29.3091 54.4316 29.2156C54.2443 29.1222 54.0869 28.9781 53.9773 28.7998L53.9584 28.7679L53.7618 28.4249C52.1862 25.6857 50.5449 23.086 48.8375 20.6254C46.8263 17.728 44.565 14.7947 42.0536 11.8254C41.8671 11.6051 41.7729 11.3213 41.7904 11.0332C41.8079 10.7451 41.9359 10.4749 42.1476 10.2787L42.1759 10.2535L42.4285 10.0359C50.7393 2.91505 56.1409 1.49344 58.6332 5.77105ZM23.5717 3.22305C28.3847 3.22305 34.5115 7.80349 41.9519 16.965C42.0841 17.1278 42.168 17.3244 42.194 17.5326C42.22 17.7407 42.1871 17.9519 42.0991 18.1423C42.0111 18.3326 41.8714 18.4945 41.696 18.6094C41.5206 18.7244 41.3164 18.7878 41.1067 18.7926H41.072L40.68 18.7901C37.5492 18.7731 34.5051 18.8824 31.5487 19.1176C28.0584 19.3955 24.4139 19.8709 20.615 20.5441C20.3315 20.5943 20.0395 20.5334 19.7996 20.3742C19.5597 20.215 19.3903 19.9696 19.3264 19.6889L19.3191 19.6545L19.2561 19.3276C17.2139 8.59114 18.6523 3.22305 23.5717 3.22305Z" fill="#FF4154"/>
<path d="M33.8724 22.4213H43.4825C44.1729 22.4213 44.8512 22.6035 45.4487 22.9495C46.0462 23.2955 46.5418 23.7931 46.8854 24.392L51.7108 32.7999C52.0519 33.3942 52.2314 34.0676 52.2314 34.7529C52.2314 35.4382 52.0519 36.1115 51.7108 36.7059L46.8854 45.1138C46.5417 45.7126 46.0461 46.2102 45.4486 46.5562C44.8511 46.9022 44.1729 47.0844 43.4825 47.0844H33.8724C32.4669 47.0844 31.1689 46.3327 30.4692 45.1138L25.6443 36.7059C25.3032 36.1115 25.1238 35.4382 25.1238 34.7529C25.1238 34.0676 25.3032 33.3942 25.6443 32.7999L30.4695 24.392C30.8132 23.7931 31.3088 23.2955 31.9064 22.9495C32.5039 22.6035 33.1819 22.4213 33.8724 22.4213ZM42.018 24.959C43.424 24.959 44.723 25.7116 45.4221 26.9314L48.787 32.8017C49.1274 33.3956 49.3065 34.0683 49.3065 34.7529C49.3065 35.4375 49.1274 36.1101 48.787 36.7041L45.4221 42.5743C45.0785 43.1736 44.5828 43.6716 43.9851 44.0179C43.3873 44.3642 42.7088 44.5465 42.018 44.5465H35.3375C33.9314 44.5465 32.6325 43.7941 31.9334 42.5743L28.5685 36.7041C28.2281 36.1101 28.049 35.4375 28.049 34.7529C28.049 34.0683 28.2281 33.3956 28.5685 32.8017L31.9334 26.9314C32.2769 26.3322 32.7726 25.8342 33.3703 25.488C33.968 25.1417 34.6465 24.9593 35.3372 24.9593L42.018 24.959ZM40.4393 27.7346H36.9162C36.226 27.7346 35.548 27.9166 34.9506 28.2624C34.3533 28.6081 33.8577 29.1053 33.5139 29.7037L31.7359 32.7981C31.3941 33.3929 31.2142 34.0669 31.2142 34.7529C31.2142 35.4389 31.3941 36.1129 31.7359 36.7077L33.5139 39.8023C33.8577 40.4008 34.3533 40.898 34.9506 41.2437C35.548 41.5894 36.226 41.7715 36.9162 41.7714H40.4393C41.8442 41.7714 43.1419 41.0203 43.8416 39.8023L45.6196 36.7077C45.9614 36.1129 46.1412 35.4389 46.1412 34.7529C46.1412 34.0669 45.9614 33.3929 45.6196 32.7981L43.8416 29.7034C43.4978 29.105 43.0022 28.6078 42.4048 28.2621C41.8075 27.9163 41.1295 27.7346 40.4393 27.7346ZM38.9194 30.391C40.323 30.391 41.6199 31.1409 42.3199 32.3571L42.5722 32.7953C42.9149 33.3907 43.0952 34.0656 43.0952 34.7526C43.0952 35.4395 42.9149 36.1144 42.5722 36.7098L42.3199 37.1481C41.9758 37.7457 41.4804 38.2421 40.8834 38.5873C40.2864 38.9325 39.609 39.1142 38.9194 39.1142H38.4361C37.7465 39.1142 37.0691 38.9325 36.4721 38.5873C35.8751 38.2421 35.3797 37.7457 35.0356 37.1481L34.7833 36.7098C34.4406 36.1144 34.2603 35.4395 34.2603 34.7526C34.2603 34.0656 34.4406 33.3907 34.7833 32.7953L35.0356 32.3571C35.3797 31.7594 35.8751 31.263 36.4721 30.9179C37.0691 30.5727 37.7465 30.391 38.4361 30.391H38.9194ZM38.6783 33.0081C38.3718 33.0079 38.0707 33.0885 37.8052 33.2416C37.5397 33.3947 37.3191 33.615 37.1657 33.8803C37.0125 34.1455 36.9319 34.4463 36.9319 34.7526C36.9319 35.0588 37.0125 35.3597 37.1657 35.6248C37.319 35.8902 37.5395 36.1106 37.8049 36.2638C38.0703 36.417 38.3714 36.4976 38.6779 36.4976C38.9844 36.4976 39.2854 36.417 39.5509 36.2638C39.8163 36.1106 40.0367 35.8902 40.19 35.6248C40.3432 35.3597 40.4239 35.0588 40.4239 34.7526C40.4239 34.4463 40.3432 34.1455 40.19 33.8803C40.0368 33.6151 39.8164 33.3948 39.551 33.2417C39.2857 33.0886 38.9847 33.008 38.6783 33.0081ZM24.5234 34.7526H27.6643Z" fill="#FFD94C"/>
</svg>
