<svg width="70" height="70" viewBox="0 0 70 70" fill="none" xmlns="http://www.w3.org/2000/svg">
<path d="M48.5023 48.1852C43.5805 58.2477 34.9617 65.018 23.5594 67.2438C21.8111 67.6721 20.0163 67.8815 18.2164 67.8672C11.6539 67.8672 5.63828 65.1328 2.71797 60.6539C-1.20313 54.6875 -2.5375 42.0383 10.3906 32.6813C10.6531 34.1086 11.1891 36.0664 11.5445 37.2258C9.00666 39.1112 6.92933 41.5476 5.46875 44.3516C3.0625 49.0766 3.33047 53.7961 6.17969 58.1602C8.14844 61.1024 11.2656 62.8906 15.2742 63.4375C20.2811 64.0712 25.3604 63.1147 29.7937 60.7031C36.7445 57.05 41.3766 52.6859 44.4062 46.7195C43.5496 45.8342 43.0425 44.6686 42.9789 43.4383C42.9331 42.1181 43.413 40.8336 44.3132 39.8668C45.2133 38.8999 46.4603 38.3297 47.7805 38.2813H47.9664C49.2504 38.2748 50.4878 38.7623 51.4225 39.6427C52.3572 40.5231 52.9176 41.7292 52.9879 43.0113C53.0581 44.2935 52.6328 45.5535 51.7999 46.5308C50.9671 47.5081 49.7903 48.1278 48.5133 48.2617L48.5023 48.1852ZM64.1813 37.1383C70.8586 44.707 71.0391 53.6156 68.4578 58.7836C66.0516 63.5031 59.7078 68.2281 51.1766 68.2281C47.194 68.1469 43.2762 67.2048 39.6922 65.4664C40.9445 64.575 42.7219 63.1477 43.7008 62.2563C46.4646 63.4536 49.439 64.0894 52.4508 64.1266C57.9742 64.1266 62.1578 61.5453 64.6516 56.8258C66.2539 53.7086 66.3469 50.0555 64.832 46.3149C62.9732 41.6084 59.6656 37.6151 55.3875 34.9125C49.7747 31.1289 43.158 29.1119 36.3891 29.1211H34.7867C34.4131 29.9842 33.8052 30.7255 33.032 31.2609C32.2588 31.7964 31.3511 32.1046 30.4117 32.1508H30.2422C28.9429 32.1348 27.701 31.613 26.7803 30.6961C25.8596 29.7792 25.3326 28.5395 25.3113 27.2403C25.2899 25.9411 25.7759 24.6847 26.6659 23.738C27.556 22.7914 28.7801 22.229 30.0781 22.1703H30.2586C31.1632 22.171 32.05 22.4209 32.8218 22.8927C33.5936 23.3645 34.2205 24.0398 34.6336 24.8445H36.0609C47.4359 24.8445 57.4219 29.2086 64.1813 37.1383ZM18.9273 49.7164C18.8337 48.8083 19.0537 47.8955 19.5508 47.1297C14.5633 38.4891 11.8945 27.5352 15.9906 16.1328C18.9273 7.56329 26.3211 1.77188 34.3383 1.77188C42.8914 1.77188 51.8 9.2586 52.8664 23.6852C51.532 23.2422 49.5852 22.5914 48.4148 22.3508C48.125 17.6313 44.1383 5.87344 34.6937 6.04844C31.3086 6.14141 26.3211 7.74376 23.7562 11.0359C20.5836 14.9659 18.738 19.8002 18.4844 24.8445C17.8832 31.7613 19.506 38.6893 23.1164 44.6195C23.3157 44.5467 23.5282 44.5169 23.7398 44.532H23.9148C25.2376 44.5081 26.5157 45.0106 27.468 45.929C28.4202 46.8475 28.9686 48.1065 28.9926 49.4293C29.0165 50.7521 28.514 52.0302 27.5956 52.9824C26.6772 53.9347 25.4181 54.4831 24.0953 54.507H23.9148C22.6244 54.5025 21.3855 54 20.4563 53.1045C19.5272 52.209 18.9795 50.9894 18.9273 49.7V49.7164Z" fill="#764ABC"/>
</svg>
