<svg width="70" height="70" viewBox="0 0 70 70" fill="none" xmlns="http://www.w3.org/2000/svg">
<path d="M53.5938 0H16.4062C7.34533 0 0 7.34533 0 16.4062V53.5938C0 62.6547 7.34533 70 16.4062 70H53.5938C62.6547 70 70 62.6547 70 53.5938V16.4062C70 7.34533 62.6547 0 53.5938 0Z" fill="#F4F2ED"/>
<path d="M24.7685 7.93051C24.4844 7.93898 24.1784 8.03988 23.8312 8.30238C22.9802 7.98793 22.1555 7.87883 21.4181 8.5184C20.2789 8.37703 19.9087 8.66906 19.6284 9.01058C19.3785 9.00539 17.7576 8.76394 17.0144 9.82652C15.1465 9.61488 14.5556 10.8795 15.2244 12.058C14.8435 12.6246 14.4476 13.183 15.3401 14.2622C15.0246 14.863 15.2201 15.5146 15.9638 16.304C15.7675 17.1481 16.153 17.7442 16.8448 18.2087C16.7152 19.3643 17.9509 20.037 18.32 20.2759C18.4617 20.9491 18.757 21.5852 20.169 21.936C20.4006 22.9406 21.2494 23.1137 22.0708 23.3239C19.3558 24.8366 17.028 26.8253 17.0442 31.7064L16.646 32.3865C13.5327 34.2005 10.7324 40.0299 15.1118 44.7686C15.3984 46.252 15.8774 47.317 16.3045 48.4963C16.9438 53.2478 21.1135 55.4725 22.213 55.7359C23.8249 56.9116 25.5412 58.0273 27.8638 58.8093C30.0532 60.9733 32.4256 61.7977 34.8108 61.7969H34.9158C37.3015 61.798 39.6739 60.9733 41.8627 58.8093C44.1856 58.0278 45.9017 56.9116 47.5136 55.7359C48.6134 55.4725 52.7833 53.2478 53.4218 48.4958C53.8489 47.317 54.3285 46.252 54.615 44.7686C58.9941 40.0299 56.1939 34.1996 53.0802 32.3854L52.6826 31.7062C52.6985 26.8253 50.3705 24.8355 47.6555 23.3237C48.4769 23.1131 49.3257 22.9392 49.5581 21.9357C50.9693 21.5843 51.2643 20.9489 51.4062 20.2754C51.7751 20.0356 53.0113 19.364 52.8817 18.2074C53.5732 17.7436 53.9588 17.1473 53.7627 16.3026C54.5065 15.514 54.7017 14.8621 54.3859 14.2611C55.2787 13.183 54.8825 12.6238 54.5016 12.0578C55.1701 10.8784 54.5803 9.61433 52.7116 9.82598C51.9684 8.76394 50.3478 9.00566 50.0981 9.01004C49.8173 8.66879 49.4468 8.37676 48.3079 8.51812C47.5707 7.87883 46.7455 7.98793 45.8948 8.30211C44.885 7.5384 44.2159 8.15062 43.4528 8.38222C42.2297 7.99887 41.95 8.52359 41.3495 8.73769C40.0157 8.46726 39.6102 9.05515 38.9706 9.67586L38.2268 9.66219C36.2152 10.7972 35.216 13.1108 34.8622 14.3C34.5073 13.1105 33.5106 10.7972 31.4992 9.66191L30.7554 9.67558C30.115 9.05488 29.7098 8.46726 28.3762 8.73769C27.7755 8.52359 27.496 7.99941 26.2724 8.38222C25.7709 8.23019 25.3102 7.9141 24.7677 7.93023L24.7685 7.93051Z" fill="#050606"/>
<path d="M20.8037 12.9284C26.1412 15.5643 29.243 17.6974 30.9433 19.5141C30.0729 22.8569 25.5319 23.0092 23.8708 22.9157C24.2112 22.7639 24.4948 22.5821 24.5954 22.3035C24.1787 22.0199 22.7016 22.2737 21.6699 21.7183C22.0664 21.6393 22.2515 21.5627 22.4369 21.283C21.4621 20.985 20.4127 20.7282 19.7955 20.2347C20.1285 20.2393 20.4394 20.3066 20.8748 20.017C20.0017 19.5664 19.0703 19.2095 18.3471 18.5205C18.7972 18.5101 19.2844 18.5158 19.4261 18.3572C18.6271 17.8834 17.9531 17.3556 17.3955 16.7795C18.0272 16.852 18.2935 16.7893 18.4466 16.6832C17.8423 16.091 17.0781 15.5906 16.7136 14.8605C17.1825 15.0153 17.6116 15.0746 17.9208 14.8468C17.7152 14.403 16.8366 14.1414 16.33 13.1053C16.8238 13.1507 17.3474 13.2084 17.4516 13.1053C17.223 12.2106 16.8301 11.7075 16.4443 11.1871C17.5005 11.1718 19.1012 11.1904 19.0288 11.1046L18.3753 10.4658C19.4075 10.1992 20.4635 10.5088 21.2302 10.7376C21.5742 10.4779 21.2242 10.1489 20.8045 9.81203C21.6814 9.92442 22.4735 10.1183 23.1894 10.3841C23.5725 10.0532 22.9414 9.72235 22.636 9.39039C23.9909 9.63703 24.5651 9.98293 25.1352 10.3299C25.5494 9.9493 25.159 9.62664 24.8801 9.29578C25.9014 9.65809 26.4277 10.1265 26.982 10.5883C27.1698 10.345 27.4586 10.1672 27.1097 9.58125C27.8346 9.98184 28.3809 10.4541 28.785 10.9826C29.2337 10.7086 29.0525 10.334 29.0552 9.98922C29.8091 10.5771 30.287 11.2016 30.8733 11.813C30.9903 11.731 31.0937 11.4513 31.1853 11.01C32.9834 12.6815 35.5247 16.8924 31.8382 18.5618C28.7011 16.083 24.9542 14.2805 20.8023 12.9284H20.8031H20.8037ZM49.0722 12.9284C43.7355 15.5646 40.6325 17.6971 38.9328 19.5141C39.8037 22.8569 44.345 23.0092 46.005 22.9157C45.6649 22.7639 45.3816 22.5821 45.2812 22.3035C45.6977 22.0199 47.1753 22.2737 48.2065 21.7183C47.8103 21.6393 47.6246 21.5627 47.4398 21.283C48.414 20.985 49.4637 20.7282 50.0812 20.2347C49.7478 20.2393 49.4364 20.3066 49.0014 20.017C49.8744 19.5664 50.8058 19.2095 51.5298 18.5205C51.0781 18.5101 50.5919 18.5158 50.4503 18.3572C51.2496 17.8834 51.9236 17.3556 52.4814 16.7795C51.8495 16.852 51.5832 16.7893 51.43 16.6832C52.0341 16.091 52.7983 15.5906 53.1628 14.8605C52.6939 15.0153 52.2651 15.0746 51.9556 14.8468C52.1609 14.403 53.0398 14.1414 53.5464 13.1053C53.0521 13.1507 52.529 13.2084 52.424 13.1053C52.6539 12.2106 53.0463 11.7072 53.4324 11.1866C52.3761 11.1716 50.7752 11.1899 50.8476 11.1046L51.5017 10.4658C50.4689 10.1989 49.4129 10.5082 48.6467 10.7371C48.3022 10.4773 48.6533 10.1484 49.0722 9.81176C48.1961 9.92414 47.4031 10.118 46.6873 10.3838C46.3042 10.0524 46.9355 9.72207 47.2407 9.39012C45.8858 9.63676 45.3121 9.98266 44.7412 10.3288C44.3275 9.94902 44.718 9.6261 44.9966 9.29551C43.975 9.65781 43.4489 10.1262 42.895 10.5872C42.7074 10.3444 42.4181 10.1664 42.7673 9.58016C42.0421 9.98129 41.4955 10.453 41.0914 10.9821C40.6426 10.7081 40.8242 10.3335 40.8212 9.98895C40.0682 10.5763 39.5894 11.2016 39.0037 11.8128C38.8861 11.7307 38.7827 11.451 38.6914 11.0094C36.893 12.6809 34.3519 16.8919 38.0382 18.5618C41.1742 16.0817 44.92 14.2797 49.073 12.9281L49.0722 12.9284Z" fill="#63C54D"/>
<path d="M41.3927 46.9695C41.4113 50.0888 38.564 52.6313 35.0334 52.6479C31.5025 52.6643 28.6253 50.149 28.6065 47.0291V46.9695C28.5876 43.8498 31.4349 41.3074 34.9655 41.291C38.4967 41.2746 41.3738 43.7899 41.3927 46.9096V46.9689V46.9695ZM31.4248 30.8336C34.0733 32.4964 34.5507 36.2657 32.4912 39.2525C30.4309 42.2393 26.6139 43.3128 23.9646 41.6497C21.3161 39.987 20.8384 36.2171 22.8982 33.2309C24.9583 30.2436 28.7755 29.1706 31.4248 30.8336ZM38.5744 30.5323C35.9253 32.1956 35.4479 35.9644 37.508 38.9517C39.568 41.9379 43.3852 43.012 46.0337 41.3484C48.6834 39.6856 49.1602 35.9163 47.1004 32.9295C45.0401 29.9433 41.2234 28.8695 38.5744 30.5329V30.5323ZM18.349 33.5696C21.2086 32.8346 19.3143 44.9064 16.9878 43.9163C14.4277 41.9434 13.6027 36.1662 18.3485 33.5696H18.349ZM51.4002 33.4193C48.5398 32.6851 50.4342 44.7568 52.7617 43.7664C55.3213 41.7933 56.1455 36.0158 51.4002 33.4193ZM41.8078 24.4128C46.7436 23.6143 50.8501 26.4234 50.6844 31.5517C50.522 33.5174 39.9891 24.7051 41.8078 24.4122V24.4128ZM28.1709 24.2624C23.2345 23.4634 19.1278 26.2735 19.2937 31.4013C19.4562 33.367 29.9893 24.5547 28.1709 24.2624ZM34.9702 23.0658C32.025 22.9925 29.1979 25.1612 29.1905 26.4182C29.1829 27.9464 31.5197 29.5107 34.991 29.5507C38.535 29.5747 40.7966 28.2983 40.8081 26.7214C40.8209 24.9348 37.5843 23.0385 34.9702 23.0658ZM35.198 54.402C37.7664 54.2943 41.213 55.1945 41.2193 56.3883C41.2623 57.5477 38.0939 60.1672 35.0276 60.1169C31.8522 60.2484 28.7383 57.6245 28.7793 56.7153C28.7314 55.3818 32.6462 54.3411 35.198 54.402ZM25.6933 47.3257C27.5215 49.4367 28.3546 53.145 26.8294 54.238C25.3857 55.0728 21.8796 54.7291 19.3873 51.2988C17.7073 48.4211 17.9241 45.4921 19.104 44.6313C20.8685 43.6015 23.5949 44.9928 25.6927 47.3257H25.6933ZM44.1036 46.6564C42.1247 48.8772 41.023 52.9266 42.4662 54.2309C43.846 55.2445 47.5505 55.1026 50.2873 51.4645C52.2744 49.0211 51.6083 44.9411 50.4736 43.8575C48.7875 42.6076 46.3673 44.2069 44.1033 46.6555L44.1036 46.6564Z" fill="#C51850"/>
</svg>
