<svg width="70" height="70" viewBox="0 0 56 70" fill="none" xmlns="http://www.w3.org/2000/svg">
<path d="M55.5352 27.7217C55.5352 12.4117 43.1237 -2.25757e-06 27.8135 -2.25757e-06C14.1674 -0.0193501 2.53847 9.89804 0.403255 23.3757C-1.73218 36.8533 6.26173 49.8794 19.245 54.0791V67.9693C19.245 68.4864 19.4504 68.9823 19.816 69.3479C20.1816 69.7135 20.6775 69.9189 21.1946 69.9189H34.3537C34.8707 69.9189 35.3666 69.7135 35.7322 69.3479C36.0979 68.9823 36.3033 68.4864 36.3033 67.9693V54.0889C47.7541 50.4017 55.5219 39.752 55.535 27.722M27.8133 37.0893C22.637 37.0893 18.4409 32.8935 18.4409 27.7172C18.4409 22.5411 22.637 18.345 27.813 18.345C32.9891 18.345 37.1852 22.5411 37.1852 27.7172C37.1852 32.8933 32.9891 37.0896 27.813 37.0896" fill="#2684FF"/>
<path d="M27.8133 -4.74885e-06V18.3543C32.9893 18.3543 37.1854 22.5504 37.1854 27.7265C37.1854 32.9026 32.9893 37.0987 27.8133 37.0987C28.9385 37.0987 30.0526 37.3203 31.0922 37.7509C32.1317 38.1815 33.0762 38.8126 33.8719 39.6083C34.6675 40.4039 35.2986 41.3485 35.7292 42.388C36.1597 43.4276 36.3813 44.5418 36.3813 45.6669V54.0985C49.3696 49.898 57.3667 36.8676 55.2313 23.3852C53.0963 9.90282 41.4639 -0.018483 27.8133 -4.74885e-06Z" fill="url(#paint0_linear_13_209)"/>
<defs>
<linearGradient id="paint0_linear_13_209" x1="1413.91" y1="4907.87" x2="1413.91" y2="1963.13" gradientUnits="userSpaceOnUse">
<stop offset="0.18" stop-color="#0052CC"/>
<stop offset="1" stop-color="#2684FF"/>
</linearGradient>
</defs>
</svg>
