<svg width="70" height="70" viewBox="0 0 70 70" fill="none" xmlns="http://www.w3.org/2000/svg">
<path d="M47.2908 19.7225L47.0721 20.8629C46.7337 23.0242 46.8563 23.6425 47.7837 24.4446L48.6792 25.1854L47.7517 29.3213C47.1975 31.7888 46.5179 33.8567 46.0863 34.5363C45.7158 35.1225 45.2842 35.9858 45.1908 36.4496C45.0363 37.0038 44.5112 37.5608 43.7092 38.0538C43.0004 38.4563 41.6092 39.5354 40.6233 40.4017C39.8358 41.1104 39.2933 41.545 38.9988 41.7317L38.0363 42.4929C37.7887 42.86 37.6026 43.2648 37.485 43.6917C37.4179 44.0038 37.4558 44.2108 37.555 44.3625C37.6513 44.5083 37.8175 44.6104 38.045 44.6746C38.3143 44.7377 38.5915 44.7603 38.8675 44.7417C39.4919 44.699 40.1098 44.5895 40.7108 44.415C40.915 44.3596 41.0754 44.3071 41.2154 44.2604C41.4313 43.995 41.93 43.4933 42.8138 42.6213C45.1588 40.3083 46.0542 39.0425 45.1296 39.3838C44.7883 39.5063 44.9429 39.1971 45.5292 38.5788C46.7658 37.3742 47.4746 35.5542 48.9562 29.8463C50.1287 25.34 50.1287 25.2758 50.9921 25.2758C51.3975 25.2758 52.5438 25.3458 52.5438 25.3458V19.7225H49.9129H47.2908ZM58.4879 28.9538C58.3013 28.9538 57.9921 29.2338 57.8083 29.5429C57.47 30.0971 57.8696 30.4354 62.9621 33.6146C65.9867 35.5308 68.425 37.1642 68.3637 37.2896C68.3025 37.38 65.8321 38.9871 62.8717 40.8392C57.4992 44.17 57.47 44.2021 57.9629 44.8817C58.5812 45.6838 57.9629 45.9608 64.9367 41.6092L70 38.3688V35.9304L64.3504 32.4421C61.2967 30.5288 58.6425 28.9858 58.4879 28.9538ZM11.5733 29.295C11.4187 29.295 8.76458 30.87 5.71083 32.7513L0 36.2396V38.6779L5.67875 42.2275C8.82875 44.17 11.4829 45.7771 11.6054 45.7771C11.7279 45.7771 11.9758 45.4971 12.2238 45.1588C12.5942 44.5725 12.2821 44.3246 7.06708 41.0229C2.1 37.905 1.575 37.4733 2.07083 37.135C2.38 36.9192 4.725 35.4667 7.25667 33.8946C13.0288 30.345 12.7196 30.59 12.2558 29.8492C12.0721 29.5429 11.76 29.2658 11.5763 29.295H11.5733ZM36.9017 29.3621C36.05 29.3563 34.2183 30.6542 28.735 35.1313C28.4988 35.6942 28.4783 36.0821 28.5863 36.3329C28.6562 36.505 28.7846 36.6246 28.9625 36.7121C29.1375 36.7996 29.365 36.8521 29.6158 36.8725C30.1146 36.9163 30.7037 36.8375 31.1792 36.7442L31.5 36.6713C31.6098 36.524 31.754 36.4058 31.92 36.3271C32.2583 36.1404 33.6788 34.8454 35.0992 33.4571C37.5988 30.9254 38.185 29.7821 37.1671 29.4117C37.0836 29.3784 36.9915 29.3616 36.9017 29.3621ZM43.3067 31.1208C42.5571 31.1413 41.2067 32.0104 38.8938 33.8567C37.7329 34.7988 36.9979 35.3063 36.6042 35.4113L35.0758 36.6188C34.5013 37.6688 34.4167 38.3192 34.5683 38.6779C34.6063 38.7664 34.6614 38.8465 34.7305 38.9136C34.7996 38.9807 34.8813 39.0334 34.9708 39.0688C35.1937 39.1567 35.4313 39.2013 35.6708 39.2C36.2433 39.1939 36.8123 39.1105 37.3625 38.9521C37.6492 38.8751 37.9324 38.7856 38.2113 38.6838L38.2958 38.6488L38.4504 38.5671C38.7421 38.1908 39.4129 37.4821 40.2529 36.6654C42.9071 34.1046 44.2633 32.2846 43.9863 31.605C43.8608 31.2754 43.645 31.1092 43.3067 31.1208ZM36.2367 34.2708C36.0208 34.2942 35.5367 34.6675 34.6646 35.4317C33.4046 36.5458 32.0308 37.1875 31.5554 36.9017C31.4449 36.9266 31.3341 36.95 31.2229 36.9717C30.7388 37.0679 30.135 37.1467 29.5954 37.1029C29.3412 37.0875 29.092 37.0252 28.8604 36.9192C28.642 36.8193 28.4677 36.6429 28.3704 36.4233C28.2625 36.1608 28.2625 35.8342 28.385 35.4171L26.4892 36.9746L22.1988 40.5242V46.2788L36.2571 35.2042C36.2544 35.0829 36.2701 34.9619 36.3037 34.8454C36.4117 34.4546 36.4058 34.2563 36.2367 34.2738V34.2708ZM42.2858 36.1346C42.0729 36.1346 41.7171 36.435 41.1483 37.0388C40.3754 37.8642 39.1592 38.6633 38.5146 38.8267L38.4154 38.8792C38.3096 38.9229 38.2026 38.9637 38.0946 39.0017C37.9196 39.06 37.6921 39.13 37.4296 39.2C36.9046 39.3429 36.2513 39.4742 35.6679 39.4596C35.3929 39.4592 35.1206 39.4058 34.8658 39.3021C34.6257 39.2031 34.4334 39.0149 34.3292 38.7771C34.16 38.3717 34.2271 37.8029 34.5975 36.995L22.1958 46.7629V50.2775H27.6442L39.2 41.2008C39.5004 40.8683 39.9525 40.4133 40.5621 39.8446C42.1954 38.3308 42.5658 37.8088 42.5658 37.0358C42.5658 36.435 42.4988 36.1317 42.2858 36.1317V36.1346ZM45.0363 41.8221L44.0475 42.8079C43.4933 43.3329 42.5046 43.9804 41.8279 44.2575L41.6938 44.3158L41.685 44.3304L41.6558 44.3596C41.6296 44.38 41.6179 44.3829 41.5975 44.3917C41.3274 44.4939 41.053 44.5844 40.775 44.6629C40.157 44.8428 39.5214 44.9553 38.8792 44.9983C38.5755 45.0178 38.2707 44.9913 37.975 44.9196C37.7184 44.8631 37.4918 44.7134 37.3392 44.4996C37.1992 44.2838 37.1583 43.995 37.2371 43.6392C37.2997 43.3858 37.3928 43.141 37.5142 42.91L28.1896 50.2775H40.5913L42.0729 48.58C44.1088 46.2058 45.0363 44.5083 45.0363 43.0558V41.8221Z" fill="black"/>
</svg>
