<svg width="70" height="70" viewBox="0 0 70 70" fill="none" xmlns="http://www.w3.org/2000/svg">
<path d="M69.1046 31.2258L55.3087 7.35292C54.1129 5.28208 51.1758 3.57875 48.7754 3.57875H21.2129C18.8212 3.57875 15.8725 5.28208 14.6796 7.35292L0.892481 31.2258C-0.303353 33.2967 -0.303353 36.6887 0.892481 38.7625L14.6737 62.6471C15.8696 64.7179 18.8066 66.4213 21.2071 66.4213H48.7841C51.1758 66.4213 54.11 64.7179 55.3175 62.6471L69.1016 38.7596C70.2975 36.6887 70.2975 33.2967 69.1016 31.2258H69.1046ZM32.0133 16.7854C32.0133 15.2192 33.2908 13.9417 34.8541 13.9417C36.4175 13.9417 37.6979 15.2192 37.6979 16.7854V33.7633C37.6516 34.4853 37.3322 35.1626 36.8045 35.6575C36.2768 36.1524 35.5805 36.4279 34.8571 36.4279C34.1336 36.4279 33.4373 36.1524 32.9096 35.6575C32.382 35.1626 32.0625 34.4853 32.0162 33.7633L32.0133 16.7854ZM34.8541 53.0396C29.7444 53.0326 24.8461 50.9993 21.2335 47.3857C17.621 43.772 15.5891 38.873 15.5837 33.7633C15.5906 30.7579 16.2971 27.7953 17.6473 25.1103C18.9974 22.4252 20.9541 20.0912 23.3625 18.2933C23.6292 18.0946 23.9325 17.9506 24.255 17.8694C24.5776 17.7882 24.913 17.7715 25.242 17.8203C25.5709 17.8691 25.8871 17.9824 26.1722 18.1536C26.4573 18.3249 26.7057 18.5508 26.9033 18.8183C27.1019 19.0846 27.246 19.3874 27.3273 19.7094C27.4087 20.0314 27.4258 20.3664 27.3775 20.695C27.3293 21.0236 27.2168 21.3395 27.0463 21.6245C26.8758 21.9096 26.6508 22.1583 26.3841 22.3562C23.4623 24.6422 21.5493 27.9794 21.0533 31.6559C20.5574 35.3325 21.5176 39.0573 23.7293 42.0358C25.941 45.0142 29.229 47.0106 32.8919 47.5989C36.5548 48.1873 40.3026 47.321 43.3358 45.185C45.1172 43.8611 46.5639 42.1385 47.5601 40.1551C48.5563 38.1718 49.0744 35.9828 49.0729 33.7633C49.067 31.5356 48.5402 29.3401 47.5344 27.3524C46.5286 25.3646 45.0718 23.6397 43.2804 22.3154C42.7413 21.9158 42.3825 21.3188 42.2824 20.6552C42.1824 19.9916 42.3493 19.3154 42.7466 18.7746C43.1463 18.2355 43.7433 17.8766 44.4069 17.7766C45.0705 17.6766 45.7467 17.8435 46.2875 18.2408C48.7149 20.0368 50.688 22.3762 52.0489 25.0716C53.4098 27.7671 54.1207 30.7438 54.1246 33.7633C54.1207 38.8738 52.0889 43.7738 48.4753 47.3874C44.8617 51.001 39.9617 53.0328 34.8512 53.0367" fill="#80AB48"/>
</svg>
