<svg width="70" height="72" viewBox="0 0 71 72" fill="none" xmlns="http://www.w3.org/2000/svg">
<path d="M63.6847 4.63289C62.7043 6.98482 61.4493 9.21258 59.9457 11.2698C53.358 4.68588 44.4258 0.98691 35.1121 0.985779C15.8506 0.985779 3.25431e-08 16.8495 3.25431e-08 36.1323C-0.00020479 40.894 0.966439 45.6061 2.84135 49.9832C4.71626 54.3602 7.46038 58.3109 10.9074 61.5959L12.2024 62.7444C18.5314 68.0805 26.5418 71.0094 34.8201 71.0142C53.1333 71.0142 68.5278 56.6642 69.8316 38.3751C70.7891 29.4222 68.163 18.0986 63.6847 4.63289ZM15.896 61.7961C15.6141 62.1435 15.2582 62.4235 14.8544 62.616C14.4505 62.8084 14.0088 62.9083 13.5614 62.9084C11.9109 62.9084 10.5607 61.55 10.5607 59.8995C10.5607 58.2496 11.9197 56.8912 13.5614 56.8912C14.245 56.8912 14.9204 57.128 15.4492 57.566C16.7349 58.6051 16.9356 60.5104 15.896 61.7961ZM63.5392 51.2753C54.8751 62.8264 36.3705 58.9332 24.5055 59.4894C24.5055 59.4894 22.3989 59.6173 20.283 59.9635C20.283 59.9635 21.076 59.6261 22.1069 59.234C30.4336 56.335 34.3733 55.7695 39.4346 53.1713C48.965 48.3211 58.386 37.709 60.3471 26.6681C56.7175 37.2895 45.7182 46.4158 35.6956 50.1263C28.8285 52.6611 16.4248 55.1226 16.4248 55.1226L15.9234 54.8579C7.47852 50.7465 7.22258 32.4486 22.5717 26.5407C29.2934 23.9512 35.723 25.3737 42.9827 23.6412C50.7347 21.7998 59.6996 15.9827 63.3473 8.39758C67.433 20.5327 72.3494 39.5323 63.5392 51.2753Z" fill="#77BC1F"/>
</svg>
