<svg width="70" height="70" viewBox="0 0 70 70" fill="none" xmlns="http://www.w3.org/2000/svg">
<path d="M53.5938 0H16.4062C7.34533 0 0 7.34533 0 16.4062V53.5938C0 62.6547 7.34533 70 16.4062 70H53.5938C62.6547 70 70 62.6547 70 53.5938V16.4062C70 7.34533 62.6547 0 53.5938 0Z" fill="#007ACC"/>
<path d="M15.4796 35.2321L15.4574 38.0989H24.5684V63.9877H31.0133V38.0989H40.1242V35.2877C40.1242 33.7321 40.0911 32.4321 40.0466 32.3988C40.0132 32.3545 34.4687 32.3321 27.7465 32.3433L15.5132 32.3766L15.4796 35.2321ZM56.4832 32.2952C58.2608 32.7398 59.6165 33.5286 60.8609 34.8173C61.5054 35.5064 62.4608 36.762 62.5387 37.062C62.5609 37.1509 59.5164 39.1953 57.6721 40.3397C57.6054 40.3843 57.3385 40.0952 57.0385 39.6509C56.1386 38.3398 55.1942 37.7729 53.7496 37.6731C51.6275 37.5285 50.2608 38.6397 50.272 40.4953C50.272 41.0397 50.3497 41.3618 50.572 41.8064C51.0385 42.773 51.9053 43.3508 54.6276 44.5285C59.6386 46.6843 61.7829 48.1064 63.1165 50.1285C64.6054 52.3841 64.9387 55.9841 63.9275 58.6619C62.8165 61.5729 60.0608 63.5507 56.1829 64.2064C54.9831 64.4175 52.1385 64.3841 50.8498 64.1509C48.0386 63.6508 45.372 62.262 43.7276 60.4398C43.0831 59.7286 41.8275 57.873 41.9054 57.7396C41.9385 57.6953 42.2275 57.5176 42.5496 57.3286C42.8608 57.1509 44.0388 56.473 45.1497 55.8286L47.1609 54.6618L47.5831 55.2841C48.172 56.184 49.4607 57.4175 50.2387 57.8285C52.4718 59.0064 55.5387 58.8396 57.0497 57.4842C57.6942 56.8952 57.9608 56.2841 57.9608 55.3842C57.9608 54.5729 57.8607 54.2175 57.4386 53.6063C56.8941 52.8287 55.7832 52.173 52.6274 50.8063C49.0164 49.2507 47.4608 48.2841 46.0387 46.7507C45.2165 45.862 44.4385 44.4396 44.1164 43.2507C43.8498 42.2619 43.7831 39.7841 43.9942 38.7841C44.7385 35.2953 47.372 32.862 51.1719 32.1396C52.4054 31.9063 55.2718 31.9952 56.4832 32.2952Z" fill="white"/>
</svg>
